<svg width="22" height="22" viewBox="0 0 22 22" fill="none" xmlns="http://www.w3.org/2000/svg">
<path d="M4.98145 11.0621C4.98145 11.2154 5.01164 11.3673 5.07032 11.5089C5.129 11.6506 5.215 11.7793 5.32342 11.8877C5.43184 11.9961 5.56055 12.0821 5.70221 12.1408C5.84386 12.1995 5.99569 12.2297 6.14902 12.2297C6.30234 12.2297 6.45417 12.1995 6.59583 12.1408C6.73748 12.0821 6.86619 11.9961 6.97461 11.8877C7.08303 11.7793 7.16904 11.6506 7.22771 11.5089C7.28639 11.3673 7.31659 11.2154 7.31659 11.0621C7.31659 10.9088 7.28639 10.7569 7.22771 10.6153C7.16904 10.4736 7.08303 10.3449 6.97461 10.2365C6.86619 10.1281 6.73748 10.0421 6.59583 9.98341C6.45417 9.92473 6.30234 9.89453 6.14902 9.89453C5.99569 9.89453 5.84386 9.92473 5.70221 9.98341C5.56055 10.0421 5.43184 10.1281 5.32342 10.2365C5.215 10.3449 5.129 10.4736 5.07032 10.6153C5.01164 10.7569 4.98145 10.9088 4.98145 11.0621Z" fill="#B7BACE"/>
<path d="M9.89535 11.0621C9.89535 11.3718 10.0184 11.6687 10.2373 11.8877C10.4563 12.1067 10.7533 12.2297 11.0629 12.2297C11.3726 12.2297 11.6696 12.1067 11.8885 11.8877C12.1075 11.6687 12.2305 11.3718 12.2305 11.0621C12.2305 10.7524 12.1075 10.4555 11.8885 10.2365C11.6696 10.0175 11.3726 9.89453 11.0629 9.89453C10.7533 9.89453 10.4563 10.0175 10.2373 10.2365C10.0184 10.4555 9.89535 10.7524 9.89535 11.0621Z" fill="#B7BACE"/>
<path d="M15.1511 11.8877C14.9321 11.6687 14.8091 11.3718 14.8091 11.0621C14.8091 10.7524 14.9321 10.4555 15.1511 10.2365C15.3701 10.0175 15.667 9.89453 15.9767 9.89453C16.2864 9.89453 16.5833 10.0175 16.8023 10.2365C17.0213 10.4555 17.1443 10.7524 17.1443 11.0621C17.1443 11.3718 17.0213 11.6687 16.8023 11.8877C16.5833 12.1067 16.2864 12.2297 15.9767 12.2297C15.667 12.2297 15.3701 12.1067 15.1511 11.8877Z" fill="#B7BACE"/>
<path d="M11 1.57143C12.4603 1.57095 13.9007 1.90967 15.2078 2.56088C16.5148 3.2121 17.6527 4.15801 18.5318 5.32405C19.4109 6.4901 20.0071 7.84439 20.2735 9.28018C20.5399 10.716 20.4691 12.194 20.0667 13.5978C19.6644 15.0016 18.9415 16.2927 17.955 17.3694C16.9685 18.4461 15.7454 19.2789 14.3821 19.8023C13.0188 20.3256 11.5526 20.5251 10.0991 20.3851C8.6455 20.2451 7.24432 19.7694 6.006 18.9954C5.78341 18.8569 5.52984 18.7758 5.26814 18.7597C5.00644 18.7435 4.74483 18.7926 4.50686 18.9027L1.58086 20.2714V11.5343V11.3881C1.57143 11.2609 1.57143 11.1257 1.57143 11C1.57434 8.50028 2.56864 6.10378 4.33621 4.33621C6.10378 2.56864 8.50028 1.57434 11 1.57143ZM11 1.56258e-08C8.08262 1.56258e-08 5.28472 1.15892 3.22182 3.22182C1.15892 5.28472 0 8.08262 0 11C0 11.1571 -4.82957e-08 11.3017 0.011 11.451V20.6957C0.0099735 20.9147 0.0644378 21.1304 0.169311 21.3226C0.274184 21.5149 0.426048 21.6774 0.610733 21.7951C0.795417 21.9128 1.0069 21.9818 1.22546 21.9956C1.44401 22.0095 1.66251 21.9677 1.86057 21.8743L5.17314 20.3296C6.61788 21.232 8.25247 21.7865 9.94807 21.9495C11.6437 22.1125 13.354 21.8795 14.9441 21.2688C16.5343 20.6581 17.961 19.6865 19.1116 18.4304C20.2623 17.1744 21.1055 15.6683 21.5748 14.0308C22.0441 12.3933 22.1268 10.6692 21.8162 8.99432C21.5056 7.31946 20.8103 5.73961 19.785 4.37929C18.7598 3.01897 17.4326 1.91534 15.9081 1.15538C14.3836 0.395427 12.7034 -9.07711e-05 11 1.56258e-08Z" fill="#B7BACE"/>
</svg>
