<svg width="35" height="28" viewBox="0 0 35 28" fill="none" xmlns="http://www.w3.org/2000/svg">
<path d="M29.9253 28H5.07515C4.40898 28.0008 3.74918 27.8698 3.13348 27.6142C2.51777 27.3587 1.95825 26.9837 1.48689 26.5108C1.01554 26.0379 0.641604 25.4762 0.38647 24.858C0.131337 24.2398 1.07238e-05 23.5771 4.01579e-08 22.9078V9.09024C-0.000255949 7.04012 1.22337 5.18965 3.10455 4.3954C3.03555 4.31111 2.99878 4.20482 3.00087 4.09571C3.00087 3.98512 3.64921 2.50044 3.91484 2.50044H7.27862C7.53802 2.50044 8.23789 3.65302 8.43893 3.99824H10.5002C10.5002 3.99824 12.5417 0 13.501 0H24.5195C25.5241 0 27.0213 3.99824 27.0213 3.99824H29.9446C32.7388 4.00535 35 6.28316 35 9.09024V22.9077C35 23.5769 34.8686 24.2396 34.6135 24.8578C34.3584 25.476 33.9845 26.0376 33.5132 26.5105C33.0419 26.9835 32.4824 27.3584 31.8668 27.614C31.2511 27.8696 30.5914 28.0007 29.9253 28ZM5.50274 8.99903C6.31004 9.00117 7.03867 8.51331 7.34731 7.76364C7.49805 7.39714 7.53691 6.99388 7.45893 6.60513C7.38095 6.21638 7.18967 5.85972 6.9094 5.58047C6.62895 5.30264 6.27321 5.11401 5.88665 5.03817C5.50009 4.96233 5.09985 5.00265 4.73596 5.15407C4.37218 5.30562 4.06093 5.56153 3.84113 5.88981C3.62132 6.2181 3.50271 6.60419 3.50013 6.99983C3.50705 8.10612 4.40164 8.99903 5.50274 8.99903ZM19.0038 5.49577C13.793 5.52826 9.5902 9.78916 9.60556 15.0242C9.62126 20.2593 13.8493 24.4951 19.0601 24.4962C24.2707 24.4979 28.5009 20.2636 28.5189 15.0286C28.5205 13.7741 28.2753 12.5316 27.7974 11.3725C27.3195 10.2135 26.6183 9.16077 25.734 8.27489C24.8498 7.38901 23.8 6.68744 22.645 6.2105C21.49 5.73356 20.2526 5.49067 19.0038 5.49577ZM19.0038 21.4949C15.4241 21.4949 12.5225 18.5794 12.5225 14.9832C12.5225 11.3869 15.4241 8.47173 19.0038 8.47173C22.5835 8.47173 25.4855 11.3869 25.4855 14.9832C25.4855 15.8383 25.3178 16.6851 24.992 17.4751C24.6663 18.2651 24.1888 18.9829 23.5868 19.5875C22.985 20.1922 22.2705 20.6719 21.4842 20.9992C20.6978 21.3264 19.855 21.4949 19.0038 21.4949Z" fill="white"/>
</svg>
