<svg width="20" height="20" viewBox="0 0 20 20" fill="none" xmlns="http://www.w3.org/2000/svg">
<path d="M10.0941 15.7785C10.195 15.7785 10.2978 15.7725 10.4012 15.7606C11.3926 15.6454 12.2344 14.9743 12.5452 14.0495C12.5686 13.9803 12.5347 13.9062 12.4664 13.8758C12.3987 13.8454 12.3169 13.8716 12.2787 13.9337C12.275 13.9397 11.8812 14.5558 10.3476 14.7564C10.1181 14.7863 9.89473 14.8018 9.68303 14.8018C8.60858 14.8012 8.12981 14.409 8.1255 14.4054C8.07136 14.3588 7.98888 14.3576 7.93351 14.403C7.87752 14.4484 7.86458 14.5272 7.90273 14.5875C8.37044 15.3218 9.2098 15.7785 10.0941 15.7785ZM18.3396 6.57492C18.3261 6.57492 18.3138 6.5773 18.3009 6.5773C17.4024 2.81014 13.9692 0 9.85289 0C5.62338 0 2.1114 2.96538 1.33292 6.88834C0.576009 7.02029 0 7.66446 0 8.44358V11.5618C0 12.4358 0.7237 13.1445 1.61723 13.1445C2.12124 13.1445 2.56616 12.914 2.86216 12.56C3.5772 14.3916 5.03314 15.8685 6.8755 16.6477C6.87992 16.6384 6.91481 16.5727 6.95673 16.5204C6.9858 16.4841 7.01823 16.4543 7.04614 16.4543C7.07507 16.4543 7.10153 16.4645 7.12429 16.48C6.69782 16.1725 5.15753 14.5922 4.824 12.3869C4.67754 11.4161 5.4283 10.4633 6.30276 10.3057C7.70645 10.0525 9.10276 9.76419 10.5064 9.51584C11.3987 9.35822 12.0086 8.88419 12.3815 8.09495C12.4689 7.91047 12.5951 7.53734 12.6529 6.99943C12.6683 6.91944 12.736 6.85793 12.8228 6.85793C12.8806 6.85793 12.9299 6.88659 12.9625 6.92778L13.0012 6.9045C13.5545 7.68241 14.6517 9.40479 14.8092 11.2209C14.9902 13.2973 14.8892 14.7194 13.248 16.1743C13.2462 16.1761 13.2437 16.1785 13.2413 16.1803C13.2185 16.2042 13.2049 16.2353 13.2049 16.2693C13.2049 16.3141 13.2296 16.3523 13.2653 16.3755C13.2788 16.3809 13.2923 16.3881 13.3059 16.3934C13.3169 16.3958 13.3274 16.3994 13.3385 16.3994C13.3496 16.3994 13.3594 16.3958 13.3693 16.3934C13.3927 16.3815 13.4148 16.3678 13.4376 16.3558C15.0973 15.4704 16.3705 13.9917 16.9588 12.2131C17.1969 12.5558 17.5698 12.8024 18.0031 12.8884C17.3083 15.9487 14.4899 17.8639 10.9982 18.1546C10.7889 17.6519 10.2739 17.2949 9.66895 17.2949C8.87881 17.2949 8.23818 17.9009 8.23818 18.6478C8.23818 19.3946 8.87879 20 9.66895 20C10.3059 20 10.8394 19.6036 11.0246 19.0591C15.0665 18.7409 18.3065 16.4143 18.9828 12.7994C19.5803 12.5576 20 11.9899 20 11.3272V8.17194C19.9999 7.29015 19.2565 6.57492 18.3396 6.57492ZM16.8485 7.48119C15.7944 4.71583 13.0627 2.7403 9.8492 2.7403C6.64921 2.7403 3.92739 4.6991 2.86339 7.44655C2.81047 7.38386 2.74831 7.33014 2.68738 7.27581C3.28983 3.92775 6.26522 1.38209 9.85289 1.38209C13.4233 1.38209 16.3895 3.90267 17.0116 7.22745C16.9501 7.30747 16.8935 7.39105 16.8485 7.48119ZM6.87566 16.6477C6.87559 16.6477 6.87554 16.6477 6.87547 16.6477C6.87481 16.6491 6.87478 16.6493 6.87566 16.6477Z" fill="#666666"/>
</svg>
