<svg width="20" height="20" viewBox="0 0 20 20" fill="none" xmlns="http://www.w3.org/2000/svg">
<path fill-rule="evenodd" clip-rule="evenodd" d="M0 0H16.6684V1.94465H0V0ZM0 7.77861H6.04471C5.59019 8.37376 5.20688 9.02622 4.90753 9.72326H0V7.77861ZM5.16546 17.5019C4.85306 16.8902 4.60734 16.2388 4.43789 15.5572H0V17.5019H5.16546ZM6.66764 13.3322C6.66764 9.64034 9.643 6.66481 13.3347 6.66481C17.0263 6.66481 20.0568 9.64034 20.0017 13.3322C20.0017 17.024 17.0263 19.9996 13.3347 19.9996C9.643 19.9996 6.66764 17.024 6.66764 13.3322ZM13.8331 16.3838L13.8336 16.3832C14.9863 15.1137 16.1466 13.8358 17.2782 12.5351C17.4212 12.3638 17.2782 12.1926 17.0637 12.1926H15.562C15.4571 12.1926 15.3031 12.2024 15.1306 12.2134L15.1306 12.2134C14.7146 12.2399 14.1909 12.2733 13.9887 12.1926C13.9432 12.0835 14.0138 11.9048 14.071 11.76C14.1035 11.6776 14.1318 11.6061 14.1318 11.5647C14.3463 11.1081 14.4893 10.7085 14.6323 10.1948C14.7396 9.88082 14.8648 9.55261 14.9899 9.22439C15.115 8.89617 15.2402 8.56796 15.3474 8.25401C15.419 8.02569 14.9899 7.91153 14.8469 8.08277C14.1908 8.81598 13.525 9.5492 12.8567 10.2852C11.704 11.5547 10.5437 12.8326 9.41209 14.1334C9.19755 14.2475 9.48359 14.4188 9.62662 14.4188H11.7719C11.7996 14.4188 11.8434 14.4166 11.897 14.414L11.8971 14.414C12.1205 14.4031 12.5147 14.3838 12.6301 14.4758C12.7016 14.59 12.5585 14.8754 12.487 14.9896C12.3083 15.5604 12.1116 16.1312 11.9149 16.702L11.9149 16.7021C11.7183 17.2729 11.5216 17.8437 11.3429 18.4144C11.2714 18.6428 11.7004 18.7569 11.8434 18.5857C12.4994 17.8526 13.165 17.1196 13.8331 16.3838Z" fill="black"/>
</svg>
