<svg width="30" height="30" viewBox="0 0 30 30" fill="none" xmlns="http://www.w3.org/2000/svg">
<rect width="30" height="30" rx="15" fill="url(#paint0_linear_34_1715)"/>
<path d="M11.3732 16.5761C10.4341 16.8253 9.88131 17.8312 10.4285 18.6342C11.5645 20.301 13.4892 21.3971 15.6724 21.3971C18.3078 21.3971 20.5666 19.7999 21.5159 17.5295C22.1319 16.0561 21.5159 13.9384 18.9264 14.5715L11.3732 16.5761Z" fill="url(#paint1_linear_34_1715)" fill-opacity="0.4"/>
<path d="M15.6124 10.0836H15.6123C13.1117 10.0836 11.0845 12.1108 11.0845 14.6114C11.0845 17.1121 13.1117 19.1393 15.6123 19.1393C16.9888 19.1393 18.2219 18.525 19.0523 17.5558C19.8528 16.7342 20.7394 16.7342 21.4306 16.9403C21.7771 17.0436 22.074 17.1988 22.2844 17.3285C22.3895 17.3932 22.4728 17.4515 22.5297 17.4934C22.554 17.5114 22.5735 17.5263 22.5878 17.5375C21.4439 20.2612 18.7514 22.1738 15.6123 22.1738C11.4358 22.1738 8.05 18.788 8.05 14.6114C8.05 10.4349 11.4358 7.04908 15.6123 7.04908C17.3248 7.04908 18.9043 7.61825 20.172 8.57775C20.2404 8.62957 20.3237 8.70373 20.4203 8.78975C20.4479 8.81436 20.4767 8.83994 20.5064 8.86625C20.639 8.9834 20.7904 9.11286 20.9521 9.22696C21.2378 9.42849 21.5679 9.59081 21.8918 9.5382C21.8734 9.56796 21.8504 9.60346 21.8228 9.64328C21.7369 9.76691 21.6063 9.9319 21.4276 10.0968C21.0705 10.4265 20.5223 10.7553 19.7544 10.7553C19.2051 10.7553 18.6317 10.6132 18.007 10.4585C17.9569 10.4461 17.9065 10.4336 17.8558 10.4211C17.1742 10.2532 16.4347 10.0839 15.6152 10.0836L15.6133 10.0836L15.6126 10.0836H15.6124H15.6124H15.6124H15.6124Z" fill="url(#paint2_linear_34_1715)" stroke="white" stroke-width="0.1"/>
<defs>
<linearGradient id="paint0_linear_34_1715" x1="15" y1="0" x2="15" y2="30" gradientUnits="userSpaceOnUse">
<stop stop-color="#88FF12"/>
<stop offset="0.65625" stop-color="#1AB339"/>
<stop offset="1" stop-color="#4CCE5F"/>
</linearGradient>
<linearGradient id="paint1_linear_34_1715" x1="10.7041" y1="14.4564" x2="14.4482" y2="22.8885" gradientUnits="userSpaceOnUse">
<stop stop-color="white"/>
<stop offset="0.7" stop-color="#F6DDC0"/>
<stop offset="1" stop-color="#FFFEFB" stop-opacity="0.86"/>
</linearGradient>
<linearGradient id="paint2_linear_34_1715" x1="9.28174" y1="6.99908" x2="20.0945" y2="20.4498" gradientUnits="userSpaceOnUse">
<stop stop-color="white"/>
<stop offset="0.7" stop-color="white" stop-opacity="0.74"/>
<stop offset="1" stop-color="#FFFEFB" stop-opacity="0.86"/>
</linearGradient>
</defs>
</svg>
