<svg width="30" height="30" viewBox="0 0 30 30" fill="none" xmlns="http://www.w3.org/2000/svg">
<rect width="30" height="30" rx="15" fill="url(#paint0_linear_34_1708)"/>
<mask id="path-2-inside-1_34_1708" fill="white">
<path fill-rule="evenodd" clip-rule="evenodd" d="M13.0319 12.5248C13.5034 12.4725 14.8904 12.4464 17.1813 12.4464C20.38 12.4464 21.5745 13.8281 21.933 14.2428C21.9598 14.2739 21.982 14.2995 22 14.3187C21.7424 11.3629 20.1392 9.89212 17.179 9.90875H13.0273V7.47803C13.0273 7.37585 12.9974 7.27606 12.9353 7.1929C12.8587 7.09108 12.747 7.02383 12.6235 7.00522C12.5 6.98662 12.3744 7.01811 12.2729 7.0931L7.19421 10.8711C7.13352 10.9145 7.08407 10.9726 7.05021 11.0404C7.01636 11.1081 6.99913 11.1834 7.00003 11.2597C7.00094 11.336 7.01996 11.4108 7.05542 11.4777C7.09089 11.5446 7.14171 11.6014 7.20342 11.6433L12.282 15.2454C12.3637 15.3022 12.4597 15.3328 12.5581 15.3333C12.818 15.3333 13.0319 15.1195 13.0319 14.8581V12.5248ZM21.8101 18.9606C21.85 18.931 21.8849 18.8949 21.9136 18.8537V18.8513C22.0631 18.6376 22.0148 18.3408 21.7986 18.1864L16.72 14.5816C16.6395 14.527 16.5429 14.4961 16.4463 14.4961C16.1864 14.4961 15.9725 14.7074 15.9725 14.971V17.303C15.501 17.3553 14.1141 17.3814 11.8209 17.3814C8.63636 17.3814 7.4377 16.0145 7.07257 15.5981C7.04318 15.5646 7.01919 15.5372 7 15.5172C7.25761 18.4714 8.86305 19.9413 11.8209 19.9223H15.9725V22.3517C15.972 22.4545 16.0043 22.5547 16.0645 22.6366C16.1411 22.7384 16.2528 22.8056 16.3763 22.8242C16.4998 22.8428 16.6254 22.8113 16.7269 22.7364L21.8101 18.9606Z"/>
</mask>
<path fill-rule="evenodd" clip-rule="evenodd" d="M13.0319 12.5248C13.5034 12.4725 14.8904 12.4464 17.1813 12.4464C20.38 12.4464 21.5745 13.8281 21.933 14.2428C21.9598 14.2739 21.982 14.2995 22 14.3187C21.7424 11.3629 20.1392 9.89212 17.179 9.90875H13.0273V7.47803C13.0273 7.37585 12.9974 7.27606 12.9353 7.1929C12.8587 7.09108 12.747 7.02383 12.6235 7.00522C12.5 6.98662 12.3744 7.01811 12.2729 7.0931L7.19421 10.8711C7.13352 10.9145 7.08407 10.9726 7.05021 11.0404C7.01636 11.1081 6.99913 11.1834 7.00003 11.2597C7.00094 11.336 7.01996 11.4108 7.05542 11.4777C7.09089 11.5446 7.14171 11.6014 7.20342 11.6433L12.282 15.2454C12.3637 15.3022 12.4597 15.3328 12.5581 15.3333C12.818 15.3333 13.0319 15.1195 13.0319 14.8581V12.5248ZM21.8101 18.9606C21.85 18.931 21.8849 18.8949 21.9136 18.8537V18.8513C22.0631 18.6376 22.0148 18.3408 21.7986 18.1864L16.72 14.5816C16.6395 14.527 16.5429 14.4961 16.4463 14.4961C16.1864 14.4961 15.9725 14.7074 15.9725 14.971V17.303C15.501 17.3553 14.1141 17.3814 11.8209 17.3814C8.63636 17.3814 7.4377 16.0145 7.07257 15.5981C7.04318 15.5646 7.01919 15.5372 7 15.5172C7.25761 18.4714 8.86305 19.9413 11.8209 19.9223H15.9725V22.3517C15.972 22.4545 16.0043 22.5547 16.0645 22.6366C16.1411 22.7384 16.2528 22.8056 16.3763 22.8242C16.4998 22.8428 16.6254 22.8113 16.7269 22.7364L21.8101 18.9606Z" fill="url(#paint1_linear_34_1708)"/>
<path d="M13.0319 12.5248L13.0209 12.4254L12.9319 12.4353V12.5248H13.0319ZM21.933 14.2428L21.8573 14.3082L21.8573 14.3082L21.933 14.2428ZM22 14.3187L21.9269 14.387L22.1248 14.5987L22.0996 14.3101L22 14.3187ZM17.179 9.90875V10.0088L17.1795 10.0087L17.179 9.90875ZM13.0273 9.90875H12.9273V10.0088H13.0273V9.90875ZM12.9353 7.1929L13.0154 7.13306L13.0152 7.1328L12.9353 7.1929ZM12.6235 7.00522L12.6384 6.90634L12.6384 6.90634L12.6235 7.00522ZM12.2729 7.0931L12.2134 7.01266L12.2132 7.01286L12.2729 7.0931ZM7.19421 10.8711L7.25239 10.9524L7.2539 10.9513L7.19421 10.8711ZM7.05021 11.0404L7.13967 11.0851L7.13967 11.0851L7.05021 11.0404ZM7.00003 11.2597L6.90004 11.2609L7.00003 11.2597ZM7.05542 11.4777L7.14377 11.4308L7.14377 11.4308L7.05542 11.4777ZM7.20342 11.6433L7.26128 11.5617L7.25954 11.5605L7.20342 11.6433ZM12.282 15.2454L12.2242 15.327L12.2249 15.3275L12.282 15.2454ZM12.5581 15.3333L12.5575 15.4333H12.5581V15.3333ZM21.9136 18.8537L21.9957 18.9108L22.0136 18.885V18.8537H21.9136ZM21.8101 18.9606L21.7505 18.8802L21.7504 18.8803L21.8101 18.9606ZM21.9136 18.8513L21.8316 18.794L21.8136 18.8198V18.8513H21.9136ZM21.7986 18.1864L21.8567 18.105L21.8564 18.1049L21.7986 18.1864ZM16.72 14.5816L16.7779 14.5L16.7762 14.4988L16.72 14.5816ZM15.9725 17.303L15.9835 17.4024L16.0725 17.3925V17.303H15.9725ZM7.07257 15.5981L6.99738 15.664L6.99738 15.664L7.07257 15.5981ZM7 15.5172L7.07214 15.448L6.87574 15.2434L6.90038 15.5259L7 15.5172ZM11.8209 19.9223L11.8209 19.8223L11.8203 19.8223L11.8209 19.9223ZM15.9725 19.9223H16.0725V19.8223H15.9725V19.9223ZM15.9725 22.3517L16.0725 22.3522V22.3517H15.9725ZM16.0645 22.6366L15.9839 22.6958L15.9846 22.6968L16.0645 22.6366ZM16.3763 22.8242L16.3614 22.9231L16.3614 22.9231L16.3763 22.8242ZM16.7269 22.7364L16.7863 22.8168L16.7866 22.8167L16.7269 22.7364ZM17.1813 12.3464C14.8931 12.3464 13.4993 12.3724 13.0209 12.4254L13.0429 12.6242C13.5075 12.5727 14.8876 12.5464 17.1813 12.5464V12.3464ZM22.0086 14.1774C21.8264 13.9665 21.4286 13.5067 20.6694 13.1009C19.9104 12.6952 18.7957 12.3464 17.1813 12.3464V12.5464C18.7656 12.5464 19.8475 12.8884 20.5751 13.2773C21.3024 13.666 21.6811 14.1043 21.8573 14.3082L22.0086 14.1774ZM22.0731 14.2505C22.0567 14.233 22.036 14.209 22.0086 14.1774L21.8573 14.3082C21.8837 14.3387 21.9073 14.3661 21.9269 14.387L22.0731 14.2505ZM17.1795 10.0087C18.6436 10.0005 19.7568 10.3601 20.5354 11.0728C21.3142 11.7857 21.7729 12.8653 21.9004 14.3274L22.0996 14.3101C21.9694 12.8164 21.4978 11.6827 20.6705 10.9253C19.8431 10.1679 18.6746 9.80035 17.1784 9.80875L17.1795 10.0087ZM13.0273 10.0088H17.179V9.80875H13.0273V10.0088ZM12.9273 7.47803V9.90875H13.1273V7.47803H12.9273ZM12.8552 7.25273C12.9032 7.31707 12.9273 7.39541 12.9273 7.47803H13.1273C13.1273 7.3563 13.0916 7.23505 13.0154 7.13306L12.8552 7.25273ZM12.6086 7.10411C12.7056 7.11872 12.7942 7.17166 12.8554 7.25299L13.0152 7.1328C12.9233 7.0105 12.7884 6.92894 12.6384 6.90634L12.6086 7.10411ZM12.3323 7.17353C12.4127 7.11412 12.5117 7.0895 12.6086 7.10411L12.6384 6.90634C12.4884 6.88374 12.336 6.9221 12.2134 7.01266L12.3323 7.17353ZM7.2539 10.9513L12.3325 7.17333L12.2132 7.01286L7.13453 10.7908L7.2539 10.9513ZM7.13967 11.0851C7.16636 11.0317 7.20516 10.9862 7.25238 10.9524L7.13604 10.7897C7.06188 10.8428 7.00179 10.9136 6.96076 10.9957L7.13967 11.0851ZM7.10003 11.2585C7.09931 11.1981 7.11298 11.1385 7.13967 11.0851L6.96076 10.9957C6.91974 11.0778 6.89894 11.1688 6.90004 11.2609L7.10003 11.2585ZM7.14377 11.4308C7.11583 11.3781 7.10075 11.319 7.10003 11.2585L6.90004 11.2609C6.90114 11.3529 6.92409 11.4435 6.96707 11.5245L7.14377 11.4308ZM7.25954 11.5605C7.21156 11.528 7.17171 11.4835 7.14377 11.4308L6.96707 11.5245C7.01006 11.6056 7.07185 11.6749 7.14729 11.7261L7.25954 11.5605ZM12.3399 15.1639L7.26127 11.5617L7.14556 11.7249L12.2242 15.327L12.3399 15.1639ZM12.5586 15.2333C12.4807 15.2329 12.4043 15.2087 12.3392 15.1633L12.2249 15.3275C12.323 15.3957 12.4387 15.4327 12.5575 15.4333L12.5586 15.2333ZM12.9319 14.8581C12.9319 15.0644 12.7626 15.2333 12.5581 15.2333V15.4333C12.8734 15.4333 13.1319 15.1745 13.1319 14.8581H12.9319ZM12.9319 12.5248V14.8581H13.1319V12.5248H12.9319ZM21.8314 18.7966C21.809 18.829 21.7816 18.8572 21.7505 18.8802L21.8696 19.0409C21.9183 19.0048 21.9609 18.9608 21.9957 18.9108L21.8314 18.7966ZM21.8136 18.8513V18.8537H22.0136V18.8513H21.8136ZM21.7405 18.2678C21.9117 18.3901 21.9499 18.6249 21.8316 18.794L21.9955 18.9087C22.1762 18.6503 22.1178 18.2915 21.8567 18.105L21.7405 18.2678ZM16.6622 14.6631L21.7407 18.268L21.8564 18.1049L16.7779 14.5L16.6622 14.6631ZM16.4463 14.5961C16.522 14.5961 16.5992 14.6205 16.6639 14.6643L16.7762 14.4988C16.6799 14.4335 16.5638 14.3961 16.4463 14.3961V14.5961ZM16.0725 14.971C16.0725 14.7629 16.2415 14.5961 16.4463 14.5961V14.3961C16.1314 14.3961 15.8725 14.652 15.8725 14.971H16.0725ZM16.0725 17.303V14.971H15.8725V17.303H16.0725ZM11.8209 17.4814C14.1113 17.4814 15.5051 17.4554 15.9835 17.4024L15.9615 17.2036C15.4969 17.2551 14.1168 17.2814 11.8209 17.2814V17.4814ZM6.99738 15.664C7.18294 15.8756 7.5834 16.3321 8.34265 16.7342C9.10163 17.1363 10.2137 17.4814 11.8209 17.4814V17.2814C10.2436 17.2814 9.16404 16.943 8.43627 16.5575C7.70878 16.1721 7.32733 15.7369 7.14776 15.5322L6.99738 15.664ZM6.92786 15.5865C6.94512 15.6045 6.96738 15.6298 6.99738 15.664L7.14776 15.5322C7.11898 15.4993 7.09326 15.47 7.07214 15.448L6.92786 15.5865ZM11.8203 19.8223C10.3574 19.8317 9.24423 19.473 8.46533 18.7609C7.68637 18.0488 7.22705 16.9698 7.09962 15.5085L6.90038 15.5259C7.03056 17.0188 7.50276 18.1519 8.33038 18.9085C9.15807 19.6652 10.3266 20.0319 11.8216 20.0223L11.8203 19.8223ZM15.9725 19.8223H11.8209V20.0223H15.9725V19.8223ZM16.0725 22.3517V19.9223H15.8725V22.3517H16.0725ZM16.1451 22.5775C16.0978 22.513 16.0721 22.4338 16.0725 22.3522L15.8725 22.3512C15.8719 22.4752 15.9109 22.5963 15.9839 22.6958L16.1451 22.5775ZM16.3912 22.7253C16.2942 22.7107 16.2056 22.6578 16.1444 22.5765L15.9846 22.6968C16.0766 22.819 16.2114 22.9005 16.3614 22.9231L16.3912 22.7253ZM16.6675 22.6559C16.5871 22.7153 16.4881 22.7399 16.3912 22.7253L16.3614 22.9231C16.5114 22.9457 16.6637 22.9073 16.7863 22.8168L16.6675 22.6559ZM21.7504 18.8803L16.6673 22.6561L16.7866 22.8167L21.8697 19.0408L21.7504 18.8803Z" fill="white" mask="url(#path-2-inside-1_34_1708)"/>
<defs>
<linearGradient id="paint0_linear_34_1708" x1="14.2676" y1="27.6244" x2="14.8887" y2="-0.00250307" gradientUnits="userSpaceOnUse">
<stop stop-color="#586BF9"/>
<stop offset="0.448762" stop-color="#3870FF"/>
<stop offset="1" stop-color="#73B9FF"/>
</linearGradient>
<linearGradient id="paint1_linear_34_1708" x1="8.3125" y1="7" x2="12.7087" y2="17.231" gradientUnits="userSpaceOnUse">
<stop stop-color="white"/>
<stop offset="0.7" stop-color="white" stop-opacity="0.74"/>
<stop offset="1" stop-color="#FFFEFB" stop-opacity="0.86"/>
</linearGradient>
</defs>
</svg>
