<svg width="15" height="14" viewBox="0 0 15 14" fill="none" xmlns="http://www.w3.org/2000/svg">
<path opacity="0.8" d="M1.88024 0.197012L1.92618 0.238593L7.60268 5.83398L13.0703 0.444854C13.223 0.292965 13.4295 0.205533 13.6464 0.201045C13.8632 0.196557 14.0733 0.275366 14.2323 0.420807C14.3912 0.566248 14.4865 0.766919 14.4981 0.980387C14.5097 1.19386 14.4365 1.40339 14.2942 1.56467L14.2524 1.60996L8.78393 6.99826L14.252 12.3874C14.4063 12.5377 14.4951 12.7413 14.4998 12.9551C14.5045 13.1689 14.4246 13.3761 14.2771 13.5329C14.1295 13.6896 13.9259 13.7837 13.7092 13.7951C13.4926 13.8065 13.28 13.7344 13.1163 13.5941L13.0703 13.5521L7.60268 8.16296L1.92618 13.7588C1.77334 13.9094 1.56718 13.9959 1.35104 13.9999C1.1349 14.0038 0.925604 13.9251 0.767143 13.7802C0.608681 13.6352 0.513394 13.4354 0.501308 13.2226C0.489221 13.0099 0.561277 12.8008 0.702331 12.6394L0.744518 12.5941L6.42144 6.99826L0.744936 1.40329C0.593128 1.25245 0.506347 1.04962 0.502736 0.837192C0.499125 0.624762 0.578962 0.419178 0.725558 0.263417C0.872155 0.107656 1.07416 0.0137746 1.28935 0.00139915C1.50454 -0.0109763 1.71626 0.0591119 1.88024 0.197012Z" fill="black"/>
</svg>
