<svg width="20" height="22" viewBox="0 0 20 22" fill="none" xmlns="http://www.w3.org/2000/svg">
<g opacity="0.8">
<path d="M6 6H7.82699L10 9.66635L12.173 6H14L11.301 10.3511H13.5863V11.8717H10.8166L10.8028 11.8872V12.6698H13.5863V14.1904H10.8028V16H9.19723V14.1904H6.42753V12.6698H9.19723V11.8872L9.18339 11.8717H6.42753V10.3511H8.69896L6 6Z" fill="black"/>
<path fill-rule="evenodd" clip-rule="evenodd" d="M10.5639 0.133439C10.4479 0.074494 10.3209 0.0343328 10.1891 0.0144506C10.1252 0.00482234 10.0602 -6.047e-05 9.99485 5.65189e-07C9.79433 0.000168412 9.59761 0.0467077 9.42556 0.134659C8.11015 0.80832 6.72007 1.36939 5.27556 1.80969C3.81218 2.25229 2.32752 2.64174 0.825554 2.97699C0.33889 3.0885 0 3.46527 0 3.89612V11.8747C0 18.549 10.0006 22 10.0006 22C10.0006 22 20 18.3333 20 11.8747L19.9961 3.89232C19.9957 3.68343 19.9146 3.48045 19.7655 3.3149C19.6163 3.14932 19.4074 3.0304 19.1711 2.97652C17.5817 2.61778 16.0983 2.22821 14.7211 1.80922C13.4202 1.41257 12.1629 0.918412 10.9639 0.332535L10.5639 0.133439ZM9.81429 1.49905L9.79925 1.55864L9.78531 1.5518L9.81429 1.49905ZM9.99753 1.65765L10.2043 1.76041L10.2094 1.76292C11.4904 2.38887 12.8318 2.91589 14.2178 3.33849L14.2188 3.33879C15.5053 3.73019 16.8759 4.09503 18.3297 4.43277L18.3333 11.8754C18.3329 14.2805 16.44 16.393 14.0296 18.0553C12.8746 18.8519 11.7089 19.4686 10.8262 19.8873C10.4982 20.0428 10.2123 20.1696 9.98439 20.2669C9.75848 20.1749 9.47586 20.0548 9.15195 19.907C8.27235 19.5056 7.11105 18.91 5.96082 18.1293C3.57312 16.5085 1.66667 14.3954 1.66667 11.8747V4.43417C3.05163 4.11426 4.42213 3.74931 5.77519 3.34009L5.77875 3.339C7.24149 2.89313 8.65398 2.33044 9.99753 1.65765Z" fill="black"/>
</g>
</svg>
