<svg width="20" height="22" viewBox="0 0 20 22" fill="none" xmlns="http://www.w3.org/2000/svg">
<path opacity="0.8" d="M9.625 0C13.0804 0 15.8812 2.91 15.8812 6.5C15.8812 8.695 14.8345 10.635 13.2315 11.812C16.6628 13.3875 19.25 17.055 19.25 21C19.25 21.2652 19.1486 21.5196 18.9681 21.7071C18.7876 21.8946 18.5428 22 18.2875 22C18.0322 22 17.7874 21.8946 17.6069 21.7071C17.4264 21.5196 17.325 21.2652 17.325 21C17.325 16.858 13.6117 13 9.625 13C5.63832 13 1.925 16.858 1.925 21C1.925 21.2652 1.82359 21.5196 1.64309 21.7071C1.46259 21.8946 1.21777 22 0.9625 22C0.707229 22 0.462413 21.8946 0.28191 21.7071C0.101406 21.5196 0 21.2652 0 21C0 17.0545 2.58768 13.3875 6.01851 11.812C5.19914 11.2123 4.53066 10.4166 4.06948 9.49208C3.6083 8.56755 3.36796 7.54132 3.36875 6.5C3.36875 2.91 6.16962 0 9.625 0ZM9.625 2C8.47628 2 7.37461 2.47411 6.56234 3.31802C5.75008 4.16193 5.29375 5.30653 5.29375 6.5C5.29375 7.69348 5.75008 8.83807 6.56234 9.68198C7.37461 10.5259 8.47628 11 9.625 11C10.7737 11 11.8754 10.5259 12.6877 9.68198C13.4999 8.83807 13.9562 7.69348 13.9562 6.5C13.9562 5.30653 13.4999 4.16193 12.6877 3.31802C11.8754 2.47411 10.7737 2 9.625 2Z" fill="black"/>
</svg>
