<svg width="22" height="24" viewBox="0 0 22 24" fill="none" xmlns="http://www.w3.org/2000/svg">
<path d="M18.8184 9.5558L17.0002 9.63895V7.7221C17.0002 5.93929 16.3681 4.2295 15.2429 2.96886C14.1176 1.70822 12.5915 1 11.0002 1C9.40896 1 7.88285 1.70822 6.75764 2.96886C5.63243 4.2295 5.00029 5.93929 5.00029 7.7221V9.55525H3.18211C2.6039 9.55714 2.04985 9.81531 1.64099 10.2734C1.23212 10.7315 1.00168 11.3522 1 12V20.5558C1.00181 21.2035 1.23231 21.8241 1.64116 22.2821C2.05001 22.74 2.60398 22.9981 3.18211 23H18.8184C19.3964 22.998 19.9503 22.7398 20.359 22.2819C20.7678 21.8239 20.9982 21.2034 21 20.5558V12C20.9982 11.3524 20.7678 10.7319 20.359 10.2739C19.9503 9.816 19.3964 9.55783 18.8184 9.5558ZM6.09111 7.7221C6.10389 6.26785 6.62521 4.87721 7.5431 3.84885C8.46098 2.82049 9.70222 2.23643 11.0002 2.2221C11.6457 2.21904 12.2853 2.35922 12.8821 2.63454C13.479 2.90986 14.0212 3.31487 14.4776 3.8262C14.934 4.33753 15.2955 4.94506 15.5413 5.61373C15.787 6.2824 15.9121 6.99897 15.9094 7.7221V9.55525H6.09111V7.7221ZM19.9092 20.5553C19.9179 20.7183 19.8957 20.8816 19.844 21.0343C19.7922 21.187 19.7122 21.3256 19.6091 21.4411C19.506 21.5566 19.3822 21.6463 19.2459 21.7043C19.1096 21.7622 18.9639 21.7871 18.8184 21.7773H3.18211C3.03659 21.7871 2.89087 21.7622 2.75457 21.7043C2.61827 21.6463 2.49449 21.5566 2.3914 21.4411C2.28831 21.3256 2.20826 21.187 2.15653 21.0343C2.1048 20.8816 2.08257 20.7183 2.0913 20.5553V12C2.08257 11.837 2.1048 11.6737 2.15653 11.521C2.20826 11.3683 2.28831 11.2296 2.3914 11.1141C2.49449 10.9986 2.61827 10.9089 2.75457 10.851C2.89087 10.793 3.03659 10.7681 3.18211 10.7779H18.8184C18.9639 10.7681 19.1096 10.793 19.2459 10.851C19.3822 10.9089 19.506 10.9986 19.6091 11.1141C19.7122 11.2296 19.7922 11.3683 19.844 11.521C19.8957 11.6737 19.9179 11.837 19.9092 12V20.5558V20.5553ZM11.0002 12C10.3306 11.9984 9.68435 12.2757 9.18692 12.7779C8.6895 13.2802 8.37641 13.9716 8.30844 14.7179C8.24047 15.4643 8.42247 16.2123 8.81911 16.8168C9.21575 17.4212 9.79872 17.839 10.4548 17.989V19.9447C10.4548 20.1068 10.5123 20.2622 10.6146 20.3768C10.7169 20.4914 10.8556 20.5558 11.0002 20.5558C11.1449 20.5558 11.2836 20.4914 11.3859 20.3768C11.4882 20.2622 11.5457 20.1068 11.5457 19.9447V17.989C12.2018 17.839 12.7847 17.4212 13.1814 16.8168C13.578 16.2123 13.76 15.4643 13.6921 14.7179C13.6241 13.9716 13.311 13.2802 12.8136 12.7779C12.3161 12.2757 11.6699 11.9984 11.0002 12ZM11.0002 16.8889C10.6766 16.8889 10.3603 16.7814 10.0912 16.58C9.82214 16.3786 9.61242 16.0923 9.48858 15.7573C9.36474 15.4224 9.33233 15.0538 9.39547 14.6982C9.4586 14.3426 9.61444 14.0159 9.84327 13.7596C10.0721 13.5032 10.3636 13.3286 10.681 13.2579C10.9984 13.1871 11.3274 13.2234 11.6264 13.3622C11.9254 13.5009 12.1809 13.7359 12.3607 14.0374C12.5405 14.3388 12.6365 14.6932 12.6365 15.0558C12.6259 15.5382 12.4501 15.9977 12.1455 16.3389C11.8409 16.6802 11.4309 16.8771 11.0002 16.8889Z" fill="black" stroke="black" stroke-width="0.3"/>
</svg>
