<svg width="120" height="142" viewBox="0 0 120 142" fill="none" xmlns="http://www.w3.org/2000/svg">
<path fill-rule="evenodd" clip-rule="evenodd" d="M60.5 23.7273C49.5798 23.7273 40.7273 32.5798 40.7273 43.5C40.7273 54.4202 49.5798 63.2727 60.5 63.2727C71.4202 63.2727 80.2727 54.4202 80.2727 43.5H104C104 67.5244 84.5244 87 60.5 87C36.4756 87 17 67.5244 17 43.5C17 19.4756 36.4756 0 60.5 0V23.7273Z" fill="#586BF9"/>
<rect x="60.5" y="22.8947" width="20.6053" height="20.6053" fill="url(#paint0_linear_165_111)"/>
<path d="M2.472 117.472H21.528V119.248H2.472V117.472ZM3.504 125.896H20.688V127.648H3.504V125.896ZM1.248 135.088H22.776V136.84H1.248V135.088ZM11.016 117.928H12.912V136.216H11.016V117.928ZM35.016 129.904H36.792V136.288H35.016V129.904ZM29.136 120.592H42.912V121.888H29.136V120.592ZM30.96 124.6V126.64H41.112V124.6H30.96ZM29.28 123.304H42.864V127.936H29.28V123.304ZM27.72 129.28H44.4V137.824H42.648V130.672H29.424V137.944H27.72V129.28ZM28.632 132.544H43.464V133.792H28.632V132.544ZM28.656 135.784H43.416V137.152H28.656V135.784ZM35.016 115.84H36.864V118.528H35.016V115.84ZM25.92 117.424H46.152V121.984H44.352V118.984H27.648V121.984H25.92V117.424ZM53.928 118.768V120.664H66V118.768H53.928ZM52.224 117.496H67.776V121.96H52.224V117.496ZM59.088 115.84H60.936V123.88H59.088V115.84ZM49.32 123.496H70.728V125.008H49.32V123.496ZM58.968 128.8H60.84V130.504C60.84 132.808 59.904 135.904 50.904 137.968C50.688 137.608 50.16 136.912 49.752 136.552C58.416 134.824 58.968 132.232 58.968 130.456V128.8ZM60.624 134.464L61.488 133.144C64.296 133.936 68.04 135.352 70.008 136.384L69.072 137.896C67.2 136.816 63.48 135.352 60.624 134.464ZM52.584 126.4H67.44V133.648H65.52V127.864H54.408V133.744H52.584V126.4ZM76.344 115.912L77.976 116.392C77.04 119.032 75.48 121.672 73.752 123.4C73.608 123.04 73.128 122.128 72.816 121.72C74.28 120.304 75.6 118.168 76.344 115.912ZM75.864 118.552H81.6V120.28H75.504L75.864 118.552ZM76.656 137.752L76.392 136.096L76.992 135.376L81.792 132.616C81.864 133.096 82.056 133.792 82.224 134.152C77.712 136.864 77.064 137.296 76.656 137.752ZM74.64 122.872H81.264V124.504H74.64V122.872ZM73.488 127.768H81.912V129.4H73.488V127.768ZM82.656 121.624L93.696 119.968L93.984 121.552L82.968 123.232L82.656 121.624ZM82.176 126.784L94.344 124.504L94.656 126.088L82.464 128.392L82.176 126.784ZM86.136 115.816H87.864C87.792 127.144 89.64 136.12 92.712 136.144C93.36 136.144 93.6 135.568 93.696 133.456C94.056 133.816 94.632 134.2 95.04 134.368C94.704 137.032 94.152 137.824 92.544 137.824C87.816 137.824 86.232 127.552 86.136 115.816ZM88.8 117.28L89.832 116.296C91.032 116.824 92.544 117.688 93.312 118.336L92.256 119.464C91.488 118.792 90 117.856 88.8 117.28ZM93.288 127.648L94.776 128.32C92.304 132.424 87.936 135.664 82.992 137.512C82.728 137.08 82.296 136.456 81.888 136.072C86.688 134.44 90.984 131.416 93.288 127.648ZM76.656 137.752C76.488 137.368 76.032 136.744 75.768 136.456C76.176 136.168 76.992 135.424 76.992 134.32V123.376H78.624V135.616C78.624 135.616 76.656 137.08 76.656 137.752ZM102.768 115.72L104.64 116.248C103.128 119.992 100.776 123.544 98.328 125.848C97.968 125.512 97.2 124.864 96.72 124.576C99.216 122.488 101.424 119.152 102.768 115.72ZM102.48 118.6H116.016V120.304H101.616L102.48 118.6ZM115.44 118.6H117.24C117.24 118.6 117.24 119.2 117.24 119.464C117 127.552 116.76 130.408 116.064 131.296C115.632 131.848 115.152 132.04 114.432 132.112C113.76 132.184 112.56 132.16 111.264 132.112C111.24 131.584 111.048 130.864 110.76 130.384C111.984 130.504 113.136 130.528 113.592 130.528C113.976 130.528 114.24 130.456 114.432 130.192C114.984 129.568 115.224 126.808 115.44 118.96V118.6ZM101.208 128.584H108.672V124.48H100.704V122.872H110.472V130.192H101.208V128.584ZM100.344 128.584H102.144V134.752C102.144 135.736 102.624 135.952 105.216 135.952C106.44 135.952 112.656 135.952 114.264 135.952C116.448 135.952 116.808 135.472 117.024 132.712C117.48 132.976 118.248 133.264 118.752 133.36C118.392 136.816 117.696 137.656 114.288 137.656C113.4 137.656 106.152 137.656 105.312 137.656C101.472 137.656 100.344 137.128 100.344 134.752V128.584Z" fill="#586BF9"/>
<defs>
<linearGradient id="paint0_linear_165_111" x1="66.4184" y1="22.8947" x2="74.5172" y2="43.4532" gradientUnits="userSpaceOnUse">
<stop stop-color="#FED349"/>
<stop offset="1" stop-color="#ED9220"/>
</linearGradient>
</defs>
</svg>
