<svg width="22" height="22" viewBox="0 0 22 22" fill="none" xmlns="http://www.w3.org/2000/svg">
<path d="M21 1.0122C20.9541 1.84042 20.9353 2.64688 20.8594 3.44804C20.707 5.28286 20.2195 7.07419 19.4213 8.73326C18.6307 10.3623 17.4754 11.7871 16.045 12.8973C15.941 12.9813 15.8711 13.1003 15.8486 13.232C15.6783 14.432 15.1308 15.5467 14.2851 16.4149C12.9673 17.8447 11.4079 19.0311 9.67834 19.9196C9.64687 19.9491 9.60966 19.9718 9.56903 19.9863C9.52839 20.0008 9.48521 20.0068 9.44216 20.0039C9.39911 20.0009 9.35713 19.9892 9.31883 19.9693C9.28053 19.9494 9.24673 19.9219 9.21955 19.8884C9.19447 19.8537 9.1766 19.8143 9.16697 19.7725C9.15735 19.7308 9.15618 19.6875 9.16352 19.6453C9.17087 19.6031 9.18658 19.5628 9.20974 19.5268C9.2329 19.4907 9.26303 19.4597 9.29837 19.4355C10.3523 18.2429 11.0058 16.75 11.1671 15.1667C11.1824 15.0867 11.1723 15.004 11.1381 14.9301C11.1039 14.8563 11.0474 14.795 10.9765 14.7549C10.4412 14.4337 9.92865 14.076 9.44247 13.6844C8.5323 12.9461 7.77589 12.0364 7.21614 11.0068C7.17475 10.9526 7.1213 10.9088 7.06004 10.8789C6.99878 10.849 6.93139 10.8337 6.86322 10.8344C5.89964 10.8928 4.96203 11.17 4.12163 11.645C3.56637 11.9626 3.05463 12.3573 2.53349 12.7291C2.39232 12.8297 2.24351 12.9085 2.12645 12.7673C2.08687 12.7128 2.0606 12.6498 2.04978 12.5833C2.03895 12.5168 2.04386 12.4486 2.0641 12.3844C3.02703 10.42 4.39831 8.68384 6.08621 7.2921C6.84897 6.65414 7.78055 6.25137 8.76781 6.13271C8.89167 6.11254 9.00384 6.04766 9.08309 5.95036C10.8946 3.64528 13.4641 2.05644 16.3356 1.46572C17.7949 1.14168 19.2864 0.985766 20.7812 1.00102C20.8318 1.00102 20.8824 1.00573 21 1.0122ZM20.3677 2.27394V2.10689C20.3747 1.61748 20.3512 1.56572 19.8648 1.61278C18.8648 1.71042 17.8614 1.78924 16.8785 1.97689C14.5863 2.36706 12.4572 3.41574 10.7506 4.99508C9.26647 6.35671 8.22307 8.13082 7.75434 10.0897C7.70929 10.2551 7.70047 10.4283 7.72849 10.5974C7.75651 10.7666 7.8207 10.9277 7.91669 11.0697C8.68673 12.2427 9.68247 13.2506 10.8459 14.0349C11.0095 14.1524 11.1979 14.2307 11.3965 14.2639C11.5952 14.2972 11.7988 14.2844 11.9917 14.2267C14.4481 13.6 16.5872 12.0898 18.0002 9.985C19.623 7.65327 20.2177 4.99625 20.3677 2.27394ZM15.0768 13.9973C15.0768 13.7438 14.9086 13.6632 14.6792 13.7891C13.8528 14.2629 12.9609 14.6118 12.0323 14.8243C11.951 14.8352 11.8768 14.8765 11.8247 14.9399C11.7726 15.0034 11.7466 15.0842 11.7517 15.1661C11.6793 16.0993 11.4379 17.0115 11.0394 17.8584C11.0179 17.9817 11.0221 18.108 11.0518 18.2296C11.1702 18.2315 11.2876 18.2084 11.3965 18.1619C12.0053 17.6914 12.6258 17.2284 13.1946 16.7102C13.962 16.0445 14.5714 15.2162 14.9786 14.2855C15.021 14.1832 15.051 14.0755 15.0774 13.9973H15.0768ZM3.96458 11.025C4.06986 10.9838 4.15868 10.9526 4.24338 10.9144C4.94288 10.5863 5.68994 10.3711 6.45678 10.2768C7.08968 10.2085 7.0538 10.2026 7.26614 9.60442C7.5373 8.83973 7.87963 8.10091 8.17844 7.34563C8.20573 7.22112 8.21367 7.09315 8.20196 6.96623C8.08272 6.94597 7.96101 6.94477 7.8414 6.9627C7.63775 7.03134 7.44086 7.11856 7.2532 7.22328C6.30519 7.7665 5.46919 8.48515 4.78982 9.3409C4.44808 9.74618 4.13633 10.1785 3.82576 10.6091C3.77644 10.7026 3.76186 10.8106 3.78459 10.9138C3.83214 10.9668 3.8931 11.006 3.96105 11.0273L3.96458 11.025ZM7.73905 16.2431C7.71958 16.6105 7.62244 16.9695 7.45402 17.2965C7.28561 17.6235 7.04977 17.911 6.76205 18.1402C5.82863 18.9665 4.76231 19.6291 3.60813 20.1001C2.89699 20.4207 2.16822 20.7019 1.44002 20.9825C1.37821 21.0003 1.31331 21.0046 1.24969 20.9951C1.18607 20.9857 1.12522 20.9627 1.07122 20.9278C1.03707 20.8825 1.01433 20.8297 1.00491 20.7738C0.995486 20.7179 0.999672 20.6606 1.01711 20.6066C1.57313 18.8993 2.37206 17.281 3.38932 15.8014C3.73321 15.3055 4.17327 14.8838 4.68336 14.5614C4.95651 14.3698 5.27939 14.2615 5.61286 14.2497C5.94632 14.2379 6.27605 14.3231 6.56206 14.4949C6.89388 14.6587 7.17727 14.9061 7.38429 15.2127C7.59131 15.5194 7.7148 15.8748 7.74258 16.2437L7.73905 16.2431ZM5.64388 14.8479C5.61271 14.8532 5.52624 14.8614 5.44449 14.8814C4.8654 15.0627 4.36553 15.4362 4.02751 15.9402C3.1817 17.0656 2.50516 18.3088 2.0194 19.6302C1.99688 19.68 1.98451 19.7337 1.98299 19.7884C1.98148 19.843 1.99086 19.8974 2.01058 19.9484C2.06631 19.9789 2.12754 19.9982 2.19074 20.0049C2.25394 20.0117 2.31786 20.0059 2.37879 19.9878C3.50222 19.5634 4.57422 19.0136 5.57448 18.349C6.14053 18.003 6.61678 17.5282 6.96439 16.9631C7.06846 16.7387 7.11489 16.4918 7.09947 16.2449C7.08405 15.998 7.00727 15.7588 6.87608 15.5491C6.7449 15.3393 6.56345 15.1656 6.34819 15.0437C6.13293 14.9217 5.89064 14.8555 5.6433 14.8508L5.64388 14.8479ZM14.5375 5.10213C14.9997 5.09865 15.4526 5.23235 15.8389 5.48632C16.2251 5.74029 16.5274 6.10312 16.7074 6.5289C16.8875 6.95469 16.9372 7.42431 16.8503 7.87836C16.7634 8.33241 16.5438 8.75049 16.2193 9.07972C15.8948 9.40894 15.4799 9.63452 15.0272 9.72792C14.5745 9.82132 14.1042 9.77835 13.6759 9.60443C13.2476 9.43051 12.8805 9.13347 12.621 8.75087C12.3615 8.36828 12.2213 7.91732 12.2182 7.45504C12.2138 6.83548 12.4557 6.23954 12.8906 5.7983C13.3255 5.35706 13.9179 5.10664 14.5375 5.10213ZM16.2944 7.44034C16.2939 7.09502 16.1912 6.75759 15.9992 6.47059C15.8072 6.18358 15.5345 5.95988 15.2155 5.82768C14.8965 5.69548 14.5455 5.66072 14.2068 5.72778C13.8681 5.79483 13.5568 5.9607 13.3122 6.20447C13.0677 6.44823 12.9008 6.75896 12.8326 7.09747C12.7644 7.43599 12.798 7.78711 12.9291 8.10656C13.0602 8.426 13.283 8.69946 13.5693 8.89244C13.8557 9.08542 14.1928 9.18927 14.538 9.1909C15.0025 9.18982 15.4477 9.00523 15.7767 8.67733C16.1057 8.34944 16.2918 7.90482 16.2944 7.44034Z" fill="#B7BACE" stroke="#B7BACE" stroke-width="0.75"/>
</svg>
