<svg width="22" height="22" viewBox="0 0 22 22" fill="none" xmlns="http://www.w3.org/2000/svg">
<path fill-rule="evenodd" clip-rule="evenodd" d="M11 20C15.9706 20 20 15.9705 20 11C20 6.02946 15.9706 2 11 2C6.02944 2 2 6.02946 2 11C2 15.9705 6.02944 20 11 20ZM21 11C21 16.5228 16.5228 21 11 21C5.47715 21 1 16.5228 1 11C1 5.47717 5.47715 1 11 1C16.5228 1 21 5.47717 21 11Z" fill="#B7BACE" stroke="#B7BACE" stroke-width="0.5"/>
<path d="M9.92941 12.5325C9.64118 10.4935 12.5647 10.039 12.5647 8.77922C12.5647 7.98701 11.9059 7.54545 10.8216 7.54545C9.98431 7.54545 9.29804 7.90909 8.62549 8.57143L7.5 7.5974C8.37843 6.63636 9.58628 6 11.0549 6C13.0451 6 14.5 6.88312 14.5 8.61039C14.5 10.5065 11.4941 10.7403 11.7137 12.5325H9.92941ZM10.8353 16C10.1216 16 9.61373 15.5195 9.61373 14.8442C9.61373 14.1688 10.1353 13.7013 10.8353 13.7013C11.5216 13.7013 12.0431 14.1688 12.0431 14.8442C12.0431 15.5195 11.5216 16 10.8353 16Z" fill="#B7BACE"/>
</svg>
