<svg width="22" height="22" viewBox="0 0 22 22" fill="none" xmlns="http://www.w3.org/2000/svg">
<path fill-rule="evenodd" clip-rule="evenodd" d="M11 20C15.9706 20 20 15.9705 20 11C20 6.02946 15.9706 2 11 2C6.02944 2 2 6.02946 2 11C2 15.9705 6.02944 20 11 20ZM21 11C21 16.5228 16.5228 21 11 21C5.47715 21 1 16.5228 1 11C1 5.47717 5.47715 1 11 1C16.5228 1 21 5.47717 21 11Z" fill="#B7BACE" stroke="#B7BACE" stroke-width="0.5"/>
<path d="M7.48713 13.4128C7.48712 13.4129 7.48708 13.413 7.48704 13.4132C7.48689 13.4138 7.4866 13.415 7.4864 13.4159C7.48552 13.4198 7.4837 13.4284 7.48261 13.4399L7.72397 13.4628L7.7245 13.4618M7.48713 13.4128L7.67972 13.7078M7.48713 13.4128C7.5657 13.4328 7.64493 13.4492 7.7245 13.4618M7.48713 13.4128L8.25571 13.7418C8.35786 14.5844 8.96296 15.4006 9.726 15.4006C10.0895 15.4006 10.0895 15.9911 9.726 15.9911C8.846 15.9911 7.726 14.8045 7.726 13.4935C7.726 13.4876 7.72739 13.4822 7.7288 13.4768C7.72992 13.4725 7.73106 13.4682 7.7315 13.4635M7.7245 13.4618L7.72434 13.4628L7.7315 13.4635M7.7245 13.4618C7.7255 13.4624 7.72675 13.4625 7.728 13.4626C7.72925 13.4628 7.7305 13.4629 7.7315 13.4635M7.7315 13.4635L7.72134 13.4818L7.71949 13.4935L7.68539 13.7087C7.6835 13.7084 7.68161 13.7081 7.67972 13.7078M7.67972 13.7078C7.6869 13.7093 7.69266 13.7101 7.69582 13.7105M7.67972 13.7078L7.67602 13.7073C7.68381 13.7089 7.69018 13.7098 7.69395 13.7103L7.69582 13.7105M7.69582 13.7105L7.69855 13.7109L7.69967 13.711M7.69582 13.7105C7.69738 13.7108 7.6988 13.7109 7.69967 13.711M7.69967 13.711L7.70039 13.7111L7.69967 13.711ZM9.41979 8.25687C9.42037 8.25702 9.42064 8.2571 9.42043 8.25704L9.4201 8.25695L9.41979 8.25687ZM9.41979 8.25687C9.41924 8.25672 9.41842 8.25649 9.4175 8.25625L9.41927 8.25672L9.41979 8.25687ZM8.7505 12.69L7.87012 12.6896H7.87C7.05626 12.6896 6.245 11.9165 6.245 10.9997C6.245 10.0807 7.05833 9.29615 7.86968 9.29594C7.86979 9.29594 7.86989 9.29594 7.87 9.29594L8.7505 9.29854V12.69ZM14.3661 5.79145L14.3649 5.79095C14.1315 5.69513 13.8745 5.77251 13.7219 5.96436L13.7218 5.9644C12.697 7.25326 11.3976 8.07107 9.46802 8.24338L9.45591 8.24374L9.41509 8.24466C9.40028 8.24501 9.3832 8.24548 9.36809 8.24621C9.36136 8.24654 9.35345 8.24698 9.34543 8.24764H7.659C7.65346 8.24764 7.64782 8.24751 7.63909 8.24732C7.63528 8.24723 7.63089 8.24713 7.62566 8.24702C7.61085 8.24672 7.59134 8.24642 7.57074 8.24696C7.54641 8.2476 7.49386 8.24931 7.43765 8.26681C6.17308 8.47899 5.25 9.58146 5.25 10.9997C5.25 12.3806 6.31643 13.3957 7.48197 13.6688C7.52671 14.3276 7.81842 14.9387 8.20522 15.3955C8.61975 15.885 9.18315 16.2411 9.726 16.2411C9.89199 16.2411 10.031 16.1705 10.1237 16.0574C10.2116 15.9504 10.2486 15.8178 10.2486 15.6959C10.2486 15.5739 10.2116 15.4413 10.1237 15.3343C10.031 15.2212 9.89199 15.1506 9.726 15.1506C9.41103 15.1506 9.10653 14.965 8.87018 14.6446C8.68232 14.39 8.55261 14.0681 8.50779 13.7418H9.31425C9.3303 13.7467 9.35171 13.7519 9.37638 13.7544L9.37637 13.7544L9.37935 13.7547C11.3145 13.9269 12.6991 14.75 13.7216 16.0354C13.8287 16.1706 13.9883 16.25 14.1575 16.25C14.2274 16.25 14.2973 16.2365 14.3639 16.2095L14.3649 16.2091C14.3772 16.204 14.3898 16.1992 14.4046 16.1935L14.4093 16.1917C14.4223 16.1868 14.4375 16.1811 14.4522 16.1751C14.4844 16.1622 14.53 16.1426 14.5742 16.1125C14.6213 16.0803 14.6704 16.0341 14.7057 15.9671C14.7407 15.9008 14.7535 15.8303 14.7535 15.7622V12.5442C15.3458 12.3141 15.75 11.6981 15.75 10.9997C15.75 10.3015 15.346 9.68539 14.7535 9.4561V6.47609C14.7535 6.3533 14.7116 6.21484 14.6583 6.10471C14.6304 6.04701 14.5949 5.98757 14.5515 5.93503C14.5101 5.88498 14.4491 5.826 14.3661 5.79145ZM9.27771 13.7287L9.27776 13.7287L9.27771 13.7287ZM9.41306 13.7343C9.41156 13.7347 9.40826 13.7355 9.40353 13.7365L9.41221 13.7346L9.41306 13.7343ZM9.7485 12.6851V9.31419C11.2393 9.0992 12.5758 8.50235 13.742 7.42996V14.4979C12.6812 13.4625 11.2117 12.8935 9.7485 12.6851Z" fill="#B7BACE" stroke="#B7BACE" stroke-width="0.5"/>
</svg>
