<svg width="118" height="84" viewBox="0 0 118 84" fill="none" xmlns="http://www.w3.org/2000/svg">
<path d="M12.9319 57.45H14.7469C15.2007 57.45 15.6545 57.9 15.6545 58.35C15.6545 58.8 15.3519 59.25 14.7469 59.25H12.9319V61.05C12.9319 61.5 12.4782 61.95 12.0244 61.95C11.7219 61.95 11.5707 61.8 11.4194 61.8C11.2682 61.65 11.1169 61.35 11.1169 61.2V59.4H9.45317C8.99942 59.4 8.54567 58.95 8.54567 58.5C8.54567 58.05 8.84817 57.6 9.45317 57.6H11.2682V55.8C11.2682 55.35 11.7219 54.9 12.1757 54.9C12.6294 54.9 13.0832 55.2 13.0832 55.8V57.45H12.9319ZM112.777 77V75.2C112.777 75.05 112.626 74.75 112.475 74.6C112.324 74.45 112.172 74.45 111.87 74.45C111.416 74.45 110.962 74.9 110.962 75.35V77.15H109.147C108.845 77.15 108.694 77.3 108.542 77.45C108.391 77.6 108.24 77.9 108.24 78.05C108.24 78.5 108.694 78.95 109.147 78.95H110.962V80.45C110.962 80.9 111.416 81.35 111.87 81.35C112.324 81.35 112.777 80.9 112.777 80.45V78.65H114.592C115.046 78.65 115.5 78.2 115.5 77.75C115.5 77.3 115.046 76.85 114.592 76.85H112.777V77ZM64.3572 78.75H20.797C20.3432 78.75 19.8895 78.6 19.587 78.3C19.2845 78 19.1332 77.55 19.1332 77.1C19.1332 76.2 19.8895 75.45 20.797 75.45H28.662C28.057 74.4 27.7545 73.2 27.7545 72V22.35C27.7545 20.55 28.5108 18.75 29.872 17.55C31.2333 16.35 32.897 15.6 34.712 15.6H39.8546V13.8C39.8546 12 40.6108 10.2 41.9721 9C43.3333 7.8 44.9971 7.05 46.8121 7.05H88.406C90.2211 7.05 92.0361 7.8 93.2461 9C94.6073 10.35 95.3636 12 95.3636 13.8V63.45C95.3636 64.65 95.0611 65.85 94.4561 66.9H103.985C104.892 66.9 105.649 67.65 105.649 68.55C105.649 69.45 104.892 70.2 103.985 70.2H83.1123V72C83.1123 73.2 82.8098 74.4 82.2048 75.45H83.1123C84.0198 75.45 84.776 76.2 84.776 77.1C84.776 78 84.0198 78.75 83.1123 78.75H74.0372C74.7935 80.1 74.6422 81.75 73.5835 82.95C72.9785 83.55 72.071 84 71.1635 84C70.256 84 69.3485 83.7 68.7435 82.95L64.3572 78.75ZM70.7097 75.45H76.306C78.2723 75.45 79.7848 73.95 79.7848 72V22.2C79.7848 20.4 78.2723 18.9 76.4572 18.9H34.4095C32.5945 18.9 31.082 20.4 31.082 22.2V72C31.082 73.95 32.5945 75.45 34.5608 75.45H60.8784L59.9709 74.55C59.0634 73.65 58.7609 72.45 59.0634 71.25L57.3996 69.6C52.2571 73.35 45.1483 72.6 41.0646 67.8C36.9808 63 37.1321 55.95 41.6696 51.45C46.2071 46.95 53.4671 46.8 58.1559 50.85C62.8447 54.9 63.7522 62.1 59.9709 67.05L61.6347 68.7C62.8447 68.4 64.0547 68.7 64.9622 69.6L70.7097 75.45ZM83.1123 66.9H88.2548C90.2211 66.9 91.7336 65.4 91.7336 63.45V13.8C91.7336 11.85 90.2211 10.35 88.2548 10.35H46.6608C44.6946 10.35 43.1821 11.85 43.1821 13.8V15.45H76.1547C77.9697 15.45 79.7848 16.2 80.9948 17.4C82.356 18.75 83.1123 20.4 83.1123 22.2V66.9ZM22.007 3.9H24.5782C25.3345 3.9 25.9395 4.5 25.9395 5.25C25.9395 6 25.3345 6.6 24.5782 6.6H22.007V9C22.007 9.75 21.402 10.35 20.6457 10.35C20.3432 10.35 19.8895 10.2 19.7382 9.9C19.587 9.75 19.4357 9.45 19.4357 9V6.45H16.8645C16.562 6.45 16.1082 6.3 15.957 6C15.6544 5.7 15.5032 5.4 15.5032 5.1C15.5032 4.35 16.1082 3.75 16.8645 3.75H19.4357V1.35C19.4357 0.6 20.0407 0 20.797 0C21.5532 0 22.1582 0.6 22.1582 1.35V3.9H22.007ZM1.73938 77.1C1.73938 76.2 2.49564 75.45 3.40314 75.45H13.8394C14.7469 75.45 15.5032 76.2 15.5032 77.1C15.5032 78 14.7469 78.75 13.8394 78.75H3.40314C2.94939 78.75 2.49564 78.6 2.19314 78.3C1.89063 78 1.73938 77.55 1.73938 77.1ZM56.3409 66C59.6684 62.7 59.6684 57.3 56.3409 53.85C53.0134 50.55 47.4171 50.55 44.0896 53.85C40.7621 57.15 40.7621 62.55 44.0896 66C47.4171 69.45 52.8621 69.45 56.3409 66ZM38.0396 25.8C38.0396 24.9 38.7958 24.15 39.7033 24.15H58.9122C59.8197 24.15 60.5759 24.9 60.5759 25.8C60.5759 26.7 59.8197 27.45 58.9122 27.45H39.7033C39.2496 27.45 38.7958 27.3 38.4933 27C38.1908 26.7 38.0396 26.25 38.0396 25.8ZM38.0396 34.35C38.0396 33.45 38.7958 32.7 39.7033 32.7H67.3822C68.2897 32.7 69.046 33.45 69.046 34.35C69.046 35.25 68.441 36 67.5334 36H39.7033C39.2496 36 38.7958 35.85 38.4933 35.55C38.1908 35.25 38.0396 34.8 38.0396 34.35ZM38.0396 42.9C38.0396 42 38.7958 41.25 39.7033 41.25H51.8034C52.7109 41.25 53.4671 42 53.4671 42.9C53.4671 43.8 52.7109 44.55 51.8034 44.55H39.7033C39.2496 44.55 38.7958 44.4 38.4933 44.1C38.1908 43.8 38.0396 43.35 38.0396 42.9ZM5.21815 32.55C3.40314 32.55 1.58813 31.5 0.680628 30C-0.226876 28.35 -0.226876 26.4 0.680628 24.9C1.58813 23.4 3.25189 22.35 5.21815 22.35C8.09191 22.35 10.3607 24.6 10.3607 27.45C10.3607 30.3 7.94066 32.55 5.21815 32.55ZM5.21815 30C6.12565 30 7.03316 29.55 7.48691 28.65C7.94066 27.9 7.94066 26.85 7.48691 26.1C7.03316 25.35 6.12565 24.75 5.21815 24.75C3.85689 24.75 2.64689 25.95 2.64689 27.3C2.49564 28.95 3.70564 30 5.21815 30ZM112.606 22.35C110.791 22.35 108.976 21.45 108.069 19.8C107.161 18.15 107.161 16.2 108.069 14.7C108.976 13.2 110.64 12.15 112.606 12.15C115.48 12.15 117.749 14.4 117.749 17.25C117.749 20.1 115.48 22.35 112.606 22.35ZM112.606 19.8C113.514 19.8 114.421 19.35 114.875 18.45C115.329 17.7 115.329 16.65 114.875 15.9C114.421 15.15 113.514 14.55 112.606 14.55C111.245 14.55 110.035 15.75 110.035 17.1C109.884 18.6 111.094 19.8 112.606 19.8Z" fill="#E2E2E2"/>
</svg>
