<svg width="54" height="48" viewBox="0 0 54 48" fill="none" xmlns="http://www.w3.org/2000/svg">
<path d="M4.93626 24.5793C4.75125 16.9927 8.38543 9.49198 15.1557 5.14454C21.9275 0.797021 30.1598 0.673815 36.847 4.08007L38.4622 3.04291C36.4832 1.92006 34.3542 1.09838 32.1119 0.587934C29.116 -0.0958858 26.0645 -0.181565 23.0479 0.322355C19.9245 0.847191 16.9719 1.99128 14.2746 3.72673C11.579 5.4621 9.29339 7.6788 7.48985 10.3201C5.74381 12.8672 4.51656 15.7047 3.84143 18.7412C3.33866 21.0144 3.15988 23.3186 3.31641 25.6149L4.93626 24.5793Z" fill="#FF0000"/>
<path fill-rule="evenodd" clip-rule="evenodd" d="M39.6475 9.19615C39.4635 9.14063 38.9397 9.36702 38.0761 9.87534C37.8103 10.0018 37.8128 10.2382 38.0834 10.5845L40.2912 14.0411L39.4472 14.5802C38.8216 14.7634 38.3759 14.9183 38.1101 15.0448L37.7409 15.2807C37.7253 15.3338 37.7744 15.4107 37.8881 15.5111L41.8326 21.687C41.9781 22.0699 42.2169 22.1337 42.5489 21.8784C43.1623 21.4434 43.359 21.0149 43.139 20.5931L41.52 18.0582L44.9487 15.8683L45.8612 17.2971C46.0967 17.6658 46.0738 17.94 45.7925 18.1196C45.5659 18.3076 45.2768 18.5139 44.9252 18.7385L44.5559 18.9743C44.5756 19.005 44.7105 18.9837 44.9607 18.9104C45.4416 18.7331 45.8701 18.7838 46.2463 19.0627C46.4736 19.2636 46.7279 19.2742 47.0092 19.0945C48.0601 18.3368 48.3345 17.6424 47.8325 17.0114L44.8299 12.3103C44.8103 12.2796 44.8238 12.1844 44.8704 12.0249C44.9718 11.8736 45.0205 11.756 45.0164 11.6721C44.6795 11.4546 43.9558 11.4843 42.8452 11.761C42.7397 11.8284 42.6853 12.0145 42.682 12.3194L42.6121 12.5588L41.7681 13.0978L39.7664 9.96376C39.7076 9.87158 39.674 9.74158 39.6659 9.57376C39.6929 9.38347 39.6867 9.25761 39.6475 9.19615ZM40.372 16.2607L39.7244 15.2467C39.5126 14.9926 39.5649 14.7645 39.8814 14.5624L42.8881 12.6421L43.8006 14.0708L40.372 16.2607ZM41.4023 17.8738L40.5192 16.4911L43.9478 14.3013L44.8309 15.6839L41.4023 17.8738Z" fill="#FF0000"/>
<path d="M43.449 8.52023C43.2102 8.45644 42.5784 8.51384 41.5538 8.69243C41.1743 8.71848 41.0574 8.92296 41.2029 9.30587C41.4629 10.1781 41.617 10.9232 41.6652 11.5413C41.7216 12.3272 41.8001 12.4502 41.9007 11.91C41.9514 11.8344 42.0001 11.7168 42.0467 11.5572C42.4123 10.5018 42.6458 9.89839 42.7472 9.7471C42.7938 9.58754 42.8503 9.44334 42.9165 9.31451C42.9672 9.23886 43.0785 9.10294 43.2502 8.90672C43.3868 8.73297 43.453 8.60414 43.449 8.52023Z" fill="#FF0000"/>
<path d="M38.2452 12.2331C37.7791 11.9685 37.0574 12.0401 36.0802 12.4479C35.4783 12.7458 35.3495 12.893 35.6937 12.8894C35.8033 12.9059 35.9031 12.9071 35.993 12.8929C36.4902 13.0512 36.9036 13.3496 37.2331 13.788C37.4294 14.0953 37.6449 14.2389 37.8796 14.2187C38.4234 14.2175 38.7652 13.9775 38.9051 13.4988C38.9509 12.9504 38.731 12.5285 38.2452 12.2331Z" fill="#FF0000"/>
<path d="M32.5326 13.8702C32.4622 13.9151 32.3997 13.9334 32.3449 13.9252C31.7471 14.307 31.7454 14.4594 32.34 14.3825L32.3927 14.3488C32.8858 14.4232 33.2992 14.7216 33.6328 15.244C33.8094 15.5205 33.9877 15.6446 34.1676 15.6162C34.8169 15.5475 35.1898 15.2012 35.2864 14.5772C35.293 13.9673 34.9831 13.5596 34.3567 13.3541C33.9183 13.2879 33.3103 13.46 32.5326 13.8702Z" fill="#FF0000"/>
<path d="M37.472 18.6969C37.3379 18.1769 36.9614 16.7735 36.3425 14.4866C36.2085 13.9666 36.0964 13.7137 36.0065 13.7279C35.9558 13.8035 35.9701 14.0972 36.0494 14.609C36.3599 17.2658 36.4866 18.9369 36.4293 19.6224C36.399 20.1176 36.0927 20.5295 35.5104 20.8582C35.0533 21.1502 35.0398 21.2453 35.4699 21.1436C35.5599 21.1294 35.6225 21.1111 35.6576 21.0886C36.2325 20.981 36.6533 21.0584 36.9198 21.3207C37.2101 21.6977 37.4558 22.2762 37.6569 23.0562C37.7436 23.3469 37.8164 23.5384 37.8753 23.6305C38.1852 24.0382 38.6059 24.1156 39.1375 23.8626C39.665 23.5257 39.934 23.0943 39.9447 22.5684C39.8932 22.2552 39.6401 21.8977 39.1855 21.4959C38.9581 21.295 38.8052 21.1331 38.7267 21.0102C38.2369 20.6309 37.8187 19.8598 37.472 18.6969Z" fill="#FF0000"/>
<path d="M34.6864 16.7773C34.0682 16.7396 33.382 16.9831 32.628 17.508C32.206 17.7775 32.1749 17.8838 32.5348 17.8271C32.6795 17.8211 32.7695 17.8069 32.8046 17.7845C33.3525 17.8671 33.8187 18.1318 34.203 18.5785C34.4148 18.8326 34.6008 18.9301 34.7611 18.871C35.4104 18.8023 35.7559 18.4519 35.7977 17.8196C35.7339 17.2546 35.3635 16.9072 34.6864 16.7773Z" fill="#FF0000"/>
<path fill-rule="evenodd" clip-rule="evenodd" d="M23.4058 19.1799C23.7067 19.0309 24.278 19.0338 25.1194 19.1885C25.2486 19.2358 25.3153 19.3014 25.3194 19.3853C25.2687 19.4609 25.173 19.5437 25.0323 19.6335L23.9246 20.341C23.483 20.5798 23.4347 20.8918 23.7798 21.2771L24.0447 21.6919L27.2624 19.6368C27.2975 19.6143 27.3266 19.466 27.3495 19.1918C27.3291 18.7722 27.3618 18.5134 27.4477 18.4153C28.4879 18.1835 29.3114 18.1551 29.9182 18.3299C29.9419 18.4445 29.903 18.5775 29.8016 18.7288C29.6691 18.9865 29.6421 19.1767 29.7206 19.2996C30.3894 21.122 30.79 22.8345 30.9224 24.4371C31.9168 24.7537 33.0768 24.7482 34.4024 24.4207C34.6175 24.3698 34.7369 24.4017 34.7606 24.5163C34.7647 24.6003 34.6809 24.7403 34.5091 24.9365C34.2204 25.3372 34.0335 25.781 33.9484 26.268C33.9566 26.4358 33.9529 26.5463 33.9374 26.5995C33.5506 26.8466 32.4744 26.712 30.7088 26.1957C30.3359 27.4722 29.765 28.5938 28.9962 29.5607C29.1532 29.8065 28.9974 30.144 28.5288 30.573C28.1109 30.9265 27.8234 30.9803 27.6664 30.7345L26.1357 28.3378C25.1093 29.599 24.2997 30.6569 23.7067 31.5115C23.5546 31.7384 23.461 31.8631 23.4258 31.8856C23.0071 31.8502 22.4645 31.5045 21.7981 30.8487C21.7785 30.818 21.8742 30.7352 22.0851 30.6005C22.2414 30.4574 22.5186 30.1938 22.9169 29.8097L18.9135 23.5416L17.8585 24.2154C17.6827 24.3277 17.54 24.3756 17.4304 24.359C17.3208 24.3425 17.3441 24.2627 17.5003 24.1197L23.1444 20.5149C23.1403 20.4309 23.1596 20.2673 23.2021 20.0238C23.2324 19.5286 23.3003 19.2473 23.4058 19.1799ZM20.8124 22.3287C20.4411 22.5226 20.3614 22.7466 20.5732 23.0007L21.5152 24.4755L23.0449 23.4985L21.8674 21.6549L20.8124 22.3287ZM25.6394 20.9329C26.8905 22.4266 28.1073 23.4015 29.2898 23.8576C28.8957 22.4654 28.3119 21.0862 27.5384 19.7201L25.6394 20.9329ZM24.1625 21.8762L26.9884 26.3008L28.5525 24.9125C28.0823 24.5639 27.5961 24.0741 27.0941 23.443C26.5372 22.8037 25.9644 22.0231 25.3757 21.1014L24.1625 21.8762ZM21.6623 24.7059L22.8692 26.5956L24.399 25.6186L23.192 23.7289L21.6623 24.7059ZM22.987 26.78L24.1939 28.6696L25.5764 27.4622L24.5167 25.8029L22.987 26.78ZM28.723 25.0631L27.3711 26.8999L28.8429 29.2044C29.314 28.0816 29.5365 26.8796 29.5104 25.5984C29.3461 25.5736 29.1228 25.4567 28.8407 25.2475L28.723 25.0631Z" fill="#FF0000"/>
<path d="M13.6913 26.9418C13.0101 26.728 12.1359 26.8321 11.0687 27.2542C10.9828 27.3523 10.9382 27.5538 10.9349 27.8587C10.9161 28.2168 10.8539 28.4296 10.7485 28.4969L4.62963 32.405C4.54784 32.587 4.66723 32.6189 4.98781 32.5007L11.5286 28.3231L13.442 31.3189L8.58914 34.4184L8.11816 33.681L8.14147 33.6012C8.36721 33.0244 7.90354 32.9961 6.75044 33.5163C6.14855 33.8142 6.02013 34.1557 6.36521 34.541L8.95564 38.5968C9.76432 39.9405 10.4034 40.5922 10.8728 40.552C11.37 40.7103 12.4139 40.368 14.0045 39.5251C16.3058 38.012 17.9741 36.9032 19.0095 36.1987C20.3728 35.1549 21.0086 34.2513 20.9171 33.4879C20.819 33.3342 20.5978 33.2592 20.2535 33.2628C19.5298 33.2924 19.0068 32.9775 18.6847 32.3181C18.5318 32.1562 18.4201 32.0977 18.3498 32.1426C18.3343 32.1958 18.3698 32.3678 18.4565 32.6585C18.7443 33.7292 18.6285 34.517 18.1092 35.0217C17.6406 35.4508 17.0293 35.9277 16.2752 36.4526C15.5564 36.955 14.8003 37.4379 14.0071 37.9012C12.2684 39.055 11.1885 39.0309 10.7675 37.829L8.70689 34.6027L13.5598 31.5033L13.7952 31.872C14.0111 32.21 14.3202 32.2288 14.7226 31.9286C15.5118 31.3813 15.7436 30.9304 15.4182 30.5758L13.6226 27.7644C13.6029 27.7337 13.6087 27.6651 13.6397 27.5588C13.7722 27.3011 13.7894 27.0955 13.6913 26.9418Z" fill="#FF0000"/>
<path fill-rule="evenodd" clip-rule="evenodd" d="M53.6243 16.2587L45.4193 3.12381C44.7028 1.97844 43.2056 1.63956 42.0741 2.36063L1.12503 28.6612C-0.00338757 29.3886 -0.336911 30.9086 0.371801 32.0508L8.57686 45.1874C9.29339 46.3299 10.7905 46.6685 11.919 45.9475L52.8696 19.6487C54.0011 18.9209 54.3411 17.4028 53.6243 16.2587ZM51.99 18.2371L11.0394 44.5393C10.6772 44.771 10.2031 44.6625 9.97494 44.2963L1.76988 31.1598C1.54162 30.792 1.64853 30.3123 2.01073 30.0775L42.9629 3.7769C43.3255 3.54676 43.801 3.65551 44.0259 4.02169L52.2343 17.158C52.4545 17.5179 52.3461 18.0007 51.99 18.2371Z" fill="#FF0000"/>
<path d="M16.6893 9.90209L17.3694 11.5579L18.2504 10.004L20.0107 9.85978L18.8249 8.52786L19.2287 6.78589L17.6198 7.52015L16.1085 6.59147L16.2999 8.37553L14.9593 9.5359L16.6893 9.90209Z" fill="#FF0000"/>
<path d="M26.2701 3.39625L27.116 4.97271L28.8732 5.1592L27.662 6.46201L28.0307 8.21843L26.4329 7.44866L24.9008 8.34796L25.1275 6.57048L23.8141 5.37467L25.5537 5.03761L26.2701 3.39625Z" fill="#FF0000"/>
<path d="M43.0126 31.3802L41.6127 30.2879L41.6065 32.0785L40.1446 33.0849L41.8283 33.6487L42.3246 35.3678L43.3684 33.9208L45.1352 33.9711L44.0978 32.5162L44.6963 30.8357L43.0126 31.3802Z" fill="#FF0000"/>
<path d="M36.6317 36.8586L37.2988 38.5194L39.0207 38.9019L37.6801 40.0604L37.8574 41.846L36.3522 40.8966L34.7339 41.6144L35.1521 39.8742L33.9774 38.5358L35.7362 38.4062L36.6317 36.8586Z" fill="#FF0000"/>
<path d="M26.8319 43.3742L27.6701 44.9573L28.401 43.3206L30.1407 43.0049L28.835 41.7959L29.0746 40.02L27.536 40.9032L25.9462 40.1222L26.3005 41.8752L25.0716 43.1733L26.8319 43.3742Z" fill="#FF0000"/>
<path d="M12.5446 17.9521L11.1528 16.8422L9.46568 17.3752L10.0756 15.6899L9.05247 14.2283L10.8193 14.2932L11.8757 12.8559L12.3594 14.5832L14.0337 15.1585L12.5653 16.16L12.5446 17.9521Z" fill="#FF0000"/>
<path d="M38.7 42.8525C45.4703 38.5066 49.1044 31.0059 48.9114 23.4192L50.5296 22.3836C50.6862 24.6799 50.5105 26.9856 50.0062 29.2606C49.3326 32.2956 48.1054 35.1313 46.3658 37.6816C44.5607 40.3212 42.2751 42.5379 39.5795 44.2734C36.8838 46.0088 33.9311 47.1513 30.8077 47.6762C27.7912 48.1835 24.7396 48.0944 21.7441 47.4106C19.5015 46.9003 17.3709 46.0769 15.3919 44.9573L17.0102 43.9186C23.696 47.3247 31.9297 47.2047 38.7 42.8525Z" fill="#FF0000"/>
<path d="M20.0394 12.9678C21.9355 11.7526 24.0214 11.1042 26.1155 10.9747L28.6147 9.37039C25.3125 8.97501 22.0057 9.73026 19.1521 11.5597C16.3063 13.3874 14.2203 16.1016 13.1622 19.2969L15.6599 17.6928C16.6751 15.8195 18.1451 14.1862 20.0394 12.9678Z" fill="#FF0000"/>
<path d="M27.7402 37.0255C29.8342 36.896 31.9185 36.2478 33.8147 35.0292C35.709 33.8139 37.1806 32.1741 38.1956 30.3091L40.6918 28.7017C39.6353 31.897 37.5492 34.6128 34.7035 36.4388C31.8484 38.2683 28.5431 39.0252 25.2423 38.6298L27.7402 37.0255Z" fill="#FF0000"/>
</svg>
