<svg width="54" height="48" viewBox="0 0 54 48" fill="none" xmlns="http://www.w3.org/2000/svg">
<path d="M11.6584 38.9175C12.0103 39.5288 12.4422 39.8387 12.9424 39.8387C13.2371 39.8387 13.5457 39.7259 13.8595 39.5035L20.8837 34.9295C21.9104 34.3539 22.4056 33.616 22.3557 32.7362L22.327 32.2325L21.8801 32.4532C21.8447 32.4707 21.8095 32.4789 21.7695 32.4789C21.5897 32.4789 21.0589 32.3005 20.015 30.648L19.8362 30.3649L19.0365 30.8856L19.1972 31.1643C19.6931 32.024 20.0539 32.7073 20.2693 33.1945C20.3371 33.3485 20.478 33.6688 19.7982 34.0645L13.7072 38.0303L13.6935 38.0398C13.4325 38.2289 13.2699 38.2687 13.1794 38.2687C13.1294 38.2687 13.0124 38.2687 12.883 38.0279L10.5397 34.317L16.4134 30.4921L16.9207 31.295L17.9469 29.95L17.8003 29.7458C17.4209 29.2175 16.6726 28.0706 15.5753 26.3357L15.9417 25.4457L13.8854 25.3176L13.8147 26.2932L5.82669 31.4948L7.57439 31.7737L7.69409 31.6465C7.98813 31.3341 8.34755 31.0389 8.76229 30.7688L14.3072 27.1581L15.8827 29.6519L10.08 33.4306L10.3967 32.5212L7.89175 33.1319L8.19103 33.5406C8.53164 34.0057 9.69834 35.8149 11.6584 38.9175Z" fill="#80D7B2"/>
<path d="M23.9607 33.2996L24.6056 33.8812L24.8261 33.6391C26.014 32.3343 26.7627 31.3132 27.1153 30.517C27.4768 29.6994 27.5689 28.8684 27.3887 28.0467C27.2349 27.3473 26.9649 26.5717 26.5855 25.738L27.8848 24.8919L29.7834 27.8972C30.154 28.4841 30.6237 28.6072 30.9525 28.6072C31.3441 28.6072 31.7677 28.4447 32.2475 28.1104L34.567 26.5997C35.4332 26.0822 35.8616 25.4346 35.8401 24.6749L35.828 24.2507L35.424 24.3595C35.1008 24.4467 34.8595 24.3702 34.6388 24.1037C34.3378 23.7405 34.0177 23.3279 33.6879 22.8776L33.5035 22.6258L32.7723 23.102L32.9342 23.3809C33.5922 24.5147 33.8026 24.98 33.8629 25.1699C33.8862 25.2436 33.9343 25.3961 33.6528 25.6226L31.7923 26.8341C31.4891 27.0316 31.3029 27.073 31.2001 27.073C31.1108 27.073 31.015 27.0479 30.9183 26.866L29.1512 24.0672L33.4548 21.2649L30.6338 20.8144L30.2614 22.1587L21.0248 28.1734L22.6703 28.4361L23.4209 27.7987L25.2739 26.5921C25.8182 27.7072 26.0789 28.6693 26.0497 29.4554C26.0174 30.3028 25.3813 31.5122 24.159 33.05L23.9607 33.2996Z" fill="#80D7B2"/>
<path d="M20.2377 25.798C20.3121 25.9157 20.4407 25.9831 20.5906 25.983C20.7191 25.983 20.8763 25.9346 21.0994 25.8263C21.2826 25.738 21.4328 25.6158 21.5461 25.4642L22.8877 25.6783L23.008 25.537C23.2323 25.2735 23.571 24.9936 24.0145 24.7048L30.3187 20.5996L27.7362 20.1872L27.4291 21.2955L21.7601 24.987C21.8409 24.6238 21.799 24.3085 21.6354 24.0495C21.5988 23.9916 21.5456 23.9253 21.4719 23.8464L29.0844 18.8894L29.2416 20.0935L30.0426 20.0644L30.0699 19.7704C30.1582 18.8166 30.4035 18.1652 30.7992 17.8344L31.39 17.3403L28.9116 17.0171L28.767 17.9102L25.4325 20.0816C25.4204 19.8497 25.3643 19.6566 25.2627 19.4958C25.1117 19.2566 24.834 19.1077 24.4141 19.0407C24.0528 18.983 23.5172 19.0218 22.7369 19.1607L22.5314 19.1972L22.3445 19.8739L22.6528 19.9706C23.3137 20.1778 23.8357 20.4374 24.2047 20.7422C24.233 20.7704 24.2618 20.798 24.2911 20.825L20.8399 23.0723L20.4431 22.5572L19.7017 23.04L19.8095 23.3006C19.9808 23.715 20.0934 24.0881 20.1438 24.4089C20.1915 24.7164 20.1936 24.9987 20.1499 25.2485C20.1015 25.4405 20.1316 25.63 20.2377 25.798Z" fill="#80D7B2"/>
<path fill-rule="evenodd" clip-rule="evenodd" d="M36.9972 24.9975L37.7348 25.277L37.8503 24.961C38.5402 23.0769 38.1747 20.8275 36.7639 18.2713L38.5865 17.0845C39.5201 18.7348 39.8032 19.325 39.8727 19.5257C39.9476 19.7434 39.8847 19.7744 39.8041 19.8141C39.5465 19.9418 39.0856 20.1603 38.3537 20.5018L38.0075 20.6634L38.4577 21.3757L38.689 21.316C39.5349 21.0978 40.1336 21.1249 40.4093 21.3931L40.681 21.6573L40.9047 21.3501C41.3057 20.7995 41.5007 20.2793 41.4844 19.8036C41.4734 19.4926 41.2837 18.8178 39.9212 16.3557L40.2812 15.4813L38.3863 15.2457L38.1831 16.1614L36.2534 17.4179L35.2637 15.7673L38.7399 13.5037C40.1868 15.3354 41.5801 16.6186 42.8877 17.3238C42.7124 18.5647 42.2292 19.9685 41.4495 21.5008L41.3313 21.7331L41.9617 22.3012L42.1768 22.0039C43.0774 20.7589 43.7575 19.3391 44.201 17.7788C45.0378 17.9894 45.7697 18.096 46.3803 18.096C46.7498 18.096 47.0849 18.0571 47.3765 17.9803C48.2064 17.7613 48.7193 17.5769 48.9906 17.4002C49.2054 17.2604 49.2448 17.0926 49.2401 16.9764C49.2354 16.8597 49.1816 16.6948 48.9528 16.5715L48.9388 16.5644C48.6521 16.4273 48.435 16.2375 48.275 15.9842C48.091 15.693 47.7688 15.033 47.3175 14.0224L47.1904 13.738L46.385 14.0382L47.0019 16.3381C46.7414 16.3743 46.4717 16.3925 46.1963 16.3925C45.6746 16.3925 45.1159 16.327 44.5321 16.1978C44.6067 15.084 44.5496 13.781 44.3622 12.3181L44.9077 11.3985L42.3932 11.3354L42.4811 11.7524C42.6706 12.6518 42.8139 13.4808 42.9069 14.2163C42.9689 14.7091 43.0017 15.1572 43.005 15.555C42.171 15.0167 41.1844 14.0407 40.0622 12.6429L44.9923 9.43248L42.2508 8.99473L42.0286 9.79698C42.0218 9.69005 41.9998 9.57855 41.9625 9.46281C41.8819 9.21277 41.6556 8.89836 41.0332 8.82109C40.9055 8.80562 40.7535 8.79816 40.5686 8.79816C40.1856 8.79816 39.6609 8.83205 39.0091 8.89883L38.7845 8.92183L38.5674 9.70619L38.5968 9.7142L36.1947 10.3138L36.5199 10.725C37.0485 11.3936 37.5758 12.0632 38.1018 12.7339L34.5704 15.0334L32.9246 15.2899L33.2531 15.7382C33.5935 16.2032 33.9751 16.7696 34.387 17.4216C34.8062 18.0851 35.4045 19.089 36.1652 20.4055C36.8923 21.6638 37.1808 23.122 37.0224 24.7398L36.9972 24.9975ZM39.4714 11.842C39.1442 11.4224 38.8561 11.0206 38.6119 10.6434L38.7935 9.7678L38.8912 9.79436C40.0389 10.1063 40.5064 10.3639 40.6963 10.5257C40.8369 10.6524 40.971 10.7368 41.1016 10.7804L39.4714 11.842Z" fill="#80D7B2"/>
<path fill-rule="evenodd" clip-rule="evenodd" d="M53.6243 16.2587L45.4193 3.12381C44.7028 1.97844 43.2056 1.63956 42.0741 2.36063L1.12503 28.6612C-0.00338752 29.3886 -0.336911 30.9086 0.371801 32.0508L8.57686 45.1874C9.29339 46.3299 10.7905 46.6685 11.919 45.9475L52.8696 19.6487C54.0011 18.9209 54.3411 17.4028 53.6243 16.2587ZM51.99 18.2371L11.0394 44.5393C10.6772 44.771 10.2031 44.6625 9.97494 44.2963L1.76988 31.1598C1.54162 30.792 1.64853 30.3123 2.01073 30.0775L42.9629 3.7769C43.3255 3.54676 43.801 3.65551 44.0259 4.02169L52.2343 17.158C52.4545 17.5179 52.3461 18.0007 51.99 18.2371Z" fill="#80D7B2"/>
<path d="M16.6893 9.90208L17.3694 11.5579L18.2504 10.004L20.0107 9.85978L18.8249 8.52786L19.2287 6.78589L17.6198 7.52015L16.1085 6.59147L16.2999 8.37553L14.9593 9.5359L16.6893 9.90208Z" fill="#80D7B2"/>
<path d="M27.116 4.97271L26.2701 3.39625L25.5537 5.03761L23.8141 5.37467L25.1275 6.57048L24.9008 8.34796L26.4329 7.44866L28.0307 8.21843L27.662 6.46201L28.8732 5.1592L27.116 4.97271Z" fill="#80D7B2"/>
<path d="M43.0126 31.3802L41.6127 30.2879L41.6065 32.0785L40.1446 33.0849L41.8283 33.6488L42.3246 35.3679L43.3684 33.9209L45.1352 33.9711L44.0978 32.5162L44.6963 30.8357L43.0126 31.3802Z" fill="#80D7B2"/>
<path d="M37.2988 38.5194L36.6317 36.8586L35.7362 38.4062L33.9774 38.5358L35.1521 39.8742L34.7339 41.6144L36.3522 40.8966L37.8574 41.846L37.6801 40.0604L39.0207 38.9019L37.2988 38.5194Z" fill="#80D7B2"/>
<path d="M26.8319 43.3742L27.6701 44.9573L28.401 43.3206L30.1407 43.0049L28.835 41.7959L29.0746 40.02L27.536 40.9032L25.9462 40.1222L26.3005 41.8752L25.0716 43.1733L26.8319 43.3742Z" fill="#80D7B2"/>
<path d="M11.1528 16.8422L12.5446 17.9521L12.5653 16.16L14.0337 15.1585L12.3594 14.5832L11.8757 12.8559L10.8193 14.2932L9.05247 14.2283L10.0756 15.6899L9.46568 17.3752L11.1528 16.8422Z" fill="#80D7B2"/>
<path d="M4.93626 24.5793C4.75125 16.9927 8.38543 9.49198 15.1557 5.14454C21.9275 0.797021 30.1598 0.673815 36.847 4.08007L38.4622 3.04291C36.4832 1.92006 34.3542 1.09838 32.1119 0.587934C29.116 -0.0958857 26.0645 -0.181565 23.0479 0.322355C19.9245 0.847191 16.9719 1.99128 14.2746 3.72673C11.579 5.4621 9.29339 7.6788 7.48985 10.3201C5.74381 12.8672 4.51656 15.7047 3.84143 18.7412C3.33866 21.0144 3.15988 23.3186 3.31641 25.6149L4.93626 24.5793Z" fill="#80D7B2"/>
<path d="M48.9114 23.4192C49.1044 31.0059 45.4703 38.5066 38.7 42.8525C31.9297 47.2047 23.696 47.3247 17.0102 43.9186L15.3919 44.9573C17.3709 46.0769 19.5014 46.9003 21.7441 47.4106C24.7396 48.0944 27.7912 48.1836 30.8077 47.6762C33.9311 47.1513 36.8838 46.0088 39.5795 44.2734C42.2751 42.5379 44.5607 40.3212 46.3658 37.6816C48.1054 35.1313 49.3326 32.2956 50.0062 29.2606C50.5105 26.9856 50.6862 24.6799 50.5296 22.3836L48.9114 23.4192Z" fill="#80D7B2"/>
<path d="M20.0394 12.9678C21.9355 11.7526 24.0214 11.1042 26.1155 10.9747L28.6147 9.37039C25.3125 8.97502 22.0057 9.73026 19.1521 11.5597C16.3063 13.3874 14.2203 16.1016 13.1622 19.2969L15.6599 17.6928C16.6751 15.8195 18.1451 14.1862 20.0394 12.9678Z" fill="#80D7B2"/>
<path d="M33.8147 35.0292C31.9185 36.2478 29.8342 36.896 27.7402 37.0255L25.2423 38.6298C28.5431 39.0252 31.8484 38.2683 34.7035 36.4388C37.5492 34.6128 39.6353 31.897 40.6918 28.7017L38.1956 30.3091C37.1806 32.1741 35.709 33.8139 33.8147 35.0292Z" fill="#80D7B2"/>
</svg>
