<svg width="22" height="22" viewBox="0 0 22 22" fill="none" xmlns="http://www.w3.org/2000/svg">
<circle cx="12.5" cy="13.5" r="7" fill="#404080"/>
<path d="M5 11.1676C5 11.3209 5.0302 11.4727 5.08888 11.6144C5.14755 11.756 5.23355 11.8847 5.34197 11.9932C5.45039 12.1016 5.5791 12.1876 5.72076 12.2463C5.86242 12.3049 6.01424 12.3351 6.16757 12.3351C6.3209 12.3351 6.47272 12.3049 6.61438 12.2463C6.75604 12.1876 6.88475 12.1016 6.99317 11.9932C7.10159 11.8847 7.18759 11.756 7.24627 11.6144C7.30494 11.4727 7.33514 11.3209 7.33514 11.1676C7.33514 11.0142 7.30494 10.8624 7.24627 10.7208C7.18759 10.5791 7.10159 10.4504 6.99317 10.342C6.88475 10.2336 6.75604 10.1476 6.61438 10.0889C6.47272 10.0302 6.3209 10 6.16757 10C6.01424 10 5.86242 10.0302 5.72076 10.0889C5.5791 10.1476 5.45039 10.2336 5.34197 10.342C5.23355 10.4504 5.14755 10.5791 5.08888 10.7208C5.0302 10.8624 5 11.0142 5 11.1676Z" fill="#586BF9"/>
<path d="M9.91391 11.1676C9.91391 11.4772 10.0369 11.7742 10.2559 11.9932C10.4748 12.2121 10.7718 12.3351 11.0815 12.3351C11.3911 12.3351 11.6881 12.2121 11.9071 11.9932C12.126 11.7742 12.249 11.4772 12.249 11.1676C12.249 10.8579 12.126 10.5609 11.9071 10.342C11.6881 10.123 11.3911 10 11.0815 10C10.7718 10 10.4748 10.123 10.2559 10.342C10.0369 10.5609 9.91391 10.8579 9.91391 11.1676Z" fill="#586BF9"/>
<path d="M14.8277 11.1676C14.8277 11.4772 14.9507 11.7742 15.1697 11.9932C15.3886 12.2121 15.6856 12.3351 15.9953 12.3351C16.3049 12.3351 16.6019 12.2121 16.8209 11.9932C17.0398 11.7742 17.1628 11.4772 17.1628 11.1676C17.1628 10.8579 17.0398 10.5609 16.8209 10.342C16.6019 10.123 16.3049 10 15.9953 10C15.6856 10 15.3886 10.123 15.1697 10.342C14.9507 10.5609 14.8277 10.8579 14.8277 11.1676Z" fill="#586BF9"/>
<path fill-rule="evenodd" clip-rule="evenodd" d="M3.22182 3.22182C5.28472 1.15893 8.08262 1.56215e-08 11 1.56215e-08C12.7034 -9.07555e-05 14.3836 0.395427 15.9081 1.15538C17.4326 1.91534 18.7598 3.01897 19.785 4.37929C20.8103 5.73961 21.5056 7.31946 21.8162 8.99432C22.1268 10.6692 22.0441 12.3933 21.5748 14.0308C21.1055 15.6683 20.2623 17.1744 19.1116 18.4304C17.961 19.6865 16.5343 20.6581 14.9441 21.2688C13.354 21.8795 11.6437 22.1125 9.94807 21.9495C8.25247 21.7865 6.61788 21.232 5.17314 20.3296L1.86057 21.8743C1.66251 21.9677 1.44401 22.0095 1.22546 21.9956C1.0069 21.9818 0.795417 21.9128 0.610732 21.7951C0.426048 21.6774 0.274184 21.5149 0.169311 21.3226C0.0644378 21.1304 0.0099735 20.9147 0.011 20.6957V11.451C0 11.3017 0 11.1571 0 11C0 8.08262 1.15893 5.28472 3.22182 3.22182ZM15.2078 2.56088C13.9007 1.90967 12.4603 1.57095 11 1.57143C8.50028 1.57434 6.10378 2.56864 4.33621 4.33621C2.56864 6.10378 1.57434 8.50028 1.57143 11C1.57143 11.1257 1.57143 11.2609 1.58086 11.3881V20.2714L4.50686 18.9027C4.74483 18.7926 5.00644 18.7435 5.26814 18.7597C5.52984 18.7758 5.7834 18.8569 6.006 18.9954C7.24433 19.7694 8.6455 20.2451 10.0991 20.3851C11.5526 20.5251 13.0188 20.3256 14.3821 19.8023C15.7454 19.2789 16.9685 18.4461 17.955 17.3694C18.9415 16.2927 19.6644 15.0016 20.0667 13.5978C20.4691 12.194 20.5399 10.716 20.2735 9.28018C20.0071 7.84439 19.4109 6.4901 18.5318 5.32405C17.6527 4.15801 16.5148 3.2121 15.2078 2.56088Z" fill="#586BF9"/>
</svg>
