<svg width="280" height="170" viewBox="0 0 280 170" fill="none" xmlns="http://www.w3.org/2000/svg">
<path d="M280 161.285C280.003 162.426 279.767 163.558 279.305 164.614C278.843 165.67 278.164 166.63 277.307 167.439C276.451 168.248 275.433 168.891 274.312 169.33C273.191 169.77 271.989 169.997 270.774 170H9.22717C4.12423 169.979 0 166.082 0 161.285V8.67385C0.0243066 3.89278 4.14148 0.0220701 9.22717 0H270.774C271.986 0.00248128 273.185 0.229417 274.303 0.667835C275.421 1.10625 276.436 1.74756 277.291 2.55508C278.146 3.36237 278.823 4.32017 279.284 5.37372C279.745 6.42727 279.981 7.55592 279.978 8.69514V161.284L280 161.285Z" fill="#545467"/>
<path fill-rule="evenodd" clip-rule="evenodd" d="M32.9249 66.5388C38.2162 73.4375 46.6788 77.9056 56.2156 77.9056C64.9089 77.9056 72.7095 74.193 78.0292 68.311C78.3321 69.2478 78.5098 70.2397 78.5428 71.269V71.5723H78.5426C78.5226 73.0258 78.2061 74.461 77.6113 75.7948C77.0165 77.1286 76.1553 78.3346 75.0776 79.3429C73.9999 80.3515 72.7271 81.1425 71.3329 81.6703C69.9386 82.1981 68.4504 82.4521 66.9544 82.4177H43.2423C41.7472 82.4493 40.2603 82.1933 38.8674 81.6645C37.4745 81.1357 36.203 80.3446 35.126 79.3366C34.049 78.3287 33.1879 77.1238 32.5921 75.7913C31.9963 74.4587 31.6777 73.0249 31.6545 71.5723V71.3335C31.6996 69.6035 32.1538 67.9769 32.9249 66.5388ZM248.235 46.8246H106.832V36.6953H248.235V46.8246ZM248.235 77.06H106.832V66.931H248.235V77.06ZM90.5997 149.483H29.4211V139.375H90.5997V149.483ZM248.235 149.483H102.055V139.375H248.235V149.483Z" fill="#6E6E88"/>
<path fill-rule="evenodd" clip-rule="evenodd" d="M56.2141 77.9095C40.1834 77.9095 27.1879 65.2848 27.1879 49.7123C27.1878 46.0095 27.9386 42.3428 29.3972 38.9218C30.8559 35.5008 32.994 32.3924 35.6893 29.7741C38.3847 27.1557 41.5846 25.0788 45.1062 23.6618C48.6279 22.2448 52.4023 21.5155 56.2141 21.5156C72.2444 21.5156 85.2404 34.1399 85.2404 49.7123C85.2404 65.2848 72.245 77.9095 56.2141 77.9095ZM46.8161 71.753C37.6382 68.0607 31.6537 59.3604 31.6537 49.7105C31.6537 36.5338 42.6501 25.8514 56.2141 25.8516C66.1481 25.8516 75.1036 31.6639 78.9052 40.5795C82.7075 49.4949 80.6052 59.7577 73.5814 66.5817C66.5571 73.4045 55.9935 75.4467 46.8161 71.753Z" fill="#6E6E88"/>
<path fill-rule="evenodd" clip-rule="evenodd" d="M55.901 32.2755L57.7765 33.1431L57.4201 31.2995L58.9605 29.9767L56.8397 29.6945L55.9014 28.0234L54.9417 29.6945L52.8427 29.9767L54.3833 31.2995L54.003 33.1431L55.901 32.2755ZM43.0401 34.9646L44.5593 35.6581L44.2237 34.1617L45.4511 33.099L43.7542 32.8818L43.0185 31.5375L42.2811 32.904L40.5842 33.1204L41.8127 34.1834L41.522 35.6581L43.0401 34.9646ZM69.432 34.9646L70.9497 35.6581L70.6153 34.1617L71.8434 33.099L70.1469 32.8818L69.4093 31.5375L68.673 32.904L66.9762 33.1204L68.2039 34.1834L67.9133 35.6581L69.432 34.9646ZM61.3931 40.3219L62.9123 41.038L62.5775 39.5198L63.8054 38.4569L62.1312 38.2392L61.3719 36.8954L60.6345 38.2617L58.9372 38.4781L60.1657 39.541L59.8986 41.038L61.3931 40.3219ZM50.23 40.3219L51.7477 41.038L51.4136 39.5198L52.6416 38.4569L50.967 38.2392L50.2073 36.8954L49.471 38.2617L47.7741 38.4781L49.0019 39.541L48.7344 41.038L50.23 40.3219ZM74.0754 60.559H36.1186L38.0164 56.221H42.2971L44.1123 51.4688H66.1723L67.8678 56.221H72.8256L74.0754 60.559Z" fill="#6E6E88"/>
</svg>
