<svg width="31" height="30" viewBox="0 0 31 30" fill="none" xmlns="http://www.w3.org/2000/svg">
<path d="M0 14.8387V5.80645C0 5.80645 7.71429 3.26087 13.3247 0C20.6883 3.58696 27 5.80645 27 5.80645V14.8387C27 26.129 13.3247 30 13.3247 30C13.3247 30 0 26.129 0 14.8387Z" fill="url(#paint0_linear_46_90)"/>
<g filter="url(#filter0_i_46_90)">
<path d="M13.5 0.00900664C13.7175 -0.0201788 13.9418 0.0217081 14.1378 0.132597C18.68 2.70247 24.3815 4.78734 26.3195 5.46547C26.727 5.60807 27 5.99187 27 6.42533V14.7714C27 26.1119 13.6753 30 13.6753 30C13.6753 30 13.6142 29.9826 13.5 29.9468V0.00900664Z" fill="url(#paint1_linear_46_90)"/>
</g>
<path d="M30.7455 22.8145L30.7461 22.8144C30.7205 22.6198 30.5968 22.4536 30.3701 22.4018H30.35H30.3396L30.3294 22.3997C29.7439 22.2762 29.3191 21.965 28.9962 21.4441M30.7455 22.8145L30.8452 22.8013C30.8143 22.5663 30.6595 22.3606 30.381 22.3018H30.35C29.7929 22.1843 29.3905 21.8905 29.081 21.391C28.8024 20.9503 28.7095 20.392 28.8952 19.8925C28.9881 19.6868 28.9262 19.4224 28.7095 19.2461C28.1214 18.7172 27.4095 18.3058 26.6048 18.0414C26.3881 17.9533 26.1405 18.012 25.9238 18.2177M30.7455 22.8145L30.7481 22.825C30.8384 23.1964 30.869 23.598 30.9 24.0098L30.7455 22.8145ZM28.9962 21.4441C28.9961 21.4439 28.996 21.4438 28.9959 21.4437L29.0809 21.391L28.9964 21.4444C28.9963 21.4443 28.9963 21.4442 28.9962 21.4441ZM28.9962 21.4441C28.7037 20.981 28.6034 20.3904 28.8015 19.8576L28.8039 19.8512L28.8041 19.8513C28.876 19.6921 28.8324 19.475 28.6464 19.3236L28.6426 19.3205L28.6427 19.3204C28.0653 18.8012 27.3657 18.3967 26.5735 18.1364L26.567 18.1343L26.5671 18.134C26.3966 18.0647 26.1912 18.104 25.9969 18.2863M25.9969 18.2863C25.9982 18.2847 25.9995 18.2831 26.0008 18.2815L25.9238 18.2177M25.9969 18.2863C25.9955 18.2876 25.9941 18.2889 25.9927 18.2902L25.9238 18.2177M25.9969 18.2863C25.6332 18.7223 25.0776 18.9347 24.469 18.9347C23.9112 18.9347 23.3924 18.6852 22.9454 18.2608C22.8364 18.1573 22.7321 18.1158 22.638 18.1039C22.5433 18.0919 22.4519 18.1091 22.367 18.1356M25.9238 18.2177C25.5833 18.6291 25.0571 18.8347 24.469 18.8347C23.9429 18.8347 23.4476 18.5997 23.0143 18.1883C22.7667 17.9533 22.519 17.9826 22.3333 18.0414M22.3333 18.0414L22.3706 18.1342C22.3694 18.1347 22.3682 18.1352 22.367 18.1356M22.3333 18.0414C21.5286 18.3646 20.8476 18.7466 20.2595 19.2167C20.0429 19.3636 19.95 19.628 20.0429 19.8631C20.1976 20.4214 20.1357 20.9503 19.8571 21.4204C19.6095 21.8317 19.1452 22.1549 18.5881 22.3018C18.5748 22.3018 18.5672 22.3018 18.5604 22.3042C18.5514 22.3073 18.5438 22.3145 18.5262 22.3312C18.3405 22.4194 18.2167 22.5663 18.1238 22.772M22.3333 18.0414L22.3635 18.1367C22.3647 18.1364 22.3659 18.136 22.367 18.1356M22.367 18.1356C21.5711 18.4556 20.9002 18.8326 20.322 19.2948L20.3158 19.2997L20.3156 19.2995C20.1337 19.4228 20.062 19.6393 20.1359 19.8264L20.1398 19.8362L20.1392 19.8364C20.3007 20.4189 20.2366 20.9761 19.9432 21.4713L19.9428 21.4719L19.9428 21.4719C19.6792 21.9098 19.1907 22.2464 18.6136 22.3985L18.6011 22.4018H18.5971M18.5971 22.4018L18.6046 22.3947L18.6095 22.3903C18.6099 22.3899 18.6101 22.3898 18.6101 22.3898C18.61 22.3899 18.6063 22.3929 18.6 22.3959C18.597 22.3973 18.594 22.3985 18.5909 22.3994C18.59 22.3997 18.589 22.4 18.5881 22.4002C18.5879 22.4003 18.5877 22.4003 18.5874 22.4004C18.5835 22.4014 18.5805 22.4017 18.5792 22.4018C18.5786 22.4019 18.5783 22.4019 18.5783 22.4019C18.5783 22.4019 18.5787 22.4019 18.5797 22.4019L18.5881 22.4018H18.5932H18.5971ZM18.5971 22.4018L18.595 22.4037L18.5835 22.4147L18.5691 22.4216C18.4157 22.4944 18.3084 22.6143 18.2238 22.7939M18.2238 22.7939V22.772H18.1238M18.2238 22.7939C18.2226 22.7964 18.2215 22.7988 18.2203 22.8013C18.2185 22.8052 18.2167 22.8092 18.215 22.8131L18.1889 22.8013L18.1238 22.772M18.2238 22.7939V22.8013V22.8118L18.2217 22.822C18.1304 23.2551 18.1 23.6301 18.1 24.006C18.1 24.3844 18.1308 24.8153 18.2205 25.1558L18.2238 25.1681L18.223 25.1682C18.2486 25.3628 18.3723 25.5291 18.5989 25.5808M18.1238 22.772V22.8013C18.031 23.2421 18 23.624 18 24.006C18 24.388 18.031 24.8287 18.1238 25.1813C18.1548 25.4164 18.3095 25.622 18.5881 25.6808M18.5989 25.5808H18.5881V25.6808M18.5989 25.5808C18.6022 25.5815 18.6054 25.5823 18.6087 25.583L18.5881 25.6808M18.5989 25.5808H18.619H18.6295L18.6397 25.583C19.2252 25.7065 19.6499 26.0177 19.9728 26.5386C19.9729 26.5387 19.973 26.5388 19.9731 26.539L19.8881 26.5917L18.619 25.6808H18.5881M22.2024 23.9766C22.2024 25.1826 23.2116 26.1334 24.469 26.1334C25.7264 26.1334 26.7357 25.1826 26.7357 23.9766C26.7357 22.7706 25.7264 21.8199 24.469 21.8199C23.2116 21.8199 22.2024 22.7706 22.2024 23.9766Z" fill="url(#paint2_linear_46_90)" stroke="#495ADA" stroke-width="0.2"/>
<defs>
<filter id="filter0_i_46_90" x="13.5" y="0" width="13.5" height="30.5" filterUnits="userSpaceOnUse" color-interpolation-filters="sRGB">
<feFlood flood-opacity="0" result="BackgroundImageFix"/>
<feBlend mode="normal" in="SourceGraphic" in2="BackgroundImageFix" result="shape"/>
<feColorMatrix in="SourceAlpha" type="matrix" values="0 0 0 0 0 0 0 0 0 0 0 0 0 0 0 0 0 0 127 0" result="hardAlpha"/>
<feOffset dy="0.5"/>
<feGaussianBlur stdDeviation="0.5"/>
<feComposite in2="hardAlpha" operator="arithmetic" k2="-1" k3="1"/>
<feColorMatrix type="matrix" values="0 0 0 0 0.118837 0 0 0 0 0.364817 0 0 0 0 0.770833 0 0 0 1 0"/>
<feBlend mode="normal" in2="shape" result="effect1_innerShadow_46_90"/>
</filter>
<linearGradient id="paint0_linear_46_90" x1="12.8408" y1="27.6244" x2="13.5308" y2="0.000769987" gradientUnits="userSpaceOnUse">
<stop stop-color="#586BF9"/>
<stop offset="0.448762" stop-color="#3870FF"/>
<stop offset="1" stop-color="#73B9FF"/>
</linearGradient>
<linearGradient id="paint1_linear_46_90" x1="18.2525" y1="21.2843" x2="14.0788" y2="-3.93353" gradientUnits="userSpaceOnUse">
<stop stop-color="#586BF9"/>
<stop offset="0.448762" stop-color="#3168F7"/>
<stop offset="1" stop-color="#73B9FF"/>
</linearGradient>
<linearGradient id="paint2_linear_46_90" x1="24.5" y1="18" x2="24.5" y2="30" gradientUnits="userSpaceOnUse">
<stop stop-color="#4E4EAA"/>
<stop offset="1" stop-color="#151516"/>
</linearGradient>
</defs>
</svg>
