<svg width="29" height="30" viewBox="0 0 29 30" fill="none" xmlns="http://www.w3.org/2000/svg">
<path fill-rule="evenodd" clip-rule="evenodd" d="M9.78589 0.476727C8.13216 -0.47819 6.04161 0.0464297 5.11664 1.64851V1.64817C4.19201 3.25026 4.78273 5.32291 6.43645 6.27783C7.99798 7.17952 13.4728 8.05726 14.5551 7.32692C15.6372 8.05726 21.112 7.17952 22.6739 6.27783C24.3276 5.32291 24.9183 3.25026 23.9937 1.64817V1.64851C23.0687 0.0464297 20.9782 -0.47819 19.3245 0.476727C18.0066 1.23754 15.3104 4.41952 14.5551 6.17716C13.7997 4.41952 11.1035 1.23754 9.78589 0.476727ZM7.29704 4.78762C6.45572 4.3019 6.16381 3.27676 6.60719 2.50911C7.05057 1.74111 8.08432 1.4819 8.92529 1.96728C9.4444 2.26711 10.5601 3.39725 11.5353 4.64167L11.7057 4.86198L11.8062 4.99554C11.9941 5.24562 12.1749 5.50092 12.3484 5.76113L12.4138 5.86165L12.294 5.85476C11.9549 5.83376 11.5842 5.79796 11.1942 5.74805C9.537 5.53565 7.84679 5.10467 7.29704 4.78762ZM21.8133 4.78762C22.6543 4.3019 22.9462 3.27676 22.5032 2.50911H22.5028C22.0594 1.74111 21.026 1.4819 20.1851 1.96728C19.6659 2.26711 18.5503 3.39725 17.575 4.64167L17.4046 4.86198L17.3038 4.99554C17.1052 5.26095 16.9231 5.51879 16.762 5.76113L16.6962 5.86165L16.8163 5.85476C17.1839 5.83098 17.5506 5.79539 17.9158 5.74805C19.573 5.53565 21.2636 5.10467 21.8133 4.78762Z" fill="#D8DEFB"/>
<path d="M28.0799 6.763C28.1703 6.763 28.2598 6.78081 28.3433 6.81541C28.4269 6.85001 28.5028 6.90072 28.5667 6.96465C28.6306 7.02858 28.6813 7.10448 28.7159 7.18801C28.7505 7.27154 28.7683 7.36106 28.7683 7.45148V13.8199C28.7683 14.0025 28.6958 14.1776 28.5667 14.3067C28.4376 14.4358 28.2625 14.5084 28.0799 14.5084H15.4907V6.763H28.0799ZM13.2776 14.5084H0.688477C0.505881 14.5084 0.330764 14.4358 0.20165 14.3067C0.0725356 14.1776 0 14.0025 0 13.8199V7.45148C0 7.26888 0.0725356 7.09376 0.20165 6.96465C0.330764 6.83554 0.505881 6.763 0.688477 6.763H13.2776V14.5084ZM13.2776 15.6147V29.9987H3.78662C3.05624 29.9987 2.35577 29.7086 1.83932 29.1921C1.32286 28.6757 1.03271 27.9752 1.03271 27.2448V15.959C1.03271 15.8677 1.06898 15.7801 1.13354 15.7156C1.1981 15.651 1.28566 15.6147 1.37695 15.6147H13.2776ZM27.3914 15.6147C27.4827 15.6147 27.5702 15.651 27.6348 15.7156C27.6994 15.7801 27.7356 15.8677 27.7356 15.959V27.2448C27.7356 27.9752 27.4455 28.6757 26.929 29.1921C26.4126 29.7086 25.7121 29.9987 24.9817 29.9987H15.4907V15.6147H27.3914Z" fill="url(#paint0_linear_46_54)"/>
<defs>
<linearGradient id="paint0_linear_46_54" x1="13.6818" y1="28.1588" x2="14.0704" y2="6.7573" gradientUnits="userSpaceOnUse">
<stop stop-color="#586BF9"/>
<stop offset="0.448762" stop-color="#3870FF"/>
<stop offset="1" stop-color="#73B9FF"/>
</linearGradient>
</defs>
</svg>
