<svg width="30" height="30" viewBox="0 0 30 30" fill="none" xmlns="http://www.w3.org/2000/svg">
<path d="M0 10.3636C0 7.95367 1.79086 6 4 6H26C28.2091 6 30 7.95367 30 10.3636V11.1818H23C19.5 11.1818 17 14.4532 17 18C17 21.5468 19.5 24.8182 23 24.8182H30V25.6364C30 28.0463 28.2091 30 26 30H4C1.79086 30 0 28.0463 0 25.6364V10.3636Z" fill="url(#paint0_linear_46_41)"/>
<path fill-rule="evenodd" clip-rule="evenodd" d="M23 13.9091H30V22.0909H23C18.5 22.0909 18.5 13.9091 23 13.9091ZM23.5 19.6364C24.25 19.6364 25 19.0906 25 18C25 16.9094 24.25 16.3636 23.5 16.3636C21.5 16.3636 21.5 19.6364 23.5 19.6364Z" fill="url(#paint1_linear_46_41)"/>
<path d="M26 4.5H10L21.2787 0.187853C22.7979 -0.39295 24.4741 0.416215 25.0732 2.01956L26 4.5Z" fill="#D8DEFB"/>
<defs>
<linearGradient id="paint0_linear_46_41" x1="14.2676" y1="28.0995" x2="14.6651" y2="5.99398" gradientUnits="userSpaceOnUse">
<stop stop-color="#586BF9"/>
<stop offset="0.448762" stop-color="#3870FF"/>
<stop offset="1" stop-color="#73B9FF"/>
</linearGradient>
<linearGradient id="paint1_linear_46_41" x1="14.2676" y1="28.0995" x2="14.6651" y2="5.99398" gradientUnits="userSpaceOnUse">
<stop stop-color="#586BF9"/>
<stop offset="0.448762" stop-color="#3870FF"/>
<stop offset="1" stop-color="#73B9FF"/>
</linearGradient>
</defs>
</svg>
