<svg width="22" height="22" viewBox="0 0 22 22" fill="none" xmlns="http://www.w3.org/2000/svg">
<path d="M10.375 13L8.5 17.1538L11 19L13.5 17.1538L11.625 13H10.375Z" fill="#B7BACE"/>
<path fill-rule="evenodd" clip-rule="evenodd" d="M17.5 6.5C17.5 7.41548 17.3107 8.28676 16.9692 9.07685C16.7668 9.54501 16.511 9.98467 16.2094 10.3881C16.709 10.5834 17.1666 10.8041 17.5855 11.0433C20.5231 12.7206 21.5586 15.3058 21.8761 16.3856C21.9721 16.7124 22 17.0646 22 17.4176C22 19.9484 20.5229 22 18.7007 22H3.29929C1.47715 22 0 19.9484 0 17.4176C0 17.0646 0.0278527 16.7124 0.123937 16.3856C0.441407 15.3058 1.47685 12.7206 4.41455 11.0433C4.83342 10.8041 5.29097 10.5834 5.79062 10.3881C5.48901 9.98467 5.23317 9.54501 5.0308 9.07685C4.68926 8.28676 4.5 7.41548 4.5 6.5C4.5 2.91015 7.41015 0 11 0C14.5899 0 17.5 2.91015 17.5 6.5ZM15.008 9.48998L13.8283 11.0681L15.6634 11.7852C19.0592 13.1123 20.1407 15.801 20.437 16.8087C20.4757 16.9403 20.5 17.1317 20.5 17.4176C20.5 18.4038 20.21 19.2347 19.8164 19.7814C19.4211 20.3303 19.007 20.5 18.7007 20.5H3.29929C2.99304 20.5 2.57887 20.3303 2.18364 19.7814C1.79002 19.2347 1.5 18.4038 1.5 17.4176C1.5 17.1317 1.52432 16.9403 1.56303 16.8087C1.8593 15.801 2.94083 13.1123 6.3366 11.7852L8.17175 11.0681L6.99202 9.48998C6.3686 8.65607 6 7.62325 6 6.5C6 3.73858 8.23858 1.5 11 1.5C13.7614 1.5 16 3.73858 16 6.5C16 7.62325 15.6314 8.65607 15.008 9.48998Z" fill="#B7BACE"/>
</svg>
