<svg width="40" height="40" viewBox="0 0 40 40" fill="none" xmlns="http://www.w3.org/2000/svg">
<circle cx="20" cy="20" r="20" fill="#586BF9"/>
<path d="M14.9231 29.3077C15.3744 29.3077 15.7692 29.7025 15.7692 30.1539C15.7692 30.6052 15.3744 31 14.9231 31H12.1026C10.4103 31 9 29.5897 9 27.8974V25.0769C9 24.6256 9.39485 24.2308 9.84615 24.2308C10.2975 24.2308 10.6923 24.6256 10.6923 25.0769V27.8974C10.6923 28.6872 11.3128 29.3077 12.1026 29.3077H14.9231ZM29.3077 25.0769C29.3077 24.6256 29.7025 24.2308 30.1539 24.2308C30.6052 24.2308 31 24.6256 31 25.0769V27.8974C31 29.5897 29.5897 31 27.8974 31H25.0769C24.6256 31 24.2308 30.6051 24.2308 30.1538C24.2308 29.7025 24.6256 29.3077 25.0769 29.3077H27.8974C28.6872 29.3077 29.3077 28.6872 29.3077 27.8974V25.0769ZM25.0769 10.6923C24.6256 10.6923 24.2308 10.2975 24.2308 9.84613C24.2308 9.3948 24.6256 9 25.0769 9H27.8974C29.5897 9 31 10.4103 31 12.1026V15.4872C31 15.9385 30.6051 16.3333 30.1538 16.3333C29.7025 16.3333 29.3077 15.9384 29.3077 15.4871V12.1026C29.3077 11.3128 28.6872 10.6923 27.8974 10.6923H25.0769ZM10.6923 14.9231C10.6923 15.3744 10.2975 15.7692 9.84613 15.7692C9.3948 15.7692 9 15.3744 9 14.9231V12.1026C9 10.4103 10.4103 9 12.1026 9H14.9231C15.3744 9 15.7692 9.39485 15.7692 9.84615C15.7692 10.2975 15.3744 10.6923 14.9231 10.6923H12.1026C11.3128 10.6923 10.6923 11.3128 10.6923 12.1026V14.9231ZM14.359 20.8462C13.9077 20.8462 13.5128 20.4513 13.5128 20C13.5128 19.5487 13.9077 19.1538 14.359 19.1538H25.641C26.0923 19.1538 26.4872 19.5487 26.4872 20C26.4872 20.4513 26.0923 20.8462 25.641 20.8462H14.359V20.8462Z" fill="white"/>
</svg>
