<svg width="22" height="23" viewBox="0 0 22 23" fill="none" xmlns="http://www.w3.org/2000/svg">
<path d="M4.5 18.2007C4.5 17.9465 4.51899 17.6929 4.5845 17.4576C4.91752 16.2615 6.40923 12.5 12 12.5C17.5908 12.5 19.0825 16.2615 19.4155 17.4576C19.481 17.6929 19.5 17.9465 19.5 18.2007C19.5 20.0229 18.4929 21.5 17.2505 21.5H6.74952C5.50714 21.5 4.5 20.0229 4.5 18.2007Z" fill="#586BF9" fill-opacity="0.15"/>
<path d="M10.375 13.5L8.5 17.6538L11 19.5L13.5 17.6538L11.625 13.5H10.375Z" fill="#586BF9"/>
<path fill-rule="evenodd" clip-rule="evenodd" d="M17.5 7C17.5 7.91548 17.3107 8.78676 16.9692 9.57685C16.7668 10.045 16.511 10.4847 16.2094 10.8881C16.709 11.0834 17.1666 11.3041 17.5855 11.5433C20.5231 13.2206 21.5586 15.8058 21.8761 16.8856C21.9721 17.2124 22 17.5646 22 17.9176C22 20.4484 20.5229 22.5 18.7007 22.5H3.29929C1.47715 22.5 0 20.4484 0 17.9176C0 17.5646 0.0278527 17.2124 0.123937 16.8856C0.441407 15.8058 1.47685 13.2206 4.41455 11.5433C4.83342 11.3041 5.29097 11.0834 5.79062 10.8881C5.48901 10.4847 5.23317 10.045 5.0308 9.57685C4.68926 8.78676 4.5 7.91548 4.5 7C4.5 3.41015 7.41015 0.5 11 0.5C14.5899 0.5 17.5 3.41015 17.5 7ZM15.008 9.98998L13.8283 11.5681L15.6634 12.2852C19.0592 13.6123 20.1407 16.301 20.437 17.3087C20.4757 17.4403 20.5 17.6317 20.5 17.9176C20.5 18.9038 20.21 19.7347 19.8164 20.2814C19.4211 20.8303 19.007 21 18.7007 21H3.29929C2.99304 21 2.57887 20.8303 2.18364 20.2814C1.79002 19.7347 1.5 18.9038 1.5 17.9176C1.5 17.6317 1.52432 17.4403 1.56303 17.3087C1.8593 16.301 2.94083 13.6123 6.3366 12.2852L8.17175 11.5681L6.99202 9.98998C6.3686 9.15607 6 8.12325 6 7C6 4.23858 8.23858 2 11 2C13.7614 2 16 4.23858 16 7C16 8.12325 15.6314 9.15607 15.008 9.98998Z" fill="#586BF9"/>
</svg>
