<svg width="22" height="22" viewBox="0 0 22 22" fill="none" xmlns="http://www.w3.org/2000/svg">
<path d="M12.032 9.64867L12.5378 4.95424C12.5351 4.9197 12.5255 4.88604 12.5097 4.85524C12.4956 4.84116 12.4815 4.82708 12.4393 4.82708H12.2985C12.2786 4.82773 12.2593 4.8332 12.242 4.84301C12.2248 4.85282 12.2102 4.86668 12.1995 4.8834L7.33527 12.0731C7.32119 12.1013 7.32119 12.1576 7.32119 12.1858C7.33527 12.2139 7.39159 12.2562 7.43427 12.2562H9.94359L9.28095 17.05C9.28095 17.0782 9.28095 17.1204 9.29503 17.1486C9.30911 17.1627 9.36543 17.1768 9.39403 17.1768H9.47851C9.50667 17.1768 9.54891 17.1627 9.57707 17.1204L14.6811 9.83216C14.6952 9.804 14.6952 9.74724 14.6952 9.71908C14.6811 9.69092 14.6248 9.64867 14.5825 9.64867H12.032Z" fill="#B7BACE"/>
<path d="M1.7521 18.6424V16.9506C3.3031 19.3614 5.74247 21.0673 8.53383 21.7154C14.4694 23.083 20.391 19.3896 21.7444 13.4688C21.77 13.3906 21.789 13.3104 21.8012 13.229C21.8037 13.2022 21.8064 13.177 21.8089 13.1532C21.8341 12.9151 21.8435 12.8267 21.5614 12.7498C21.3498 12.6922 20.83 12.5427 20.3956 12.4131C19.7131 16.9896 15.7665 20.5 11 20.5C5.87341 20.5 1.69526 16.4392 1.50665 11.3587C1.38871 11.2943 1.2595 11.2399 1.11762 11.1988C0.49766 11.0158 -0.052341 11.058 0.00397906 11.8474V18.6424C0.00525104 18.8739 0.0977854 19.0955 0.261482 19.2591C0.42518 19.4227 0.646818 19.5151 0.87826 19.5163C1.35742 19.5163 1.7521 19.122 1.7521 18.6424Z" fill="#B7BACE"/>
<path fill-rule="evenodd" clip-rule="evenodd" d="M1.60449 9.5862C2.28726 5.01003 6.23373 1.5 11 1.5C16.2271 1.5 20.4682 5.72161 20.4998 10.9413C20.7332 11.0271 21.0157 11.0537 21.3638 11.0017C21.7026 11.0017 22.0264 10.7905 21.9983 10.1982V3.37461C21.9983 2.895 21.6036 2.50032 21.124 2.50032C20.6448 2.50032 20.2502 2.89544 20.2502 3.37461V5.01635C18.6982 2.6058 16.2641 0.898224 13.4684 0.259801C7.67363 -1.0655 1.6113 2.82504 0.440899 8.61906C0.35498 9.0617 0.40816 9.08638 0.647368 9.19736C0.682562 9.21368 0.721783 9.23188 0.765181 9.25355C0.944394 9.3349 1.29309 9.47748 1.60449 9.5862Z" fill="#B7BACE"/>
</svg>
