<svg width="22" height="22" viewBox="0 0 22 22" fill="none" xmlns="http://www.w3.org/2000/svg">
<path d="M14.702 19.5H7.29801C5.75187 19.5 4.45896 18.3249 4.31165 16.7858L3.68423 10.2304C3.57205 9.05837 4.15586 7.92904 5.17698 7.34284L9.5064 4.85744C10.4313 4.32645 11.5687 4.32645 12.4936 4.85744L16.823 7.34284C17.8441 7.92904 18.4279 9.05837 18.3158 10.2304L17.6883 16.7858C17.541 18.3249 16.2481 19.5 14.702 19.5Z" fill="#586BF9" fill-opacity="0.15"/>
<path fill-rule="evenodd" clip-rule="evenodd" d="M13.3114 0.601432C11.8791 -0.200478 10.1209 -0.200477 8.68861 0.601433L2.34744 4.15182C0.756354 5.04267 -0.153926 6.7647 0.0214704 8.55201L0.936102 17.8722C1.16583 20.2132 3.17322 22 5.57346 22H16.4265C18.8268 22 20.8342 20.2132 21.0639 17.8722L21.9785 8.55201C22.1539 6.7647 21.2436 5.04267 19.6526 4.15182L13.3114 0.601432ZM9.41853 1.853C10.3985 1.30432 11.6015 1.30432 12.5815 1.85299L18.9226 5.40339C20.0113 6.01291 20.6341 7.19115 20.5141 8.41404L19.5995 17.7342C19.4423 19.3359 18.0688 20.5585 16.4265 20.5585H15.5V14.7401C15.5 12.6745 13.8466 11 11.807 11H10.193C8.15342 11 6.5 12.6745 6.5 14.7401V20.5585H5.57346C3.93119 20.5585 2.55772 19.3359 2.40053 17.7342L1.4859 8.41404C1.36589 7.19114 1.98871 6.01291 3.07735 5.40339L9.41853 1.853ZM7.9772 20.5585H14.0228V14.7401C14.0228 13.5007 13.0307 12.496 11.807 12.496H10.193C8.96925 12.496 7.9772 13.5007 7.9772 14.7401V20.5585Z" fill="#586BF9"/>
</svg>
