<svg width="44" height="44" viewBox="0 0 44 44" fill="none" xmlns="http://www.w3.org/2000/svg">
<circle cx="22" cy="22" r="21.75" fill="url(#paint0_linear_43_25)" stroke="#C4C8EC" stroke-width="0.5"/>
<g filter="url(#filter0_d_43_25)">
<path d="M22.7845 28.6466C22.8886 28.6466 22.9946 28.6404 23.1012 28.6281C24.1236 28.5093 24.9917 27.8173 25.3122 26.8636C25.3363 26.7922 25.3014 26.7158 25.231 26.6844C25.1612 26.653 25.0768 26.6801 25.0374 26.7441C25.0336 26.7503 24.6275 27.3857 23.046 27.5925C22.8093 27.6233 22.5789 27.6393 22.3606 27.6393C21.2526 27.6387 20.7589 27.2342 20.7544 27.2305C20.6986 27.1825 20.6135 27.1813 20.5564 27.2281C20.4987 27.2749 20.4854 27.3561 20.5247 27.4183C21.007 28.1756 21.8726 28.6466 22.7845 28.6466ZM31.2877 19.1554C31.2738 19.1554 31.2611 19.1578 31.2478 19.1578C30.3212 15.273 26.7807 12.375 22.5358 12.375C18.1741 12.375 14.5524 15.433 13.7496 19.4786C12.969 19.6147 12.375 20.279 12.375 21.0824V24.2981C12.375 25.1994 13.1213 25.9302 14.0428 25.9302C14.5625 25.9302 15.0214 25.6926 15.3266 25.3275C16.064 27.2163 17.5654 28.7394 19.4654 29.5429C19.4699 29.5333 19.5059 29.4656 19.5491 29.4117C19.5791 29.3743 19.6125 29.3435 19.6413 29.3435C19.6712 29.3435 19.6985 29.354 19.7219 29.37C19.2821 29.0529 17.6937 27.4232 17.3498 25.149C17.1987 24.1479 17.9729 23.1653 18.8747 23.0027C20.3223 22.7417 21.7622 22.4443 23.2098 22.1882C24.13 22.0257 24.7589 21.5368 25.1434 20.7229C25.2335 20.5327 25.3637 20.1479 25.4233 19.5932C25.4392 19.5107 25.509 19.4472 25.5985 19.4472C25.6582 19.4472 25.7089 19.4768 25.7426 19.5193L25.7825 19.4953C26.353 20.2975 27.4846 22.0737 27.647 23.9466C27.8336 26.0879 27.7295 27.5544 26.037 29.0548C26.0351 29.0566 26.0326 29.0591 26.03 29.061C26.0065 29.0856 25.9926 29.1176 25.9926 29.1527C25.9926 29.1989 26.018 29.2383 26.0548 29.2623C26.0687 29.2678 26.0827 29.2752 26.0967 29.2807C26.1081 29.2832 26.1189 29.2869 26.1303 29.2869C26.1418 29.2869 26.1519 29.2832 26.1621 29.2807C26.1862 29.2684 26.209 29.2543 26.2325 29.2419C27.9441 28.3289 29.2571 26.8039 29.8638 24.9698C30.1093 25.3232 30.4939 25.5775 30.9407 25.6661C30.2242 28.8221 27.3177 30.7971 23.7169 31.097C23.5011 30.5786 22.9699 30.2104 22.3461 30.2104C21.5313 30.2104 20.8706 30.8353 20.8706 31.6055C20.8706 32.3757 21.5312 33 22.3461 33C23.0029 33 23.5532 32.5912 23.7442 32.0297C27.9123 31.7016 31.2535 29.3023 31.951 25.5744C32.5672 25.325 33 24.7395 33 24.0561V20.8023C32.9999 19.893 32.2333 19.1554 31.2877 19.1554ZM29.7501 20.09C28.663 17.2382 25.8459 15.2009 22.532 15.2009C19.232 15.2009 16.4251 17.221 15.3279 20.0543C15.2733 19.9896 15.2092 19.9342 15.1464 19.8782C15.7676 16.4255 18.836 13.8003 22.5358 13.8003C26.2178 13.8003 29.2767 16.3996 29.9183 19.8283C29.8548 19.9108 29.7964 19.997 29.7501 20.09ZM19.4655 29.543C19.4655 29.543 19.4654 29.5429 19.4653 29.5429C19.4646 29.5444 19.4646 29.5446 19.4655 29.543Z" fill="#586BF9"/>
</g>
<defs>
<filter id="filter0_d_43_25" x="7.375" y="10.375" width="30.625" height="30.625" filterUnits="userSpaceOnUse" color-interpolation-filters="sRGB">
<feFlood flood-opacity="0" result="BackgroundImageFix"/>
<feColorMatrix in="SourceAlpha" type="matrix" values="0 0 0 0 0 0 0 0 0 0 0 0 0 0 0 0 0 0 127 0" result="hardAlpha"/>
<feOffset dy="3"/>
<feGaussianBlur stdDeviation="2.5"/>
<feComposite in2="hardAlpha" operator="out"/>
<feColorMatrix type="matrix" values="0 0 0 0 0.0970439 0 0 0 0 0.419385 0 0 0 0 0.0502525 0 0 0 0.1 0"/>
<feBlend mode="normal" in2="BackgroundImageFix" result="effect1_dropShadow_43_25"/>
<feBlend mode="normal" in="SourceGraphic" in2="effect1_dropShadow_43_25" result="shape"/>
</filter>
<linearGradient id="paint0_linear_43_25" x1="24.8131" y1="41.5556" x2="24.8131" y2="2.44444" gradientUnits="userSpaceOnUse">
<stop stop-color="#F3F4FD"/>
<stop offset="0.411458" stop-color="#E6E8FD"/>
<stop offset="1" stop-color="white"/>
</linearGradient>
</defs>
</svg>
