<svg width="20" height="20" viewBox="0 0 20 20" fill="none" xmlns="http://www.w3.org/2000/svg">
<circle cx="10" cy="10" r="10" fill="url(#paint0_linear_41_19)"/>
<path fill-rule="evenodd" clip-rule="evenodd" d="M14.5567 5.50128H5.44279V7.76156H8.86052V9.14362C6.09163 9.27047 3.99976 9.85172 3.99976 10.5492C3.99976 11.2467 6.09163 11.828 8.86052 11.9548V16.5013H11.2909V11.9475C13.9841 11.8065 15.9998 11.2341 15.9998 10.5492C15.9998 9.86438 13.9841 9.29195 11.2909 9.15098V7.76156H14.5567V5.50128ZM4.60735 10.4739C4.60735 10.0039 6.42954 9.61127 8.86052 9.51621V11.0766H11.2909V9.52269C13.6455 9.62775 15.3922 10.0139 15.3922 10.4739C15.3922 11.0148 12.9779 11.4533 9.99976 11.4533C7.02164 11.4533 4.60735 11.0148 4.60735 10.4739Z" fill="white"/>
<defs>
<linearGradient id="paint0_linear_41_19" x1="4.75" y1="3" x2="13.75" y2="18.25" gradientUnits="userSpaceOnUse">
<stop stop-color="#59B69A"/>
<stop offset="1" stop-color="#27A17C"/>
</linearGradient>
</defs>
</svg>
