<svg width="14" height="14" viewBox="0 0 14 14" fill="none" xmlns="http://www.w3.org/2000/svg">
<path d="M11.7999 0C12.0888 -2.1545e-09 12.3749 0.0569072 12.6418 0.167473C12.9088 0.278038 13.1513 0.440096 13.3556 0.644394C13.5599 0.848692 13.722 1.09123 13.8325 1.35816C13.9431 1.62509 14 1.91118 14 2.2001V9.6999C14 9.98882 13.9431 10.2749 13.8325 10.5418C13.722 10.8088 13.5599 11.0513 13.3556 11.2556C13.1513 11.4599 12.9088 11.622 12.6418 11.7325C12.3749 11.8431 12.0888 11.9 11.7999 11.9H11.2V12.6C11.2 12.7839 11.1638 12.9659 11.0934 13.1358C11.0231 13.3056 10.92 13.4599 10.7899 13.5899C10.6599 13.72 10.5056 13.8231 10.3358 13.8934C10.1659 13.9638 9.98385 14 9.8 14H1.4C1.21615 14 1.0341 13.9638 0.864243 13.8934C0.694387 13.8231 0.540052 13.72 0.41005 13.5899C0.280048 13.4599 0.176925 13.3056 0.106569 13.1358C0.0362121 12.9659 -2.1545e-09 12.7839 0 12.6V4.2C0 4.01615 0.0362121 3.8341 0.106569 3.66424C0.176925 3.49439 0.280048 3.34005 0.41005 3.21005C0.540052 3.08005 0.694387 2.97692 0.864243 2.90657C1.0341 2.83621 1.21615 2.8 1.4 2.8H2.1V2.2001C2.09999 1.63816 2.31501 1.09752 2.70094 0.689069C3.08687 0.280619 3.61446 0.0353247 4.1755 0.0035L4.3001 0H11.7999ZM5.6 5.6C5.42855 5.60002 5.26306 5.66297 5.13494 5.7769C5.00681 5.89083 4.92496 6.04782 4.9049 6.2181L4.9 6.3V7.7H3.5C3.32158 7.7002 3.14998 7.76852 3.02024 7.89099C2.89051 8.01347 2.81244 8.18087 2.80198 8.35898C2.79152 8.53708 2.84947 8.71247 2.96399 8.84928C3.0785 8.9861 3.24093 9.07403 3.4181 9.0951L3.5 9.1H4.9V10.5C4.9002 10.6784 4.96852 10.85 5.09099 10.9798C5.21347 11.1095 5.38087 11.1876 5.55898 11.198C5.73708 11.2085 5.91247 11.1505 6.04928 11.036C6.1861 10.9215 6.27403 10.7591 6.2951 10.5819L6.3 10.5V9.1H7.7C7.87842 9.0998 8.05002 9.03148 8.17976 8.90901C8.30949 8.78653 8.38756 8.61913 8.39802 8.44102C8.40848 8.26291 8.35053 8.08753 8.23601 7.95072C8.1215 7.8139 7.95907 7.72597 7.7819 7.7049L7.7 7.7H6.3V6.3C6.3 6.11435 6.22625 5.9363 6.09497 5.80502C5.9637 5.67375 5.78565 5.6 5.6 5.6ZM11.7999 1.4H4.3001C3.8584 1.4 3.5 1.7584 3.5 2.2001V2.8H9.8C10.1713 2.8 10.5274 2.9475 10.7899 3.21005C11.0525 3.4726 11.2 3.8287 11.2 4.2V10.5H11.7999C12.2129 10.5 12.5517 10.1878 12.5951 9.7874L12.6 9.6999V2.2001C12.6 1.7584 12.2416 1.4 11.7999 1.4Z" fill="white" fill-opacity="0.6"/>
</svg>
