<svg width="80" height="80" viewBox="0 0 80 80" fill="none" xmlns="http://www.w3.org/2000/svg">
<circle cx="40" cy="40" r="34" fill="white"/>
<path fill-rule="evenodd" clip-rule="evenodd" d="M80 40C80 17.908 62.092 0 40 0C17.908 0 0 17.908 0 40C0 62.092 17.908 80 40 80C62.092 80 80 62.092 80 40ZM52.2586 22.4219C53.7125 20.9659 56.0697 20.9659 57.5237 22.4219C58.9776 23.8777 58.9776 26.2383 57.5237 27.6943L45.2642 39.9707L57.5754 52.2988C59.0293 53.7547 59.0293 56.1153 57.5754 57.5713C56.1214 59.0272 53.7642 59.0272 52.3102 57.5713L39.9991 45.2432L27.688 57.5713C26.2341 59.0272 23.8769 59.0272 22.4229 57.5713C20.969 56.1153 20.969 53.7547 22.4229 52.2988L34.734 39.9707L22.4746 27.6943C21.0206 26.2383 21.0206 23.8777 22.4746 22.4219C23.9285 20.9659 26.2858 20.9659 27.7397 22.4219L39.9991 34.6983L52.2586 22.4219Z" fill="#DF0000"/>
</svg>
