<svg width="16" height="16" viewBox="0 0 16 16" fill="none" xmlns="http://www.w3.org/2000/svg">
<path d="M16 8C16 12.4183 13.5 14 16 16C11.5 16 10.3894 16 8 16C3.58172 16 0 12.4183 0 8C0 3.58172 3.58172 0 8 0C12.4183 0 16 3.58172 16 8Z" fill="url(#paint0_linear_34_1737)"/>
<path d="M7.34298 9.43081C6.97107 7.68668 9.8843 7.22715 9.8843 6.03655C9.8843 5.31593 9.27686 4.79373 8.0124 4.79373C7.15702 4.79373 6.37603 5.10705 5.65702 5.73368L5 5.22193C5.81818 4.49086 6.78512 4 8.12397 4C9.8719 4 11 4.7624 11 5.96345C11 7.54047 8.03719 7.86423 8.3595 9.43081H7.34298ZM7.87603 12C7.42975 12 7.08264 11.7389 7.08264 11.3211C7.08264 10.9034 7.44215 10.6214 7.87603 10.6214C8.30992 10.6214 8.66942 10.9034 8.66942 11.3211C8.66942 11.7389 8.30992 12 7.87603 12Z" fill="white"/>
<defs>
<linearGradient id="paint0_linear_34_1737" x1="7.60937" y1="14.733" x2="7.94061" y2="-0.00133497" gradientUnits="userSpaceOnUse">
<stop stop-color="#586BF9"/>
<stop offset="0.448762" stop-color="#3870FF"/>
<stop offset="1" stop-color="#73B9FF"/>
</linearGradient>
</defs>
</svg>
