<svg width="18" height="21" viewBox="0 0 18 21" fill="none" xmlns="http://www.w3.org/2000/svg">
<path d="M5.66477 7.22538C5.5292 7.1562 5.37374 7.14798 5.23256 7.20252C5.09138 7.25707 4.97603 7.36992 4.91189 7.51626C4.62358 8.17015 4.47483 8.88556 4.47658 9.60977V12.6624C4.47658 12.8243 4.53614 12.9796 4.64217 13.0941C4.74819 13.2086 4.892 13.2729 5.04194 13.2729C5.19188 13.2729 5.33569 13.2086 5.44171 13.0941C5.54774 12.9796 5.6073 12.8243 5.6073 12.6624V9.60977C5.606 9.06689 5.71747 8.5306 5.93352 8.04039L5.9346 8.03829C5.99864 7.89186 6.00619 7.72395 5.95559 7.5715C5.90499 7.41906 5.80038 7.29456 5.66477 7.22538ZM7.70694 4.92893C7.24501 5.07727 6.80817 5.3048 6.41311 5.60282C6.31447 5.67724 6.24038 5.7837 6.20163 5.90671C6.16287 6.02971 6.16145 6.16287 6.19759 6.2868C6.23374 6.41073 6.30554 6.51899 6.40258 6.59583C6.49962 6.67268 6.61683 6.7141 6.73717 6.71407C6.85308 6.71433 6.96624 6.67596 7.06122 6.60421C7.35705 6.38078 7.68429 6.21026 8.03035 6.0992L8.03705 6.09687C8.18049 6.0496 8.30066 5.94275 8.37114 5.79981C8.44161 5.65688 8.45661 5.48957 8.41284 5.33469C8.36906 5.17981 8.2701 5.05005 8.13772 4.97396C8.00534 4.89786 7.85039 4.88167 7.70694 4.92893Z" fill="white"/>
<path fill-rule="evenodd" clip-rule="evenodd" d="M9.12399 0.502858C8.03452 0.451269 6.98549 1.10115 6.49583 2.19702C5.08912 2.75243 3.87439 3.76104 3.01601 5.08637C2.15764 6.4117 1.69707 7.98976 1.69662 9.607V13.3958L0.551639 14.6321C0.288235 14.9166 0.108858 15.2789 0.0361876 15.6734C-0.0364823 16.0679 0.000819082 16.4768 0.143375 16.8485C0.285932 17.2201 0.527341 17.5377 0.837077 17.7612C1.14681 17.9847 1.51097 18.104 1.88349 18.104H6.09055C6.09204 18.241 6.11908 18.3764 6.17005 18.5019C6.41086 19.0959 6.8068 19.6013 7.30942 19.9561C7.81205 20.311 8.39957 20.5 9.00011 20.5C9.60065 20.5 10.1882 20.311 10.6908 19.9561C11.1934 19.6013 11.5894 19.0959 11.8302 18.5019C11.8812 18.3763 11.9081 18.2407 11.9092 18.1035H16.1165C16.489 18.1035 16.8532 17.9842 17.1629 17.7607C17.4727 17.5372 17.7141 17.2196 17.8566 16.848C17.9992 16.4764 18.0365 16.0675 17.9638 15.673C17.8911 15.2785 17.7118 14.9161 17.4484 14.6317L16.3034 13.3954V9.6077C16.3034 9.5858 16.3033 9.56392 16.3032 9.54204C15.9717 9.67995 15.6252 9.78898 15.2668 9.86601V13.86L16.7143 15.4229C16.8731 15.5943 16.9624 15.8268 16.9626 16.0693C16.9628 16.3118 16.8738 16.5444 16.7151 16.7161C16.6367 16.8012 16.5434 16.8686 16.4406 16.9146C16.3379 16.9605 16.2277 16.9841 16.1165 16.9839H1.88371C1.71618 16.9839 1.5524 16.9303 1.41309 16.8299C1.27378 16.7294 1.1652 16.5866 1.10111 16.4194C1.03702 16.2523 1.02029 16.0684 1.05303 15.891C1.08578 15.7136 1.16654 15.5507 1.28508 15.4229L2.73359 13.86V9.60723C2.73223 8.1815 3.1484 6.79181 3.9226 5.63686C4.6968 4.4819 5.78938 3.62081 7.04413 3.17671L7.28026 3.09297L7.36667 2.84152C7.49127 2.48262 7.71435 2.17333 8.0061 1.955C8.1436 1.8521 8.29326 1.77171 8.45024 1.71547C8.62819 1.28364 8.85508 0.877138 9.12399 0.502858ZM7.03743 18.1907C7.04993 18.1909 7.06231 18.1881 7.07373 18.1826C7.09553 18.1721 7.11267 18.1529 7.12147 18.1289C7.12434 18.1208 7.12615 18.1122 7.12687 18.1035H7.03743V18.1907ZM7.8981 19.0357C8.22743 19.2623 8.6098 19.3828 9.00032 19.3829C9.39081 19.3827 9.77314 19.2622 10.1024 19.0356C10.4317 18.809 10.6943 18.4856 10.8593 18.1035H7.14113C7.30618 18.4857 7.56878 18.809 7.8981 19.0357ZM10.9025 18.1658C10.919 18.182 10.9405 18.1909 10.9628 18.1907V18.1035H10.8736C10.8757 18.1274 10.886 18.1497 10.9025 18.1658Z" fill="white"/>
<circle cx="14" cy="4" r="4" fill="#FFC700"/>
</svg>
