<svg width="26" height="26" viewBox="0 0 26 26" fill="none" xmlns="http://www.w3.org/2000/svg">
<circle cx="13" cy="11" r="11" fill="url(#paint0_linear_34_1703)"/>
<g filter="url(#filter0_d_34_1703)">
<path d="M8 9.37486C8 9.18218 8.06553 9.01915 8.1966 8.88576C8.32767 8.75236 8.4853 8.68567 8.6695 8.68567V8.68567C9.03926 8.68567 9.339 8.98541 9.339 9.35517V11.1398C9.339 11.5095 9.03926 11.8093 8.6695 11.8093V11.8093C8.4853 11.8093 8.32767 11.7426 8.1966 11.6092C8.06553 11.4758 8 11.3128 8 11.1201V9.37486ZM15.4389 6.50693C15.7435 6.20309 16.0198 6.03635 16.2678 6.00671C16.5158 5.97707 16.7354 6.04562 16.9267 6.21236C17.118 6.3791 17.2809 6.62365 17.4155 6.94601C17.5501 7.26838 17.6599 7.6278 17.745 8.02427C17.83 8.42074 17.8937 8.83574 17.9362 9.26926C17.9787 9.70278 18 10.1159 18 10.5087C18 10.9015 17.9734 11.2942 17.9203 11.687C17.8672 12.0798 17.7892 12.4484 17.6865 12.793C17.5838 13.1376 17.4633 13.4396 17.3252 13.699C17.187 13.9584 17.0329 14.151 16.8629 14.277C16.6929 14.403 16.5104 14.4475 16.3156 14.4104C16.1208 14.3734 15.9171 14.2289 15.7046 13.9769C15.4991 13.7249 15.221 13.5156 14.8704 13.3488C14.5197 13.1821 14.1371 13.0413 13.7226 12.9264C13.3082 12.8116 12.8884 12.7189 12.4633 12.6485C12.0383 12.5781 11.6486 12.5151 11.2944 12.4596C10.9401 12.404 10.6444 12.3502 10.407 12.2984V12.2984C10.1141 12.2343 10.0085 11.9557 10.0085 11.6559V9.06721C10.0085 8.7771 10.0688 8.46838 10.3433 8.37442V8.37442C10.5381 8.30772 10.786 8.24473 11.0871 8.18545C11.3882 8.12616 11.7283 8.06132 12.1073 7.99092C12.4864 7.92052 12.8725 7.82418 13.2657 7.7019C13.6589 7.57963 14.0432 7.424 14.4187 7.23503C14.7942 7.04606 15.1343 6.80336 15.4389 6.50693ZM11.3794 13.2321C11.5305 13.2848 11.6453 13.4054 11.7127 13.5505C11.7217 13.5701 11.7311 13.5899 11.7407 13.6101C11.7832 13.7064 11.8399 13.8176 11.9107 13.9435C11.9816 14.0695 12.0666 14.2066 12.1658 14.3548C12.2862 14.5327 12.4084 14.7198 12.5324 14.9162C12.6564 15.1126 12.7503 15.2904 12.814 15.4498C12.8778 15.6091 12.8973 15.7406 12.8725 15.8444C12.8477 15.9481 12.7467 16 12.5696 16H11.9639C11.8222 16 11.6911 15.9722 11.5707 15.9166C11.4502 15.8611 11.3351 15.7758 11.2253 15.661C11.1155 15.5461 11.0021 15.3997 10.8852 15.2219C10.7683 15.044 10.6426 14.8328 10.508 14.5883C10.345 14.3067 10.2317 14.0603 10.1679 13.8491C10.1041 13.6378 10.0616 13.4618 10.0404 13.321C10.0269 13.2437 10.0199 13.1713 10.0192 13.104C10.018 12.9863 10.1292 12.9108 10.2423 12.9431V12.9431C10.3061 12.9579 10.384 12.9764 10.4761 12.9987C10.5682 13.0209 10.6745 13.0431 10.7949 13.0654C10.9153 13.095 11.0234 13.1228 11.119 13.1487C11.2147 13.1747 11.3015 13.2025 11.3794 13.2321V13.2321Z" fill="url(#paint1_linear_34_1703)"/>
<path d="M15.7876 6.86528L15.7876 6.86531L15.792 6.86095C16.069 6.58462 16.2458 6.51291 16.3272 6.50318C16.4322 6.49062 16.5115 6.51372 16.5981 6.58927C16.714 6.69029 16.8386 6.86192 16.9541 7.13868C17.0752 7.42858 17.1765 7.75802 17.2561 8.1291C17.3368 8.50577 17.3978 8.90198 17.4386 9.31805C17.4797 9.73708 17.5 10.1339 17.5 10.5087C17.5 10.8788 17.475 11.2492 17.4248 11.62C17.3748 11.9896 17.302 12.3328 17.2073 12.6502C17.1121 12.9697 17.0034 13.2396 16.8839 13.4639C16.7679 13.6817 16.6571 13.8072 16.5652 13.8753C16.4989 13.9244 16.4567 13.9283 16.409 13.9192C16.3806 13.9138 16.2713 13.8725 16.0891 13.6573C15.829 13.3395 15.4883 13.089 15.085 12.8973C14.7056 12.7169 14.2956 12.5664 13.8562 12.4446C13.4246 12.325 12.9876 12.2285 12.545 12.1552C12.1188 12.0847 11.7277 12.0214 11.3719 11.9656C11.0322 11.9123 10.7527 11.8616 10.5311 11.8137C10.5275 11.8044 10.523 11.7907 10.519 11.7715C10.5127 11.7411 10.5085 11.7023 10.5085 11.6559V9.06721C10.5085 9.0111 10.5115 8.96141 10.5174 8.9189C10.5227 8.88102 10.5296 8.85447 10.5356 8.83725C10.6981 8.78376 10.9125 8.72944 11.1837 8.67603C11.4827 8.61716 11.821 8.55266 12.1986 8.48251C12.5982 8.40829 13.0034 8.30707 13.4142 8.17935C13.8341 8.04875 14.244 7.88272 14.6435 7.68166C15.065 7.46949 15.4468 7.19688 15.7876 6.86528ZM10.1969 13.1021L10.2423 12.9431L10.2053 13.1021L10.1592 13.3004L10.1586 13.3032L10.1292 13.4297C10.1211 13.4281 10.113 13.4262 10.1051 13.4239L10.1387 13.3062L10.1394 13.3038L10.1969 13.1021ZM10.6466 13.7045C10.6284 13.6443 10.6125 13.5885 10.5987 13.5369C10.6282 13.5428 10.6584 13.5486 10.6894 13.5543C10.8012 13.5819 10.9007 13.6076 10.9882 13.6313C11.0708 13.6537 11.1416 13.6766 11.2016 13.6994L11.3794 13.2321L11.2148 13.7042C11.2149 13.7043 11.2159 13.7046 11.2178 13.7058C11.2198 13.7071 11.2231 13.7095 11.2275 13.7138C11.2366 13.7227 11.2485 13.7382 11.2592 13.7611C11.268 13.7803 11.2771 13.7996 11.2864 13.819C11.3368 13.9325 11.4004 14.0561 11.4749 14.1886C11.5534 14.3281 11.6455 14.4763 11.7502 14.6329L11.7518 14.6352C11.869 14.8083 11.9883 14.9909 12.1096 15.1831C12.1841 15.3011 12.2433 15.4065 12.2892 15.5H11.9639C11.8895 15.5 11.8305 15.4859 11.7802 15.4626C11.7268 15.438 11.6615 15.3937 11.5867 15.3154C11.5035 15.2284 11.4085 15.1077 11.3031 14.9473C11.1951 14.7831 11.0761 14.5836 10.946 14.3472L10.9461 14.3471L10.9407 14.3378C10.7889 14.0755 10.6953 13.8658 10.6466 13.7045ZM8.5 9.37486C8.5 9.30884 8.51712 9.27296 8.55325 9.23619C8.59192 9.19683 8.62172 9.18567 8.6695 9.18567C8.76311 9.18567 8.839 9.26156 8.839 9.35517V11.1398C8.839 11.2334 8.76311 11.3093 8.6695 11.3093C8.62171 11.3093 8.59192 11.2981 8.55325 11.2587C8.51712 11.222 8.5 11.1861 8.5 11.1201V9.37486Z" stroke="white"/>
</g>
<defs>
<filter id="filter0_d_34_1703" x="0.5" y="0.5" width="25" height="25" filterUnits="userSpaceOnUse" color-interpolation-filters="sRGB">
<feFlood flood-opacity="0" result="BackgroundImageFix"/>
<feColorMatrix in="SourceAlpha" type="matrix" values="0 0 0 0 0 0 0 0 0 0 0 0 0 0 0 0 0 0 127 0" result="hardAlpha"/>
<feOffset dy="2"/>
<feGaussianBlur stdDeviation="3.75"/>
<feComposite in2="hardAlpha" operator="out"/>
<feColorMatrix type="matrix" values="0 0 0 0 0 0 0 0 0 0.108343 0 0 0 0 0.225505 0 0 0 0.15 0"/>
<feBlend mode="normal" in2="BackgroundImageFix" result="effect1_dropShadow_34_1703"/>
<feBlend mode="normal" in="SourceGraphic" in2="effect1_dropShadow_34_1703" result="shape"/>
</filter>
<linearGradient id="paint0_linear_34_1703" x1="12.4629" y1="20.2579" x2="12.9183" y2="-0.00183558" gradientUnits="userSpaceOnUse">
<stop stop-color="#586BF9"/>
<stop offset="0.448762" stop-color="#3870FF"/>
<stop offset="1" stop-color="#73B9FF"/>
</linearGradient>
<linearGradient id="paint1_linear_34_1703" x1="13.3643" y1="16" x2="13.3643" y2="6" gradientUnits="userSpaceOnUse">
<stop stop-color="#FAFBFF"/>
<stop offset="1" stop-color="white"/>
</linearGradient>
</defs>
</svg>
