<svg width="30" height="30" viewBox="0 0 30 30" fill="none" xmlns="http://www.w3.org/2000/svg">
<rect width="30" height="30" rx="15" fill="url(#paint0_linear_34_1728)"/>
<path d="M12.5829 10.2515C12.4214 10.4132 12.2024 10.5041 11.9739 10.5044C11.7453 10.5044 11.526 10.4135 11.3643 10.2519C11.2026 10.0902 11.1118 9.87092 11.1118 9.64228V7.89098C11.1079 7.7754 11.1274 7.66023 11.1689 7.55231C11.2105 7.44439 11.2733 7.34593 11.3537 7.2628C11.4341 7.17967 11.5304 7.11356 11.6368 7.06842C11.7433 7.02327 11.8578 7 11.9734 7C12.0891 7 12.2035 7.02327 12.31 7.06842C12.4165 7.11356 12.5127 7.17967 12.5931 7.2628C12.6735 7.34593 12.7364 7.44439 12.7779 7.55231C12.8195 7.66023 12.8389 7.7754 12.835 7.89098V9.64228C12.835 9.87075 12.7443 10.0899 12.5829 10.2515Z" fill="url(#paint1_linear_34_1728)"/>
<path d="M18.353 10.2515C18.1916 10.4132 17.9725 10.5041 17.7441 10.5044C17.5154 10.5044 17.2962 10.4135 17.1345 10.2519C16.9728 10.0902 16.882 9.87092 16.882 9.64228V7.89098C16.8781 7.7754 16.8975 7.66023 16.9391 7.55231C16.9806 7.44439 17.0435 7.34593 17.1239 7.2628C17.2043 7.17967 17.3006 7.11356 17.407 7.06842C17.5135 7.02327 17.6279 7 17.7436 7C17.8592 7 17.9737 7.02327 18.0802 7.06842C18.1866 7.11356 18.2829 7.17967 18.3633 7.2628C18.4437 7.34593 18.5065 7.44439 18.5481 7.55231C18.5896 7.66023 18.6091 7.7754 18.6052 7.89098V9.64228C18.6052 9.87075 18.5145 10.0899 18.353 10.2515Z" fill="url(#paint2_linear_34_1728)"/>
<path fill-rule="evenodd" clip-rule="evenodd" d="M19.3137 9.6175V8.58687C19.9414 8.62299 20.5315 8.89787 20.9631 9.35515C21.3946 9.81244 21.6348 10.4175 21.6345 11.0462V20.5389C21.6347 20.8623 21.5711 21.1826 21.4474 21.4815C21.3237 21.7803 21.1424 22.0519 20.9137 22.2806C20.685 22.5094 20.4136 22.6908 20.1148 22.8146C19.816 22.9384 19.4957 23.0021 19.1723 23.0021H10.4632C10.1397 23.0023 9.8192 22.9386 9.52023 22.8148C9.22125 22.691 8.94961 22.5095 8.72084 22.2806C8.49207 22.0517 8.31065 21.78 8.18697 21.481C8.06328 21.182 7.99975 20.8615 8 20.5379V11.0453C7.99986 10.4015 8.25198 9.78321 8.70231 9.3231C9.15264 8.86299 9.76533 8.59765 10.409 8.58397V9.6175C10.409 10.3934 11.1103 11.023 11.9743 11.023C12.8383 11.023 13.5387 10.3924 13.5387 9.6175V8.58203H16.1879V9.6175C16.1879 10.3934 16.8843 11.023 17.7484 11.023C18.6124 11.023 19.3137 10.3924 19.3137 9.6175ZM16.1559 12.9293H11.0919C10.8931 12.9293 10.7024 13.0083 10.5618 13.1489C10.4212 13.2895 10.3422 13.4802 10.3422 13.679C10.3422 13.8778 10.4212 14.0685 10.5618 14.2091C10.7024 14.3497 10.8931 14.4287 11.0919 14.4287H16.1559C16.2544 14.4287 16.3519 14.4093 16.4428 14.3717C16.5338 14.334 16.6164 14.2788 16.6861 14.2091C16.7557 14.1395 16.8109 14.0569 16.8486 13.9659C16.8863 13.8749 16.9057 13.7775 16.9057 13.679C16.9057 13.5805 16.8863 13.4831 16.8486 13.3921C16.8109 13.3011 16.7557 13.2185 16.6861 13.1489C16.6164 13.0792 16.5338 13.024 16.4428 12.9863C16.3519 12.9487 16.2544 12.9293 16.1559 12.9293ZM11.0967 20.5554H18.7538C18.9527 20.5554 19.1433 20.4764 19.2839 20.3358C19.4245 20.1952 19.5035 20.0045 19.5035 19.8056C19.5035 19.6068 19.4245 19.4161 19.2839 19.2755C19.1433 19.1349 18.9527 19.0559 18.7538 19.0559H11.0967C10.8979 19.0559 10.7072 19.1349 10.5666 19.2755C10.426 19.4161 10.347 19.6068 10.347 19.8056C10.347 20.0045 10.426 20.1952 10.5666 20.3358C10.7072 20.4764 10.8979 20.5554 11.0967 20.5554ZM11.0967 17.4925H18.7538C18.8523 17.4925 18.9498 17.4731 19.0407 17.4355C19.1317 17.3978 19.2143 17.3426 19.2839 17.2729C19.3536 17.2033 19.4088 17.1207 19.4465 17.0297C19.4841 16.9387 19.5035 16.8413 19.5035 16.7428C19.5035 16.6443 19.4841 16.5469 19.4465 16.4559C19.4088 16.3649 19.3536 16.2823 19.2839 16.2127C19.2143 16.143 19.1317 16.0878 19.0407 16.0501C18.9498 16.0125 18.8523 15.9931 18.7538 15.9931H11.0967C10.9983 15.9931 10.9008 16.0125 10.8098 16.0501C10.7189 16.0878 10.6362 16.143 10.5666 16.2127C10.497 16.2823 10.4418 16.3649 10.4041 16.4559C10.3664 16.5469 10.347 16.6443 10.347 16.7428C10.347 16.8413 10.3664 16.9387 10.4041 17.0297C10.4418 17.1207 10.497 17.2033 10.5666 17.2729C10.6362 17.3426 10.7189 17.3978 10.8098 17.4355C10.9008 17.4731 10.9983 17.4925 11.0967 17.4925Z" fill="url(#paint3_linear_34_1728)"/>
<defs>
<linearGradient id="paint0_linear_34_1728" x1="21.3158" y1="3.94737" x2="7.89474" y2="26.4474" gradientUnits="userSpaceOnUse">
<stop stop-color="#F4A33D"/>
<stop offset="0.1" stop-color="#ED9220"/>
<stop offset="1" stop-color="#FED349"/>
</linearGradient>
<linearGradient id="paint1_linear_34_1728" x1="9.19302" y1="7" x2="20.7755" y2="19.7594" gradientUnits="userSpaceOnUse">
<stop stop-color="white"/>
<stop offset="0.7" stop-color="white" stop-opacity="0.74"/>
<stop offset="1" stop-color="#FFFEFB" stop-opacity="0.86"/>
</linearGradient>
<linearGradient id="paint2_linear_34_1728" x1="9.19302" y1="7" x2="20.7755" y2="19.7594" gradientUnits="userSpaceOnUse">
<stop stop-color="white"/>
<stop offset="0.7" stop-color="white" stop-opacity="0.74"/>
<stop offset="1" stop-color="#FFFEFB" stop-opacity="0.86"/>
</linearGradient>
<linearGradient id="paint3_linear_34_1728" x1="9.19302" y1="7" x2="20.7755" y2="19.7594" gradientUnits="userSpaceOnUse">
<stop stop-color="white"/>
<stop offset="0.7" stop-color="white" stop-opacity="0.74"/>
<stop offset="1" stop-color="#FFFEFB" stop-opacity="0.86"/>
</linearGradient>
</defs>
</svg>
