<svg width="30" height="30" viewBox="0 0 30 30" fill="none" xmlns="http://www.w3.org/2000/svg">
<rect width="30" height="30" rx="15" fill="url(#paint0_linear_34_1723)"/>
<path d="M21.6746 20.686C21.4679 20.9917 21.2157 21.2641 20.9267 21.4936C20.3968 21.9058 19.7948 22.1801 19.1599 22.3934C18.6204 22.5763 18.0657 22.711 17.5021 22.7944C17.1727 22.8393 16.8432 22.889 16.5121 22.9227C16.2268 22.9516 15.9406 22.97 15.6536 22.9805C15.2881 22.9941 14.9209 23.0053 14.5562 22.9973C14.2099 22.9885 13.8628 22.9564 13.5165 22.9251C13.2471 22.9011 12.977 22.877 12.7116 22.8289C12.2638 22.7484 11.8182 22.6559 11.3753 22.5514C10.8745 22.4289 10.3889 22.2508 9.92759 22.0205C9.54665 21.8404 9.19419 21.6053 8.88146 21.3228C8.44217 20.9178 8.14397 20.4246 7.89867 19.8912C7.68384 19.4218 7.51653 18.932 7.39926 18.4292C7.31028 18.0523 7.23573 17.6721 7.1756 17.2896C7.12189 16.9488 7.08983 16.6039 7.05776 16.2607C7.03801 16.0328 7.02518 15.8044 7.01929 15.5758C7.00887 15.2806 6.99524 14.9855 7.00165 14.6912C7.00967 14.3223 7.0257 13.9517 7.06017 13.5844C7.1243 12.8386 7.25256 12.0984 7.44495 11.3742C7.5692 10.909 7.73354 10.4543 7.93635 10.0172C8.1095 9.6507 8.31552 9.30344 8.57123 8.99067C8.83737 8.66506 9.16684 8.40762 9.52757 8.19109C10.0011 7.91461 10.5063 7.69648 11.0322 7.54148C11.5364 7.3859 12.0495 7.26079 12.5746 7.18781C12.8639 7.14771 13.1533 7.106 13.4451 7.07633C13.7169 7.04906 13.9902 7.02821 14.2652 7.02019C14.7149 7.00656 15.1646 6.99292 15.6143 7.00415C15.9895 7.01458 16.3638 7.06029 16.7382 7.09317C17.3747 7.15332 18.0056 7.26881 18.6236 7.43642C19.0453 7.5479 19.4581 7.68985 19.8581 7.86789C20.1964 8.02187 20.5203 8.19831 20.8201 8.41645C21.2321 8.71879 21.5576 9.09011 21.8141 9.52639C22.0947 10.0044 22.3111 10.5064 22.4618 11.0341C22.5821 11.4568 22.6782 11.8866 22.7696 12.3173C22.8354 12.6389 22.8795 12.9669 22.9219 13.2933C22.946 13.4754 22.958 13.6598 22.9636 13.8443C22.9797 14.4121 23.0029 14.9807 22.9997 15.5485C22.9981 15.8885 22.9524 16.227 22.9284 16.567L22.9276 16.6239C22.926 16.7731 22.9252 16.7763 22.7841 16.7459C22.1526 16.6116 21.5363 16.4141 20.9443 16.1564C20.2742 15.8621 19.616 15.5389 18.9547 15.2261C18.7174 15.1114 18.4689 15.0272 18.2068 15.0336C17.969 15.0439 17.7327 15.0772 17.5013 15.1331C16.9322 15.259 16.3711 15.4114 15.8011 15.5325C15.2183 15.6552 14.6331 15.7554 14.0455 15.8589C13.8115 15.8998 13.5742 15.9246 13.3377 15.9535C13.2287 15.9663 13.1718 16.0345 13.1533 16.1837C13.0908 16.6873 13.4644 17.1533 13.9197 17.2912C14.076 17.3385 14.2459 17.3489 14.4095 17.3546C14.6933 17.3634 14.977 17.3658 15.2592 17.3546C15.6007 17.3393 15.9406 17.3088 16.2813 17.2824C16.4961 17.2655 16.7125 17.2447 16.9282 17.2238L17.2985 17.1877C17.5286 17.1597 17.5478 17.3016 17.5021 17.4733C17.4468 17.681 17.2985 17.8229 17.1254 17.9392C16.7358 18.2047 16.2941 18.3627 15.8452 18.5038C15.5839 18.5864 15.3193 18.6762 15.0492 18.7131C14.7542 18.7444 14.456 18.75 14.1602 18.73C13.9341 18.7203 13.7081 18.6706 13.482 18.6401C13.1819 18.5925 12.8931 18.4903 12.6299 18.3386C12.286 18.1541 11.9349 17.9817 11.5773 17.8309C11.1193 17.6402 10.6563 17.4616 10.1889 17.2952C9.94615 17.1999 9.68814 17.1494 9.42737 17.146C8.93036 17.1557 8.68827 17.4837 8.71232 17.9159C8.71312 17.948 8.7508 17.9849 8.78206 18.0042C9.30633 18.3386 9.82979 18.6762 10.3589 19.0026C10.8984 19.3355 11.4491 19.6538 11.9902 19.9859C12.2427 20.1407 12.4856 20.3131 12.7357 20.4719C13.1269 20.7205 13.5197 20.9699 13.9726 21.103C14.2275 21.1784 14.4856 21.2057 14.7462 21.1576C15.5117 21.0156 16.2757 20.8689 17.0396 20.7229C17.4909 20.6371 17.939 20.5408 18.3912 20.4606C18.7439 20.3989 19.1014 20.3612 19.4541 20.3027C19.8068 20.2441 20.1451 20.3283 20.4826 20.4021C20.8594 20.4839 21.2337 20.5761 21.6081 20.6643C21.6289 20.6668 21.6482 20.6764 21.6746 20.686ZM13.5686 12.5106C12.6042 12.5106 11.6391 12.509 10.6731 12.5114C10.5942 12.5131 10.5158 12.5247 10.4398 12.5459C10.0069 12.6678 9.85143 13.1473 10.0086 13.5235C10.1344 13.825 10.3853 13.9477 10.7052 13.9485H16.0135C16.2027 13.9485 16.3911 13.9421 16.5803 13.9285C16.6621 13.9215 16.7415 13.8976 16.8137 13.8584C16.8858 13.8192 16.9491 13.7655 16.9995 13.7007C17.0664 13.6206 17.115 13.5268 17.142 13.426C17.1689 13.3252 17.1737 13.2197 17.1558 13.1169C17.1363 12.9404 17.0493 12.7783 16.913 12.6646C16.7752 12.555 16.6022 12.4994 16.4264 12.5082C15.474 12.5106 14.5217 12.5106 13.5686 12.5106ZM13.5598 9.61862L10.6923 9.62022C10.6202 9.61942 10.5464 9.62824 10.4759 9.64428C10.0061 9.76298 9.85303 10.2498 10.011 10.6355C10.1344 10.9363 10.3861 11.0566 10.7004 11.0566C12.5257 11.0598 14.3502 11.059 16.1755 11.0574C16.3053 11.0574 16.4368 11.051 16.5675 11.0397C16.6716 11.0315 16.772 10.9973 16.8595 10.9403C16.947 10.8833 17.0189 10.8053 17.0685 10.7133C17.1525 10.5664 17.1833 10.3951 17.1558 10.2281C17.1461 10.1362 17.1176 10.0473 17.0721 9.9669C17.0266 9.88647 16.965 9.81625 16.8913 9.76057C16.7574 9.66216 16.594 9.61212 16.428 9.61862H13.5598Z" fill="url(#paint1_linear_34_1723)"/>
<defs>
<linearGradient id="paint0_linear_34_1723" x1="15" y1="0" x2="15" y2="30" gradientUnits="userSpaceOnUse">
<stop stop-color="#F8A7FF"/>
<stop offset="0.65625" stop-color="#832FED"/>
<stop offset="1" stop-color="#D185FF"/>
</linearGradient>
<linearGradient id="paint1_linear_34_1723" x1="8.4" y1="7" x2="19.6616" y2="21.5601" gradientUnits="userSpaceOnUse">
<stop stop-color="white"/>
<stop offset="0.7" stop-color="white" stop-opacity="0.74"/>
<stop offset="1" stop-color="#FFFEFB" stop-opacity="0.86"/>
</linearGradient>
</defs>
</svg>
