<svg width="20" height="22" viewBox="0 0 20 22" fill="none" xmlns="http://www.w3.org/2000/svg">
<path fill-rule="evenodd" clip-rule="evenodd" d="M10.5639 0.133431L10.564 0.133488L10.5644 0.133714H10.5639L10.5643 0.133935L10.5644 0.133991L10.8858 0.293743L10.9639 0.332535C12.1629 0.918418 13.4202 1.41257 14.7211 1.80922C16.0983 2.22821 17.5817 2.61779 19.1711 2.97652C19.4074 3.03039 19.6163 3.14932 19.7655 3.31489C19.9146 3.48046 19.9957 3.68342 19.9961 3.89233L20 11.8747C20 18.3333 10.0006 22 10.0006 22C10.0006 22 0 18.549 0 11.8747V3.89612C0 3.46527 0.338889 3.0885 0.825556 2.97699C2.32752 2.64173 3.81219 2.25228 5.27556 1.80969C6.72007 1.36938 8.11014 0.808314 9.42556 0.134663C9.59761 0.0467019 9.79433 0.000168347 9.99485 4.44425e-07C10.0769 -6.73819e-05 10.1583 0.00762881 10.2377 0.0227534C10.3521 0.0445514 10.4623 0.0817791 10.5639 0.133431ZM9.89635 1.47647L9.9095 1.42047L9.88403 1.47051L9.89635 1.47647ZM10.2962 1.67576L9.99691 1.52698C8.63421 2.2165 7.19956 2.79136 5.71292 3.24451L5.7098 3.24546L5.7098 3.24546C4.32379 3.66465 2.91945 4.03722 1.5 4.36235V11.8747C1.5 14.4218 3.43032 16.5617 5.84271 18.1991C7.00322 18.9869 8.17415 19.5873 9.06067 19.9919C9.42952 20.1602 9.74553 20.2929 9.98637 20.3897C10.2288 20.2876 10.5476 20.1476 10.9201 19.9709C11.8093 19.5492 12.984 18.9277 14.1487 18.1245C16.5819 16.4465 18.4996 14.3076 18.5 11.8754V11.8753V11.8747L18.4963 4.3611C17.0041 4.01692 15.5999 3.64445 14.2845 3.24427L14.2837 3.24401C12.9083 2.82467 11.577 2.30161 10.3053 1.68024L10.2962 1.67579L10.2962 1.67576ZM11.0722 8.49091H14V7H6V8.49091H8.96907V15H11.0722V8.49091Z" fill="black"/>
</svg>
