<svg width="20" height="15" viewBox="0 0 20 15" fill="none" xmlns="http://www.w3.org/2000/svg">
<path fill-rule="evenodd" clip-rule="evenodd" d="M5.87132 7.5C5.87132 5.2638 7.67877 3.45092 9.90825 3.45092C12.1377 3.45092 13.9452 5.2638 13.9452 7.5C13.9452 9.7362 12.1377 11.5491 9.90825 11.5491C7.67877 11.5491 5.87132 9.7362 5.87132 7.5ZM7.3393 7.5C7.3393 8.92408 8.48845 10.0767 9.90825 10.0767C11.3281 10.0767 12.4772 8.92408 12.4772 7.5C12.4772 6.07592 11.3281 4.92331 9.90825 4.92331C8.48845 4.92331 7.3393 6.07592 7.3393 7.5Z" fill="#666666"/>
<path fill-rule="evenodd" clip-rule="evenodd" d="M10 0C14.4062 0 17.6931 2.31212 19.8675 6.90644C20.0442 7.28604 20.0442 7.71856 19.8675 8.09126C17.6931 12.6879 14.4085 15 10 15C5.59378 15 2.3069 12.6879 0.132462 8.09356C-0.0441539 7.71856 -0.0441539 7.28144 0.132462 6.90874C2.3069 2.31212 5.59149 0 10 0ZM1.68072 7.5C3.59138 11.4617 6.30025 13.3436 10 13.3436C13.702 13.3436 16.4109 11.4617 18.3193 7.5C16.4086 3.53834 13.6998 1.65644 10 1.65644C6.30025 1.65644 3.59138 3.53834 1.68072 7.5Z" fill="#666666"/>
</svg>
