<svg width="20" height="18" viewBox="0 0 20 18" fill="none" xmlns="http://www.w3.org/2000/svg">
<path d="M19.87 8.79978L19.8673 8.79721L19.8647 8.79464C19.029 7.00501 18.0301 5.55737 16.8667 4.45299L15.7046 5.63837C16.7062 6.57689 17.5737 7.82654 18.3206 9.39504C16.4104 13.4166 13.7016 15.327 9.99917 15.327C8.82252 15.327 7.74404 15.1329 6.76107 14.7408L5.50616 16.0174C6.84862 16.6757 8.34364 17.0074 9.99917 17.0074C14.4086 17.0074 17.6931 14.6611 19.8673 9.99672C20.0438 9.61874 20.0438 9.18033 19.87 8.79978ZM18.4015 1.04473L17.4292 0.0547825C17.4125 0.0374967 17.3924 0.0237127 17.37 0.0142881C17.3477 0.00486357 17.3235 0 17.2992 0C17.2748 0 17.2506 0.00486357 17.2283 0.0142881C17.2059 0.0237127 17.1858 0.0374967 17.1692 0.0547825L14.4895 2.78036C13.151 2.11825 11.656 1.78655 9.99917 1.78655C5.59106 1.78784 2.30786 4.13287 0.132323 8.79721C-0.0441077 9.17776 -0.0441077 9.62131 0.132323 10.0019C0.968047 11.7928 1.96694 13.2391 3.13032 14.3461L0.8208 16.6924C0.786585 16.7283 0.767581 16.7753 0.767581 16.8242C0.767581 16.873 0.786585 16.9201 0.8208 16.956L1.79316 17.9459C1.80978 17.963 1.82982 17.9766 1.85206 17.9859C1.8743 17.9952 1.89827 18 1.9225 18C1.94672 18 1.97069 17.9952 1.99293 17.9859C2.01517 17.9766 2.03522 17.963 2.05183 17.9459L18.4015 1.30572C18.4355 1.27027 18.4545 1.22365 18.4545 1.17523C18.4545 1.12681 18.4355 1.08018 18.4015 1.04473ZM7.40445 9.99029C7.36024 9.79565 7.338 9.59692 7.33812 9.39761C7.33812 7.95254 8.48823 6.78259 9.90764 6.78259C10.1066 6.78259 10.3056 6.80574 10.4913 6.85073L7.40445 9.99029ZM11.6361 5.68336C11.0992 5.42407 10.5075 5.28897 9.90764 5.28867C7.67904 5.28867 5.87096 7.12715 5.87096 9.39761C5.87096 10.0276 6.01025 10.6228 6.25831 11.1577L4.29502 13.1556C3.29348 12.217 2.42459 10.9687 1.67775 9.39889C3.59063 5.37738 6.30076 3.46819 9.99917 3.46819C11.1758 3.46819 12.2543 3.66103 13.2386 4.05444L11.6375 5.68336H11.6361ZM9.90897 12.0113C9.76305 12.0113 9.61713 11.9998 9.47784 11.9741L8.3065 13.1671C8.79732 13.3844 9.3412 13.5027 9.90897 13.5027C12.1376 13.5027 13.9456 11.6642 13.9456 9.39504C13.9456 8.81649 13.8289 8.26366 13.6153 7.76226L12.444 8.95663C12.4665 9.09805 12.4798 9.2459 12.4798 9.39375C12.4785 10.8427 11.3284 12.0113 9.90897 12.0113Z" fill="#666666"/>
</svg>
