<svg width="18" height="22" viewBox="0 0 18 22" fill="none" xmlns="http://www.w3.org/2000/svg">
<path d="M13.8431 0C16.1359 0 18 1.7699 18 3.9446V18.0554C18 20.2301 16.1359 22 13.8431 22H4.15688C1.86413 22 0 20.2301 0 18.0554V3.9446C0 1.771 1.86413 0 4.15688 0H13.8431ZM4.80938 1.5708H4.15688C2.7765 1.5708 1.65488 2.6356 1.65488 3.9446V18.0554C1.65488 19.3644 2.7765 20.4292 4.15688 20.4292H13.8431C15.2235 20.4292 16.3451 19.3644 16.3451 18.0554V3.9446C16.3451 2.6356 15.2235 1.5708 13.8431 1.5708H13.1906C13.0904 1.57085 12.9918 1.59619 12.9045 1.64437C12.8172 1.69254 12.7441 1.76192 12.6922 1.8458L11.3333 4.0304C11.2814 4.11428 11.2083 4.18366 11.121 4.23183C11.0337 4.28001 10.9351 4.30535 10.8349 4.3054H7.16513C7.06488 4.30535 6.96634 4.28001 6.87904 4.23183C6.79173 4.18366 6.71862 4.11428 6.66675 4.0304L5.30775 1.8447C5.25575 1.76102 5.18257 1.69186 5.09527 1.64389C5.00798 1.59591 4.90951 1.57074 4.80938 1.5708ZM12.375 16.775C12.5988 16.775 12.8134 16.8619 12.9716 17.0166C13.1299 17.1714 13.2188 17.3812 13.2188 17.6C13.2188 17.8188 13.1299 18.0286 12.9716 18.1834C12.8134 18.3381 12.5988 18.425 12.375 18.425H5.625C5.40122 18.425 5.18661 18.3381 5.02838 18.1834C4.87015 18.0286 4.78125 17.8188 4.78125 17.6C4.78125 17.3812 4.87015 17.1714 5.02838 17.0166C5.18661 16.8619 5.40122 16.775 5.625 16.775H12.375ZM10.4209 1.5708H7.578C7.52639 1.57115 7.47578 1.58485 7.43134 1.61051C7.38689 1.63616 7.35017 1.67286 7.32492 1.71688C7.29967 1.7609 7.28678 1.81066 7.28757 1.86113C7.28835 1.91159 7.30277 1.96095 7.32938 2.0042L7.69725 2.596C7.72322 2.63779 7.7597 2.67237 7.80323 2.69644C7.84676 2.72051 7.89587 2.73327 7.94588 2.7335H10.053C10.1032 2.73346 10.1525 2.72079 10.1963 2.69671C10.24 2.67263 10.2767 2.63795 10.3028 2.596L10.6706 2.0042C10.6973 1.96087 10.7117 1.91141 10.7124 1.86085C10.7132 1.8103 10.7002 1.76045 10.6748 1.7164C10.6494 1.67235 10.6125 1.63567 10.5679 1.61009C10.5233 1.58452 10.4726 1.57096 10.4209 1.5708Z" fill="#333130"/>
</svg>
