<svg width="20" height="20" viewBox="0 0 20 20" fill="none" xmlns="http://www.w3.org/2000/svg">
<path opacity="0.8" d="M0 14.25V19C0 19.2652 0.105357 19.5196 0.292893 19.7071C0.48043 19.8946 0.734784 20 1 20H5.75V18.5H2.35C2.23838 18.5 2.12785 18.478 2.02472 18.4353C1.92159 18.3926 1.82789 18.33 1.74896 18.251C1.67003 18.1721 1.60742 18.0784 1.5647 17.9753C1.52199 17.8722 1.5 17.7616 1.5 17.65V14.25H0ZM1.5 2.35C1.5 2.12457 1.58955 1.90837 1.74896 1.74896C1.90837 1.58955 2.12457 1.5 2.35 1.5H5.75V0H1C0.734784 0 0.48043 0.105357 0.292893 0.292893C0.105357 0.48043 0 0.734784 0 1L0 5.75H1.5V2.35ZM20 1C20 0.734784 19.8946 0.48043 19.7071 0.292893C19.5196 0.105357 19.2652 0 19 0L14.25 0V1.5H17.65C17.7616 1.5 17.8722 1.52199 17.9753 1.5647C18.0784 1.60742 18.1721 1.67003 18.251 1.74896C18.33 1.82789 18.3926 1.92159 18.4353 2.02472C18.478 2.12785 18.5 2.23838 18.5 2.35V5.75H20V1ZM18.5 17.65C18.5 17.8754 18.4104 18.0916 18.251 18.251C18.0916 18.4104 17.8754 18.5 17.65 18.5H14.25V20H19C19.2652 20 19.5196 19.8946 19.7071 19.7071C19.8946 19.5196 20 19.2652 20 19V14.25H18.5V17.65ZM1.69 8.575V7.605L3.455 7.245H4.31V13.17H3.14V8.295L1.69 8.575ZM10.615 9C10.6274 8.87241 10.6084 8.74372 10.5596 8.62518C10.5107 8.50665 10.4336 8.40187 10.335 8.32C10.0995 8.17136 9.82287 8.10133 9.545 8.12C9.09753 8.12575 8.65313 8.19476 8.225 8.325V7.355C8.72104 7.21566 9.23486 7.14996 9.75 7.16C10.2818 7.13199 10.8082 7.27765 11.25 7.575C11.4326 7.72852 11.5759 7.92337 11.668 8.14338C11.7602 8.36338 11.7986 8.60219 11.78 8.84C11.7876 9.15885 11.728 9.47574 11.605 9.77C11.4561 10.0993 11.2515 10.4004 11 10.66C10.5797 11.0854 10.1321 11.4829 9.66 11.85L9.285 12.145V12.215H11.955V13.17H7.855V12.11C8.58833 11.5267 9.15167 11.05 9.545 10.68C9.85828 10.4043 10.1355 10.0902 10.37 9.745C10.5223 9.52572 10.6074 9.26685 10.615 9ZM14.545 13.145V12.145C14.9691 12.2363 15.4012 12.2848 15.835 12.29C16.169 12.3063 16.5019 12.2411 16.805 12.1C16.9231 12.0326 17.0193 11.9326 17.0822 11.8121C17.1452 11.6915 17.1722 11.5554 17.16 11.42C17.1714 11.2829 17.1424 11.1455 17.0767 11.0247C17.0109 10.9038 16.9113 10.8049 16.79 10.74C16.4347 10.5908 16.0496 10.5258 15.665 10.55H15.21V9.68H15.655C16.0127 9.69841 16.3696 9.62978 16.695 9.48C16.8104 9.41945 16.9058 9.3268 16.9696 9.21324C17.0335 9.09967 17.0632 8.97004 17.055 8.84C17.0646 8.72851 17.0436 8.6165 16.9943 8.51606C16.9449 8.41562 16.8691 8.33054 16.775 8.27C16.5183 8.14071 16.2318 8.08204 15.945 8.1C15.7459 8.10135 15.5471 8.11638 15.35 8.145C15.1583 8.16989 14.9693 8.21172 14.785 8.27V7.33C14.9767 7.2752 15.1722 7.23509 15.37 7.21C15.6052 7.17628 15.8424 7.15957 16.08 7.16C16.6307 7.12443 17.1794 7.25508 17.655 7.535C17.8432 7.67649 17.9921 7.86379 18.0875 8.07909C18.1829 8.29439 18.2216 8.53051 18.2 8.765C18.215 9.06148 18.1257 9.35386 17.9476 9.59135C17.7695 9.82884 17.5138 9.99643 17.225 10.065V10.115C17.554 10.1644 17.8531 10.3336 18.065 10.59C18.2638 10.8508 18.3663 11.1723 18.355 11.5C18.355 12.66 17.535 13.24 15.895 13.24C15.443 13.252 14.9909 13.2202 14.545 13.145Z" fill="black"/>
</svg>
