<svg width="19" height="20" viewBox="0 0 19 20" fill="none" xmlns="http://www.w3.org/2000/svg">
<path d="M8.35804 20C7.85268 20 7.42675 19.623 7.36543 19.1213L7.15866 17.4299C7.11081 17.0384 6.83418 16.7173 6.47624 16.5518C6.308 16.4739 6.13417 16.384 5.95475 16.2819C5.76855 16.1761 5.59521 16.0668 5.43472 15.954C5.10991 15.7256 4.69048 15.6473 4.32639 15.8056L2.85553 16.4452C2.38496 16.6499 1.83588 16.4651 1.58471 16.0177L0.423094 13.9482C0.18014 13.5153 0.291451 12.9698 0.684556 12.6667L2.035 11.6256C2.32508 11.402 2.4661 11.0379 2.42942 10.6735C2.42837 10.6631 2.42733 10.6527 2.42631 10.6422C2.4053 10.4293 2.3948 10.2223 2.3948 10.0214C2.3948 9.83472 2.4053 9.63852 2.42631 9.43278C2.43053 9.39107 2.43498 9.34831 2.43966 9.30448C2.47722 8.95259 2.33364 8.60462 2.05337 8.38855L0.688093 7.33601C0.293454 7.03176 0.183025 6.48341 0.42914 6.05013L1.58458 4.016C1.83638 3.57272 2.38134 3.38982 2.84959 3.59144L4.33411 4.23068C4.68356 4.38115 5.08484 4.31547 5.39445 4.09435C5.57524 3.96523 5.76309 3.84332 5.95801 3.72861C6.13497 3.62442 6.30964 3.53135 6.48203 3.44939C6.82677 3.28547 7.08999 2.9736 7.13873 2.595L7.36053 0.872304C7.42475 0.373504 7.84943 0 8.35234 0H10.6413C11.147 0 11.5731 0.377478 11.634 0.879453L11.8457 2.62287C11.8913 2.99815 12.1478 3.30907 12.4909 3.46776C12.6816 3.55597 12.8595 3.65005 13.0244 3.75C13.1905 3.85064 13.3591 3.96435 13.5303 4.09113C13.8342 4.31616 14.2321 4.38425 14.5809 4.23828L16.1554 3.57941C16.6221 3.38413 17.1611 3.56812 17.4109 4.00799L18.5709 6.05006C18.817 6.48337 18.7066 7.03177 18.3119 7.33599L16.9181 8.4103C16.6105 8.64739 16.497 9.04469 16.5113 9.43278C16.5182 9.62426 16.5216 9.81333 16.5216 10C16.5216 10.1724 16.5146 10.3544 16.5007 10.5458C16.4986 10.5748 16.496 10.6047 16.4931 10.6355C16.4575 11.0097 16.5923 11.3853 16.8906 11.614L18.2642 12.6671C18.6589 12.9698 18.7712 13.5165 18.5277 13.9502L17.3692 16.0142C17.1172 16.4631 16.5656 16.6474 16.0944 16.44L14.5881 15.7772C14.2359 15.6222 13.8295 15.6878 13.5197 15.9158C13.3436 16.0454 13.167 16.1639 12.9899 16.2714C12.8332 16.3665 12.6737 16.4525 12.5112 16.5294C12.1601 16.6956 11.8901 17.0115 11.8433 17.3971L11.634 19.1205C11.5731 19.6225 11.147 20 10.6413 20H8.35804ZM8.30901 18.0063C8.36852 18.5097 8.79523 18.8889 9.30209 18.8889H9.66314C10.1643 18.8889 10.5881 18.5179 10.6544 18.0211L10.8519 16.5396C10.9052 16.1402 11.196 15.8191 11.5724 15.6753C11.874 15.5601 12.156 15.4251 12.4183 15.2703C12.6949 15.1071 12.9746 14.9058 13.2575 14.6663C13.5701 14.4017 14.0033 14.3147 14.3787 14.4784L15.645 15.0304C16.1128 15.2344 16.6592 15.0533 16.9126 14.6102L17.1143 14.2577C17.3626 13.8236 17.252 13.2729 16.8554 12.9682L15.7089 12.0874C15.3834 11.8374 15.255 11.4155 15.3206 11.0103C15.3322 10.9386 15.3418 10.8686 15.3493 10.8003C15.3785 10.5345 15.3931 10.2678 15.3931 10C15.3931 9.71796 15.3785 9.4512 15.3493 9.19972C15.3432 9.14702 15.3357 9.0932 15.3268 9.03826C15.261 8.62952 15.3857 8.20265 15.7134 7.94953L16.9007 7.03221C17.2956 6.72711 17.4051 6.17756 17.1573 5.74437L16.9516 5.38479C16.6994 4.94386 16.1567 4.76207 15.6898 4.9621L14.3975 5.51575C14.0023 5.68505 13.5476 5.57604 13.2151 5.30353C12.9865 5.11622 12.7279 4.93559 12.4392 4.76167C12.1517 4.58845 11.8724 4.44654 11.6014 4.33596C11.2047 4.17404 10.8873 3.83318 10.8403 3.40726L10.685 2.00134C10.6291 1.49462 10.2009 1.11111 9.69106 1.11111H9.31269C8.80397 1.11111 8.37633 1.49303 8.31905 1.99852L8.16173 3.38683C8.11352 3.81226 7.79611 4.15053 7.39321 4.29538C7.10504 4.39898 6.83103 4.52598 6.57117 4.67639C6.27987 4.84494 5.98952 5.05356 5.70011 5.30224C5.38702 5.57128 4.95131 5.66433 4.57181 5.50187L3.31012 4.96177C2.84325 4.76191 2.30071 4.94374 2.04855 5.38457L1.84533 5.73987C1.59644 6.175 1.70817 6.72716 2.10665 7.0313L3.18374 7.85338C3.53126 8.11862 3.65522 8.57863 3.59124 9.0111C3.58635 9.04415 3.58182 9.07749 3.57765 9.11111C3.54142 9.40315 3.52331 9.70657 3.52331 10.0214C3.52331 10.3034 3.54142 10.5833 3.57765 10.8611C3.58427 10.9119 3.59158 10.9625 3.59956 11.0129C3.66355 11.4167 3.53574 11.8382 3.21369 12.09L2.09225 12.9669C1.70088 13.273 1.59354 13.8199 1.84021 14.2512L2.04641 14.6117C2.29947 15.0541 2.8448 15.2354 3.31239 15.0326L4.54566 14.4976C4.92761 14.3319 5.36727 14.4264 5.68476 14.6958C5.95322 14.9235 6.22777 15.1186 6.50841 15.2811C6.78637 15.4419 7.08564 15.5811 7.40621 15.6989C7.79376 15.8412 8.09213 16.1719 8.14061 16.5819L8.30901 18.0063ZM9.47069 12.7778C10.2287 12.7778 10.871 12.5085 11.3976 11.97C11.9241 11.4317 12.1874 10.775 12.1874 10C12.1874 9.225 11.9241 8.56833 11.3976 8.03C10.871 7.49148 10.2287 7.22222 9.47069 7.22222C8.70875 7.22222 8.06544 7.49148 7.54076 8.03C7.01625 8.56833 6.754 9.225 6.754 10C6.754 10.775 7.01625 11.4317 7.54076 11.97C8.06544 12.5085 8.70875 12.7778 9.47069 12.7778Z" fill="#B7BACE"/>
</svg>
