<svg width="50" height="50" viewBox="0 0 50 50" fill="none" xmlns="http://www.w3.org/2000/svg">
<path d="M25 0C38.807 0 50 11.193 50 25C50 38.807 38.807 50 25 50C11.193 50 0 38.807 0 25C0 11.193 11.193 0 25 0Z" fill="black" fill-opacity="0.4"/>
<path d="M20.1297 23.2119C18.8555 23.2119 17.8224 22.1731 17.8224 20.8915C17.8224 19.6098 18.8555 18.5659 20.1297 18.5711C21.4038 18.5711 22.4369 19.6098 22.4369 20.8915C22.4369 22.1731 21.4038 23.2119 20.1297 23.2119Z" fill="white"/>
<path fill-rule="evenodd" clip-rule="evenodd" d="M17.178 15H32.822C34.5733 15 35.9951 16.292 36 17.8837V32.1111C36 33.708 34.5783 35 32.822 35H17.178C15.4217 35 14 33.708 14 32.1111V17.8889C14 16.292 15.4217 15 17.178 15ZM34.47 23.2119V17.7597C34.47 17 33.7961 16.385 32.9548 16.3902H17.0304C16.199 16.3902 15.525 17.0052 15.525 17.7597V28.4574C15.525 28.7261 15.894 28.845 16.0809 28.6331C17.6453 26.876 20.4199 24.8191 24.203 26.1473C24.3211 26.1886 24.449 26.168 24.5425 26.0853C25.4477 25.2532 26.4513 24.5556 27.5335 24.0026C28.6749 23.4289 29.8063 23.093 30.9034 23.0052C31.9906 22.9173 33.0385 23.0724 34.0322 23.4755C34.2388 23.5581 34.47 23.4186 34.47 23.2119Z" fill="white"/>
</svg>
