<svg width="50" height="50" viewBox="0 0 50 50" fill="none" xmlns="http://www.w3.org/2000/svg">
<path d="M25 0C38.807 0 50 11.193 50 25C50 38.807 38.807 50 25 50C11.193 50 0 38.807 0 25C0 11.193 11.193 0 25 0Z" fill="black" fill-opacity="0.4"/>
<path d="M34.9054 31.749H34.0519V35.284H33.1964V30.8715H35.7609V32.6235H36.6449V30.8715H37.5004V33.501H34.9054V31.749ZM33.1964 25.553H37.5004V29.953H33.1964V25.553ZM34.0519 29.0885H36.6449V26.428H34.0519V29.0885ZM27.8514 30.8715H32.1529V35.284H27.8514V30.8715ZM28.7044 34.4065H31.2994V31.749H28.7044V34.4065ZM27.8514 25.553H32.1529V29.953H27.8514V25.553ZM28.7044 29.0885H31.2994V26.428H28.7044V29.0885ZM25.0959 24.5445C23.6614 26.3175 24.2439 27.1365 24.2889 27.2275C24.7346 27.8449 25.336 28.3331 26.0319 28.6425V33.957H12.5334C12.4889 33.7295 12.4889 33.1385 12.5334 32.502C12.6679 31.365 13.1164 30.547 13.7884 30.0465C14.2819 29.683 14.9089 29.501 15.4469 29.3645C15.7159 29.319 15.9849 29.228 16.2089 29.1825C17.5534 28.8645 18.5074 28.546 19.5379 27.1815C19.6274 27.091 20.1654 26.2725 18.7314 24.499C18.1034 23.726 17.7004 22.68 17.5209 21.3615C17.3414 19.9975 17.4764 18.724 17.6104 17.906C17.7899 16.9505 18.3274 16.0865 19.1344 15.45C19.9272 14.8286 20.9061 14.4924 21.9134 14.4955C22.8989 14.4955 23.8854 14.8135 24.6924 15.45C25.4989 16.0865 26.0369 16.9505 26.2164 17.951C26.3504 18.7695 26.4854 20.043 26.3059 21.407C26.1264 22.68 25.7234 23.726 25.0959 24.5445Z" fill="white"/>
</svg>
