<svg width="14" height="14" viewBox="0 0 14 14" fill="none" xmlns="http://www.w3.org/2000/svg">
<path d="M14 7.7765V11.4825H10.2941V9.02153H9.05882V14H7.82353V7.79168H11.5294V10.2518H12.7647V7.7765H14ZM6.17647 7.79168V13.943H0V7.79168H6.17647ZM14 12.7127V13.943H10.2941V12.7127H14ZM4.94118 9.02194H1.23529V12.7127H4.94118V9.02194ZM3.70588 10.2522V11.4825H2.47059V10.2522H3.70588ZM6.17647 0V6.15132H0V0H6.17647ZM14 0V6.15132H7.82353V0H14ZM4.94118 1.23026H1.23529V4.92106H4.94118V1.23026ZM12.7647 1.23026H9.05882V4.92106H12.7647V1.23026ZM3.70588 2.46053V3.69079H2.47059V2.46053H3.70588ZM11.5294 2.46053V3.69079H10.2941V2.46053H11.5294Z" fill="white" fill-opacity="0.6"/>
</svg>
