<svg width="80" height="80" viewBox="0 0 80 80" fill="none" xmlns="http://www.w3.org/2000/svg">
<circle cx="40" cy="40" r="34" fill="white"/>
<path d="M40 0C62.092 0 80 17.908 80 40C80 62.092 62.092 80 40 80C17.908 80 0 62.092 0 40C0 17.908 17.908 0 40 0ZM32.972 51.6L24.48 43.108C24.111 42.726 23.6696 42.4212 23.1816 42.2116C22.6936 42.002 22.1687 41.8916 21.6376 41.887C21.1065 41.8824 20.5798 41.9836 20.0882 42.1847C19.5966 42.3858 19.15 42.6828 18.7744 43.0584C18.3988 43.434 18.1018 43.8806 17.9007 44.3722C17.6996 44.8638 17.5984 45.3905 17.603 45.9216C17.6076 46.4527 17.718 46.9776 17.9276 47.4656C18.1372 47.9536 18.442 48.395 18.824 48.764L30.14 60.08C30.8901 60.8299 31.9073 61.2511 32.968 61.2511C34.0287 61.2511 35.0459 60.8299 35.796 60.08L64.076 31.796C64.467 31.4294 64.7803 30.9879 64.9973 30.4978C65.2143 30.0077 65.3306 29.479 65.3393 28.9431C65.348 28.4072 65.2489 27.875 65.048 27.3782C64.847 26.8813 64.5481 26.4299 64.1693 26.0508C63.7904 25.6716 63.3392 25.3725 62.8425 25.1712C62.3458 24.9698 61.8137 24.8704 61.2777 24.8787C60.7418 24.887 60.2131 25.0029 59.7228 25.2196C59.2326 25.4363 58.7909 25.7493 58.424 26.14L32.968 51.592L32.972 51.6Z" fill="#00C22B"/>
</svg>
