<svg width="280" height="170" viewBox="0 0 280 170" fill="none" xmlns="http://www.w3.org/2000/svg">
<path d="M280 161.29C280 162.434 279.762 163.566 279.298 164.623C278.835 165.68 278.156 166.64 277.299 167.449C275.57 169.082 273.224 170 270.778 170H9.22196C4.12914 170 0 166.1 0 161.29V8.68847C7.35113e-05 7.54573 0.238821 6.41422 0.702571 5.35875C1.16632 4.30327 1.84596 3.34456 2.70258 2.5375C3.5592 1.73045 4.57597 1.09091 5.69466 0.655506C6.81335 0.220102 8.012 -0.00261347 9.22196 0.000111932H270.778C271.989 -0.00570056 273.189 0.214918 274.309 0.649254C275.43 1.08359 276.448 1.72305 277.305 2.53077C278.162 3.33869 278.841 4.29867 279.304 5.35546C279.766 6.41225 280.003 7.54498 280 8.68847V161.29H280Z" fill="#545467"/>
<path d="M24.4453 35.5174H44.4456V25.8154H24.4453V35.5174ZM24.4453 59.6974H44.4456V49.9951H24.4453V59.6974ZM24.4453 83.8989H44.4456V74.1754H24.4453V83.8989ZM24.4453 152.739H80.0011V141.983H24.4453V152.739ZM243.379 59.9775L244.334 60.5586L245.29 61.2035V62.3216C245.438 65.0749 245.03 67.8297 244.089 70.4319C243.451 72.2256 242.186 73.7473 240.513 74.7342C239.59 78.3002 238.193 81.7352 236.357 84.9533C234.452 88.326 231.385 90.9448 227.691 92.3533C224.285 93.0783 220.795 93.3606 217.313 93.1928C213.986 93.295 210.663 92.8885 207.467 91.9883C204.065 90.3757 201.308 87.7211 199.623 84.4364C198.009 81.3773 196.757 78.1517 195.89 74.8209C194.157 73.8671 192.839 72.339 192.179 70.5183C191.199 67.8797 190.768 65.0794 190.911 62.2789V61.1395L191.868 60.5156L192.6 60.0639C191.511 47.0486 191.912 42.2516 196.845 36.7445C206.468 29.0211 228.535 29.3012 238.29 36.292C244.957 42.4884 245.424 49.3715 243.379 59.9775ZM223.157 97.6233L223.313 100.593L221.513 103.432L224.024 119.587L234.335 97.9034L249.89 97.3866C258.001 104.895 263.223 122.578 261.913 134.109H174.579C174.801 123.976 176.801 106.681 187.001 97.8825L201.179 98.0107L214.511 119.523L216.956 103.433L215.135 100.507L215.29 97.5384C217.911 97.3732 220.541 97.4016 223.157 97.6233ZM234.912 55.3733C228.667 56.5571 219.357 57.5252 212.067 53.5664C209.223 52.0176 205.113 55.2017 201.734 54.8788C200.666 56.9641 199.918 59.189 199.512 61.4833L199.134 63.4403L197.113 63.2466C196.722 63.2045 196.327 63.2488 195.957 63.376L195.424 63.5918C195.367 65.435 195.661 67.2724 196.29 69.0128C196.47 69.5099 196.764 69.9614 197.148 70.3337C197.533 70.7061 198 70.9897 198.513 71.1635L199.69 71.5297L200.002 72.6702C200.817 76.025 202.04 79.2743 203.646 82.35C204.884 84.8125 206.921 86.8149 209.446 88.0511C212.076 88.6778 214.783 88.9528 217.49 88.8684C220.467 89.0242 223.453 88.8217 226.379 88.2666C229.115 87.2046 231.379 85.2482 232.779 82.7375C234.528 79.5427 235.85 76.1452 236.712 72.6271L237.001 71.5299L238.113 71.1428C238.606 70.929 239.047 70.6147 239.403 70.2212C239.76 69.8277 240.025 69.3643 240.179 68.8627C240.789 67.183 241.097 65.4146 241.09 63.6343L240.601 63.4406C240.229 63.319 239.838 63.2611 239.445 63.2692L237.489 63.3987L237.134 61.5046C236.671 59.3762 235.924 57.3152 234.912 55.3733ZM53.3338 35.97H113.757V25.8154H53.3338V35.97ZM53.3338 61.2675H113.757V51.0932H53.3338V61.2675ZM53.3338 86.5659H113.757V76.3913H53.3338V86.5659ZM85.3792 152.739H176.268V142.563H85.3792V152.739Z" fill="#6E6E88"/>
</svg>
