<svg width="30" height="26" viewBox="0 0 30 26" fill="none" xmlns="http://www.w3.org/2000/svg">
<path d="M6.6 0C4.61177 0 3 1.62806 3 3.63636V5.45455H30V3.63636C30 1.62806 28.3882 0 26.4 0H6.6Z" fill="#3E3E81"/>
<path fill-rule="evenodd" clip-rule="evenodd" d="M30 7.72727H3V16.3636C3 18.3719 4.61177 20 6.6 20H26.4C28.3882 20 30 18.3719 30 16.3636V7.72727Z" fill="#3E3E81"/>
<path d="M3.73333 4C1.67147 4 0 5.79086 0 8V10H28V8C28 5.79086 26.3285 4 24.2667 4H3.73333Z" fill="url(#paint0_linear_46_87)"/>
<path fill-rule="evenodd" clip-rule="evenodd" d="M28 12.5H0V22C0 24.2091 1.67147 26 3.73333 26H24.2667C26.3285 26 28 24.2091 28 22V12.5ZM12.6 15H3.26667V17.5H12.6V15ZM3.26667 20H7.93333V22.5H3.26667V20Z" fill="url(#paint1_linear_46_87)"/>
<defs>
<linearGradient id="paint0_linear_46_87" x1="13.3164" y1="24.2579" x2="13.6743" y2="3.99425" gradientUnits="userSpaceOnUse">
<stop stop-color="#586BF9"/>
<stop offset="0.448762" stop-color="#3870FF"/>
<stop offset="1" stop-color="#73B9FF"/>
</linearGradient>
<linearGradient id="paint1_linear_46_87" x1="13.3164" y1="24.2579" x2="13.6743" y2="3.99425" gradientUnits="userSpaceOnUse">
<stop stop-color="#586BF9"/>
<stop offset="0.448762" stop-color="#3870FF"/>
<stop offset="1" stop-color="#73B9FF"/>
</linearGradient>
</defs>
</svg>
